M48
; DRILL file {KiCad 7.0.10} date Fri Mar 29 17:25:09 2024
; FORMAT={-:-/ absolute / inch / decimal}
; #@! TF.CreationDate,2024-03-29T17:25:09+05:30
; #@! TF.GenerationSoftware,Kicad,Pcbnew,7.0.10
; #@! TF.FileFunction,MixedPlating,1,2
FMAT,2
INCH
; #@! TA.AperFunction,Plated,PTH,ComponentDrill
T1C0.0276
; #@! TA.AperFunction,Plated,PTH,ComponentDrill
T2C0.0303
; #@! TA.AperFunction,Plated,PTH,ComponentDrill
T3C0.0315
; #@! TA.AperFunction,Plated,PTH,ComponentDrill
T4C0.0327
; #@! TA.AperFunction,Plated,PTH,ComponentDrill
T5C0.0354
; #@! TA.AperFunction,Plated,PTH,ViaDrill
T6C0.0394
; #@! TA.AperFunction,Plated,PTH,ComponentDrill
T7C0.0394
; #@! TA.AperFunction,Plated,PTH,ComponentDrill
T8C0.0433
; #@! TA.AperFunction,Plated,PTH,ComponentDrill
T9C0.0512
; #@! TA.AperFunction,NonPlated,NPTH,ComponentDrill
T10C0.1181
%
G90
G05
T1
X0.932Y-0.835
X0.9488Y-1.5764
X0.9488Y-1.8764
X1.099Y-1.6132
X1.232Y-0.835
X1.343Y-1.471
X1.356Y-0.851
X1.399Y-1.6132
X1.643Y-1.471
X1.656Y-0.851
X1.656Y-3.248
X1.956Y-3.248
X2.022Y-1.478
X2.0669Y-2.9996
X2.0669Y-3.2996
X2.1654Y-2.6059
X2.1654Y-2.9059
X2.2122Y-3.0512
X2.24Y-1.088
X2.3106Y-2.1654
X2.322Y-1.478
X2.3622Y-2.3106
X2.3622Y-2.6106
X2.5122Y-3.0512
X2.54Y-1.088
X2.6106Y-2.1654
X2.648Y-1.225
X2.648Y-1.525
X2.7512Y-2.1654
X3.0512Y-2.1654
X3.1496Y-2.2122
X3.1496Y-2.5122
X3.15Y-3.26
X3.1965Y-3.0512
X3.2949Y-2.0669
X3.45Y-3.26
X3.4965Y-3.0512
X3.5902Y-0.8858
X3.5949Y-2.0669
X3.6437Y-1.0079
X3.7402Y-1.9169
X3.7402Y-2.2169
X3.8902Y-0.8858
X3.937Y-2.1138
X3.937Y-2.4138
X3.9437Y-1.0079
X3.9839Y-1.7717
X4.0823Y-2.7559
X4.1571Y-0.7982
X4.2839Y-1.7717
X4.377Y-1.4612
X4.377Y-1.7612
X4.3823Y-2.7559
X4.4571Y-0.7982
X4.476Y-2.7559
X4.476Y-2.9528
X4.626Y-0.8343
X4.626Y-1.1343
X4.776Y-2.7559
X4.776Y-2.9528
X4.8228Y-0.8343
X4.8228Y-1.1343
T2
X2.7621Y-1.332
X2.7621Y-1.432
X2.7621Y-1.532
X2.7621Y-1.632
X2.7621Y-1.732
X2.7621Y-1.832
X2.7621Y-1.932
X3.0747Y-1.332
X3.0747Y-1.432
X3.0747Y-1.532
X3.0747Y-1.632
X3.0747Y-1.732
X3.0747Y-1.832
X3.0747Y-1.932
T3
X1.078Y-2.8465
X1.078Y-2.9465
X1.078Y-3.0465
X1.078Y-3.1465
X1.078Y-3.2465
X1.078Y-3.3465
X1.078Y-3.4465
X1.078Y-3.5465
X1.0982Y-1.8711
X1.102Y-1.7411
X1.2838Y-0.704
X1.3404Y-1.0184
X1.3404Y-1.1184
X1.3404Y-1.2184
X1.3404Y-1.3184
X1.378Y-2.8465
X1.378Y-2.9465
X1.378Y-3.0465
X1.378Y-3.1465
X1.378Y-3.2465
X1.378Y-3.3465
X1.378Y-3.4465
X1.378Y-3.5465
X1.3822Y-0.704
X1.3982Y-1.8711
X1.402Y-1.7411
X1.5848Y-2.8043
X1.5848Y-2.9043
X1.5848Y-3.0043
X1.5848Y-3.1043
X1.6404Y-1.0184
X1.6404Y-1.1184
X1.6404Y-1.2184
X1.6404Y-1.3184
X1.7205Y-2.2126
X1.7205Y-2.3126
X1.7205Y-2.4126
X1.7205Y-2.5126
X1.7598Y-1.51
X1.8364Y-1.0154
X1.8364Y-1.1154
X1.8364Y-1.2154
X1.8364Y-1.3154
X1.8404Y-1.6764
X1.8404Y-1.7764
X1.8404Y-1.8764
X1.8404Y-1.9764
X1.8582Y-1.51
X1.8848Y-2.8043
X1.8848Y-2.9043
X1.8848Y-3.0043
X1.8848Y-3.1043
X2.0205Y-2.2126
X2.0205Y-2.3126
X2.0205Y-2.4126
X2.0205Y-2.5126
X2.1364Y-1.0154
X2.1364Y-1.1154
X2.1364Y-1.2154
X2.1364Y-1.3154
X2.1404Y-1.6764
X2.1404Y-1.7764
X2.1404Y-1.8764
X2.1404Y-1.9764
X2.237Y-1.342
X2.243Y-1.215
X2.31Y-1.676
X2.31Y-1.776
X2.31Y-1.876
X2.31Y-1.976
X2.3819Y-2.8543
X2.4803Y-2.8543
X2.537Y-1.342
X2.543Y-1.215
X2.61Y-1.676
X2.61Y-1.776
X2.61Y-1.876
X2.61Y-1.976
X2.7039Y-2.8494
X2.7039Y-3.1494
X2.7559Y-0.8858
X2.8039Y-2.8494
X2.8039Y-3.1494
X2.8543Y-0.8858
X2.9039Y-2.8494
X2.9039Y-3.1494
X3.0039Y-2.8494
X3.0039Y-3.1494
X3.0512Y-0.911
X3.1496Y-0.911
X3.248Y-2.6528
X3.248Y-2.9528
X3.2549Y-1.3415
X3.2549Y-1.4415
X3.2549Y-1.5415
X3.2549Y-1.6415
X3.2549Y-1.7415
X3.2549Y-1.8415
X3.2549Y-1.9415
X3.2945Y-2.2126
X3.2945Y-2.5126
X3.3465Y-0.8858
X3.3465Y-1.0827
X3.348Y-2.6528
X3.348Y-2.9528
X3.3945Y-2.2126
X3.3945Y-2.5126
X3.4449Y-0.8858
X3.4449Y-1.0827
X3.448Y-2.6528
X3.448Y-2.9528
X3.4945Y-2.2126
X3.4945Y-2.5126
X3.548Y-2.6528
X3.548Y-2.9528
X3.5549Y-1.3415
X3.5549Y-1.4415
X3.5549Y-1.5415
X3.5549Y-1.6415
X3.5549Y-1.7415
X3.5549Y-1.8415
X3.5549Y-1.9415
X3.5945Y-2.2126
X3.5945Y-2.5126
X3.7167Y-1.3526
X3.7167Y-1.4526
X3.7167Y-1.5526
X3.7167Y-1.6526
X3.9516Y-3.19
X4.0167Y-1.3526
X4.0167Y-1.4526
X4.0167Y-1.5526
X4.0167Y-1.6526
X4.05Y-3.19
X4.1713Y-1.0148
X4.1713Y-1.1148
X4.1713Y-1.2148
X4.1713Y-1.3148
X4.4713Y-1.0148
X4.4713Y-1.1148
X4.4713Y-1.2148
X4.4713Y-1.3148
X4.6244Y-2.1622
X4.626Y-1.2795
X4.626Y-1.4764
X4.626Y-2.5591
X4.7244Y-1.2795
X4.7244Y-1.4764
X4.7244Y-2.3622
X4.7244Y-2.5591
X4.8244Y-2.1622
T4
X4.1041Y-1.9669
X4.1041Y-2.0669
X4.1041Y-2.1669
X4.1041Y-2.2669
X4.1041Y-2.3669
X4.1041Y-2.4669
X4.1041Y-2.5669
X4.4291Y-1.9669
X4.4291Y-2.0669
X4.4291Y-2.1669
X4.4291Y-2.2669
X4.4291Y-2.3669
X4.4291Y-2.4669
X4.4291Y-2.5669
T5
X4.9197Y-2.8543
X5.0197Y-2.8543
T6
X0.734Y-1.678
X0.734Y-1.951
X0.752Y-1.385
X0.765Y-3.06
X0.766Y-2.224
X0.766Y-2.513
X0.767Y-0.949
X0.776Y-2.752
X0.7768Y-1.112
X0.779Y-3.242
X0.896Y-3.42
X0.9Y-2.92
X0.978Y-3.672
X1.035Y-0.692
X1.0925Y-2.686
X1.1083Y-2.2028
X1.159Y-3.755
X1.17Y-0.632
X1.185Y-2.103
X1.218Y-3.382
X1.2276Y-3.1959
X1.228Y-3.499
X1.24Y-2.382
X1.2805Y-3.0492
X1.366Y-3.717
X1.45Y-2.704
X1.476Y-0.628
X1.506Y-1.24
X1.578Y-1.703
X1.585Y-1.957
X1.622Y-3.737
X1.655Y-0.656
X1.673Y-1.789
X1.728Y-2.669
X1.83Y-0.639
X1.859Y-3.731
X1.993Y-1.279
X2.038Y-2.638
X2.047Y-3.697
X2.069Y-0.643
X2.208Y-2.336
X2.214Y-3.433
X2.2244Y-1.9272
X2.232Y-3.685
X2.345Y-0.673
X2.381Y-3.594
X2.439Y-3.33
X2.497Y-1.826
X2.504Y-1.986
X2.528Y-0.7
X2.592Y-3.533
X2.651Y-1.08
X2.787Y-2.265
X2.8284Y-3.5568
X2.864Y-1.084
X2.906Y-1.717
X2.909Y-1.462
X2.926Y-2.252
X2.933Y-3.373
X2.957Y-1.857
X3.046Y-1.087
X3.0832Y-3.5568
X3.152Y-1.689
X3.332Y-3.557
X3.335Y-2.368
X3.3967Y-1.6486
X3.55Y-2.38
X3.596Y-3.5568
X3.656Y-3.076
X3.673Y-3.251
X3.684Y-0.657
X3.687Y-1.202
X3.7Y-1.782
X3.778Y-3.523
X3.838Y-1.845
X3.9528Y-1.9079
X3.989Y-0.675
X4.048Y-3.499
X4.1486Y-1.4577
X4.159Y-2.883
X4.189Y-2.112
X4.19Y-2.222
X4.198Y-3.033
X4.2008Y-2.4656
X4.285Y-0.639
X4.307Y-2.393
X4.3287Y-1.1969
X4.3392Y-3.5174
X4.343Y-2.147
X4.386Y-3.163
X4.499Y-0.644
X4.585Y-3.472
X4.657Y-1.993
X4.685Y-0.666
X4.714Y-3.25
X4.9124Y-2.7224
X4.918Y-1.453
X4.931Y-3.47
X4.978Y-1.001
X4.981Y-0.698
X4.981Y-1.252
X4.998Y-2.012
X5.022Y-2.592
X5.067Y-2.185
X5.104Y-0.862
X5.195Y-0.994
X5.231Y-3.283
X5.246Y-1.797
X5.277Y-1.171
X5.286Y-2.341
X5.295Y-2.846
X5.299Y-1.422
X5.299Y-2.596
X5.2994Y-1.5719
X5.309Y-3.183
X5.313Y-2.032
T7
X0.9734Y-2.0945
X0.9734Y-2.1945
X0.9734Y-2.2945
X0.9772Y-2.56
X1.0772Y-2.56
X1.1772Y-2.56
X1.5717Y-3.5433
X1.6717Y-3.5433
X1.7717Y-3.5433
X1.8717Y-3.5433
T8
X1.877Y-0.806
X1.977Y-0.806
X2.077Y-0.806
X2.306Y-0.8768
X2.406Y-0.8768
X2.506Y-0.8768
X2.7559Y-0.688
X2.9528Y-0.683
X3.248Y-0.681
X3.4449Y-0.689
X3.7402Y-2.3591
X3.7402Y-2.7591
X3.937Y-2.5559
X3.937Y-2.9559
X4.9508Y-3.0502
T9
X0.9526Y-1.0021
X0.9526Y-1.3959
X1.1494Y-1.199
X1.378Y-2.1654
X1.378Y-2.5591
X1.5748Y-2.3622
X2.5591Y-2.3622
X2.7559Y-2.5591
X2.9528Y-2.3622
X4.5886Y-1.6614
X4.7854Y-1.8583
X4.9823Y-1.6614
T10
X0.779Y-0.697
X0.785Y-3.675
X5.275Y-0.704
X5.304Y-3.68
M30
