%TF.GenerationSoftware,KiCad,Pcbnew,7.0.10*%
%TF.CreationDate,2024-04-02T15:07:52+05:30*%
%TF.ProjectId,Metal_detector,4d657461-6c5f-4646-9574-6563746f722e,rev?*%
%TF.SameCoordinates,Original*%
%TF.FileFunction,Legend,Top*%
%TF.FilePolarity,Positive*%
%FSLAX46Y46*%
G04 Gerber Fmt 4.6, Leading zero omitted, Abs format (unit mm)*
G04 Created by KiCad (PCBNEW 7.0.10) date 2024-04-02 15:07:52*
%MOMM*%
%LPD*%
G01*
G04 APERTURE LIST*
%ADD10C,0.150000*%
%ADD11C,0.200000*%
%ADD12C,0.120000*%
%ADD13C,0.127000*%
G04 APERTURE END LIST*
D10*
X93184742Y-83955019D02*
X92851409Y-83478828D01*
X92613314Y-83955019D02*
X92613314Y-82955019D01*
X92613314Y-82955019D02*
X92994266Y-82955019D01*
X92994266Y-82955019D02*
X93089504Y-83002638D01*
X93089504Y-83002638D02*
X93137123Y-83050257D01*
X93137123Y-83050257D02*
X93184742Y-83145495D01*
X93184742Y-83145495D02*
X93184742Y-83288352D01*
X93184742Y-83288352D02*
X93137123Y-83383590D01*
X93137123Y-83383590D02*
X93089504Y-83431209D01*
X93089504Y-83431209D02*
X92994266Y-83478828D01*
X92994266Y-83478828D02*
X92613314Y-83478828D01*
X94137123Y-83955019D02*
X93565695Y-83955019D01*
X93851409Y-83955019D02*
X93851409Y-82955019D01*
X93851409Y-82955019D02*
X93756171Y-83097876D01*
X93756171Y-83097876D02*
X93660933Y-83193114D01*
X93660933Y-83193114D02*
X93565695Y-83240733D01*
X94994266Y-83288352D02*
X94994266Y-83955019D01*
X94756171Y-82907400D02*
X94518076Y-83621685D01*
X94518076Y-83621685D02*
X95137123Y-83621685D01*
X106672142Y-73642619D02*
X106338809Y-73166428D01*
X106100714Y-73642619D02*
X106100714Y-72642619D01*
X106100714Y-72642619D02*
X106481666Y-72642619D01*
X106481666Y-72642619D02*
X106576904Y-72690238D01*
X106576904Y-72690238D02*
X106624523Y-72737857D01*
X106624523Y-72737857D02*
X106672142Y-72833095D01*
X106672142Y-72833095D02*
X106672142Y-72975952D01*
X106672142Y-72975952D02*
X106624523Y-73071190D01*
X106624523Y-73071190D02*
X106576904Y-73118809D01*
X106576904Y-73118809D02*
X106481666Y-73166428D01*
X106481666Y-73166428D02*
X106100714Y-73166428D01*
X107624523Y-73642619D02*
X107053095Y-73642619D01*
X107338809Y-73642619D02*
X107338809Y-72642619D01*
X107338809Y-72642619D02*
X107243571Y-72785476D01*
X107243571Y-72785476D02*
X107148333Y-72880714D01*
X107148333Y-72880714D02*
X107053095Y-72928333D01*
X107957857Y-72642619D02*
X108576904Y-72642619D01*
X108576904Y-72642619D02*
X108243571Y-73023571D01*
X108243571Y-73023571D02*
X108386428Y-73023571D01*
X108386428Y-73023571D02*
X108481666Y-73071190D01*
X108481666Y-73071190D02*
X108529285Y-73118809D01*
X108529285Y-73118809D02*
X108576904Y-73214047D01*
X108576904Y-73214047D02*
X108576904Y-73452142D01*
X108576904Y-73452142D02*
X108529285Y-73547380D01*
X108529285Y-73547380D02*
X108481666Y-73595000D01*
X108481666Y-73595000D02*
X108386428Y-73642619D01*
X108386428Y-73642619D02*
X108100714Y-73642619D01*
X108100714Y-73642619D02*
X108005476Y-73595000D01*
X108005476Y-73595000D02*
X107957857Y-73547380D01*
X61017161Y-27090657D02*
X60921923Y-27043038D01*
X60921923Y-27043038D02*
X60826685Y-26947800D01*
X60826685Y-26947800D02*
X60683828Y-26804942D01*
X60683828Y-26804942D02*
X60588590Y-26757323D01*
X60588590Y-26757323D02*
X60493352Y-26757323D01*
X60540971Y-26995419D02*
X60445733Y-26947800D01*
X60445733Y-26947800D02*
X60350495Y-26852561D01*
X60350495Y-26852561D02*
X60302876Y-26662085D01*
X60302876Y-26662085D02*
X60302876Y-26328752D01*
X60302876Y-26328752D02*
X60350495Y-26138276D01*
X60350495Y-26138276D02*
X60445733Y-26043038D01*
X60445733Y-26043038D02*
X60540971Y-25995419D01*
X60540971Y-25995419D02*
X60731447Y-25995419D01*
X60731447Y-25995419D02*
X60826685Y-26043038D01*
X60826685Y-26043038D02*
X60921923Y-26138276D01*
X60921923Y-26138276D02*
X60969542Y-26328752D01*
X60969542Y-26328752D02*
X60969542Y-26662085D01*
X60969542Y-26662085D02*
X60921923Y-26852561D01*
X60921923Y-26852561D02*
X60826685Y-26947800D01*
X60826685Y-26947800D02*
X60731447Y-26995419D01*
X60731447Y-26995419D02*
X60540971Y-26995419D01*
X61921923Y-26995419D02*
X61350495Y-26995419D01*
X61636209Y-26995419D02*
X61636209Y-25995419D01*
X61636209Y-25995419D02*
X61540971Y-26138276D01*
X61540971Y-26138276D02*
X61445733Y-26233514D01*
X61445733Y-26233514D02*
X61350495Y-26281133D01*
X106857142Y-68534819D02*
X106523809Y-68058628D01*
X106285714Y-68534819D02*
X106285714Y-67534819D01*
X106285714Y-67534819D02*
X106666666Y-67534819D01*
X106666666Y-67534819D02*
X106761904Y-67582438D01*
X106761904Y-67582438D02*
X106809523Y-67630057D01*
X106809523Y-67630057D02*
X106857142Y-67725295D01*
X106857142Y-67725295D02*
X106857142Y-67868152D01*
X106857142Y-67868152D02*
X106809523Y-67963390D01*
X106809523Y-67963390D02*
X106761904Y-68011009D01*
X106761904Y-68011009D02*
X106666666Y-68058628D01*
X106666666Y-68058628D02*
X106285714Y-68058628D01*
X107809523Y-68534819D02*
X107238095Y-68534819D01*
X107523809Y-68534819D02*
X107523809Y-67534819D01*
X107523809Y-67534819D02*
X107428571Y-67677676D01*
X107428571Y-67677676D02*
X107333333Y-67772914D01*
X107333333Y-67772914D02*
X107238095Y-67820533D01*
X108428571Y-67534819D02*
X108523809Y-67534819D01*
X108523809Y-67534819D02*
X108619047Y-67582438D01*
X108619047Y-67582438D02*
X108666666Y-67630057D01*
X108666666Y-67630057D02*
X108714285Y-67725295D01*
X108714285Y-67725295D02*
X108761904Y-67915771D01*
X108761904Y-67915771D02*
X108761904Y-68153866D01*
X108761904Y-68153866D02*
X108714285Y-68344342D01*
X108714285Y-68344342D02*
X108666666Y-68439580D01*
X108666666Y-68439580D02*
X108619047Y-68487200D01*
X108619047Y-68487200D02*
X108523809Y-68534819D01*
X108523809Y-68534819D02*
X108428571Y-68534819D01*
X108428571Y-68534819D02*
X108333333Y-68487200D01*
X108333333Y-68487200D02*
X108285714Y-68439580D01*
X108285714Y-68439580D02*
X108238095Y-68344342D01*
X108238095Y-68344342D02*
X108190476Y-68153866D01*
X108190476Y-68153866D02*
X108190476Y-67915771D01*
X108190476Y-67915771D02*
X108238095Y-67725295D01*
X108238095Y-67725295D02*
X108285714Y-67630057D01*
X108285714Y-67630057D02*
X108333333Y-67582438D01*
X108333333Y-67582438D02*
X108428571Y-67534819D01*
X119874819Y-25166666D02*
X119398628Y-25499999D01*
X119874819Y-25738094D02*
X118874819Y-25738094D01*
X118874819Y-25738094D02*
X118874819Y-25357142D01*
X118874819Y-25357142D02*
X118922438Y-25261904D01*
X118922438Y-25261904D02*
X118970057Y-25214285D01*
X118970057Y-25214285D02*
X119065295Y-25166666D01*
X119065295Y-25166666D02*
X119208152Y-25166666D01*
X119208152Y-25166666D02*
X119303390Y-25214285D01*
X119303390Y-25214285D02*
X119351009Y-25261904D01*
X119351009Y-25261904D02*
X119398628Y-25357142D01*
X119398628Y-25357142D02*
X119398628Y-25738094D01*
X118874819Y-24833332D02*
X118874819Y-24166666D01*
X118874819Y-24166666D02*
X119874819Y-24595237D01*
X26839942Y-23583819D02*
X26506609Y-23107628D01*
X26268514Y-23583819D02*
X26268514Y-22583819D01*
X26268514Y-22583819D02*
X26649466Y-22583819D01*
X26649466Y-22583819D02*
X26744704Y-22631438D01*
X26744704Y-22631438D02*
X26792323Y-22679057D01*
X26792323Y-22679057D02*
X26839942Y-22774295D01*
X26839942Y-22774295D02*
X26839942Y-22917152D01*
X26839942Y-22917152D02*
X26792323Y-23012390D01*
X26792323Y-23012390D02*
X26744704Y-23060009D01*
X26744704Y-23060009D02*
X26649466Y-23107628D01*
X26649466Y-23107628D02*
X26268514Y-23107628D01*
X27173276Y-22583819D02*
X27792323Y-22583819D01*
X27792323Y-22583819D02*
X27458990Y-22964771D01*
X27458990Y-22964771D02*
X27601847Y-22964771D01*
X27601847Y-22964771D02*
X27697085Y-23012390D01*
X27697085Y-23012390D02*
X27744704Y-23060009D01*
X27744704Y-23060009D02*
X27792323Y-23155247D01*
X27792323Y-23155247D02*
X27792323Y-23393342D01*
X27792323Y-23393342D02*
X27744704Y-23488580D01*
X27744704Y-23488580D02*
X27697085Y-23536200D01*
X27697085Y-23536200D02*
X27601847Y-23583819D01*
X27601847Y-23583819D02*
X27316133Y-23583819D01*
X27316133Y-23583819D02*
X27220895Y-23536200D01*
X27220895Y-23536200D02*
X27173276Y-23488580D01*
X28744704Y-23583819D02*
X28173276Y-23583819D01*
X28458990Y-23583819D02*
X28458990Y-22583819D01*
X28458990Y-22583819D02*
X28363752Y-22726676D01*
X28363752Y-22726676D02*
X28268514Y-22821914D01*
X28268514Y-22821914D02*
X28173276Y-22869533D01*
X49692495Y-22915819D02*
X49692495Y-23725342D01*
X49692495Y-23725342D02*
X49740114Y-23820580D01*
X49740114Y-23820580D02*
X49787733Y-23868200D01*
X49787733Y-23868200D02*
X49882971Y-23915819D01*
X49882971Y-23915819D02*
X50073447Y-23915819D01*
X50073447Y-23915819D02*
X50168685Y-23868200D01*
X50168685Y-23868200D02*
X50216304Y-23820580D01*
X50216304Y-23820580D02*
X50263923Y-23725342D01*
X50263923Y-23725342D02*
X50263923Y-22915819D01*
X51263923Y-23915819D02*
X50692495Y-23915819D01*
X50978209Y-23915819D02*
X50978209Y-22915819D01*
X50978209Y-22915819D02*
X50882971Y-23058676D01*
X50882971Y-23058676D02*
X50787733Y-23153914D01*
X50787733Y-23153914D02*
X50692495Y-23201533D01*
X24391666Y-60064819D02*
X24391666Y-60779104D01*
X24391666Y-60779104D02*
X24344047Y-60921961D01*
X24344047Y-60921961D02*
X24248809Y-61017200D01*
X24248809Y-61017200D02*
X24105952Y-61064819D01*
X24105952Y-61064819D02*
X24010714Y-61064819D01*
X25296428Y-60064819D02*
X25105952Y-60064819D01*
X25105952Y-60064819D02*
X25010714Y-60112438D01*
X25010714Y-60112438D02*
X24963095Y-60160057D01*
X24963095Y-60160057D02*
X24867857Y-60302914D01*
X24867857Y-60302914D02*
X24820238Y-60493390D01*
X24820238Y-60493390D02*
X24820238Y-60874342D01*
X24820238Y-60874342D02*
X24867857Y-60969580D01*
X24867857Y-60969580D02*
X24915476Y-61017200D01*
X24915476Y-61017200D02*
X25010714Y-61064819D01*
X25010714Y-61064819D02*
X25201190Y-61064819D01*
X25201190Y-61064819D02*
X25296428Y-61017200D01*
X25296428Y-61017200D02*
X25344047Y-60969580D01*
X25344047Y-60969580D02*
X25391666Y-60874342D01*
X25391666Y-60874342D02*
X25391666Y-60636247D01*
X25391666Y-60636247D02*
X25344047Y-60541009D01*
X25344047Y-60541009D02*
X25296428Y-60493390D01*
X25296428Y-60493390D02*
X25201190Y-60445771D01*
X25201190Y-60445771D02*
X25010714Y-60445771D01*
X25010714Y-60445771D02*
X24915476Y-60493390D01*
X24915476Y-60493390D02*
X24867857Y-60541009D01*
X24867857Y-60541009D02*
X24820238Y-60636247D01*
X102924819Y-70738094D02*
X101924819Y-70738094D01*
X101924819Y-70738094D02*
X101924819Y-70499999D01*
X101924819Y-70499999D02*
X101972438Y-70357142D01*
X101972438Y-70357142D02*
X102067676Y-70261904D01*
X102067676Y-70261904D02*
X102162914Y-70214285D01*
X102162914Y-70214285D02*
X102353390Y-70166666D01*
X102353390Y-70166666D02*
X102496247Y-70166666D01*
X102496247Y-70166666D02*
X102686723Y-70214285D01*
X102686723Y-70214285D02*
X102781961Y-70261904D01*
X102781961Y-70261904D02*
X102877200Y-70357142D01*
X102877200Y-70357142D02*
X102924819Y-70499999D01*
X102924819Y-70499999D02*
X102924819Y-70738094D01*
X101924819Y-69261904D02*
X101924819Y-69738094D01*
X101924819Y-69738094D02*
X102401009Y-69785713D01*
X102401009Y-69785713D02*
X102353390Y-69738094D01*
X102353390Y-69738094D02*
X102305771Y-69642856D01*
X102305771Y-69642856D02*
X102305771Y-69404761D01*
X102305771Y-69404761D02*
X102353390Y-69309523D01*
X102353390Y-69309523D02*
X102401009Y-69261904D01*
X102401009Y-69261904D02*
X102496247Y-69214285D01*
X102496247Y-69214285D02*
X102734342Y-69214285D01*
X102734342Y-69214285D02*
X102829580Y-69261904D01*
X102829580Y-69261904D02*
X102877200Y-69309523D01*
X102877200Y-69309523D02*
X102924819Y-69404761D01*
X102924819Y-69404761D02*
X102924819Y-69642856D01*
X102924819Y-69642856D02*
X102877200Y-69738094D01*
X102877200Y-69738094D02*
X102829580Y-69785713D01*
X102554819Y-65181904D02*
X101554819Y-65181904D01*
X102554819Y-64610476D02*
X101983390Y-65039047D01*
X101554819Y-64610476D02*
X102126247Y-65181904D01*
X113549819Y-41567857D02*
X113073628Y-41901190D01*
X113549819Y-42139285D02*
X112549819Y-42139285D01*
X112549819Y-42139285D02*
X112549819Y-41758333D01*
X112549819Y-41758333D02*
X112597438Y-41663095D01*
X112597438Y-41663095D02*
X112645057Y-41615476D01*
X112645057Y-41615476D02*
X112740295Y-41567857D01*
X112740295Y-41567857D02*
X112883152Y-41567857D01*
X112883152Y-41567857D02*
X112978390Y-41615476D01*
X112978390Y-41615476D02*
X113026009Y-41663095D01*
X113026009Y-41663095D02*
X113073628Y-41758333D01*
X113073628Y-41758333D02*
X113073628Y-42139285D01*
X113549819Y-40615476D02*
X113549819Y-41186904D01*
X113549819Y-40901190D02*
X112549819Y-40901190D01*
X112549819Y-40901190D02*
X112692676Y-40996428D01*
X112692676Y-40996428D02*
X112787914Y-41091666D01*
X112787914Y-41091666D02*
X112835533Y-41186904D01*
X113549819Y-39663095D02*
X113549819Y-40234523D01*
X113549819Y-39948809D02*
X112549819Y-39948809D01*
X112549819Y-39948809D02*
X112692676Y-40044047D01*
X112692676Y-40044047D02*
X112787914Y-40139285D01*
X112787914Y-40139285D02*
X112835533Y-40234523D01*
X95717142Y-24134819D02*
X95383809Y-23658628D01*
X95145714Y-24134819D02*
X95145714Y-23134819D01*
X95145714Y-23134819D02*
X95526666Y-23134819D01*
X95526666Y-23134819D02*
X95621904Y-23182438D01*
X95621904Y-23182438D02*
X95669523Y-23230057D01*
X95669523Y-23230057D02*
X95717142Y-23325295D01*
X95717142Y-23325295D02*
X95717142Y-23468152D01*
X95717142Y-23468152D02*
X95669523Y-23563390D01*
X95669523Y-23563390D02*
X95621904Y-23611009D01*
X95621904Y-23611009D02*
X95526666Y-23658628D01*
X95526666Y-23658628D02*
X95145714Y-23658628D01*
X96050476Y-23134819D02*
X96669523Y-23134819D01*
X96669523Y-23134819D02*
X96336190Y-23515771D01*
X96336190Y-23515771D02*
X96479047Y-23515771D01*
X96479047Y-23515771D02*
X96574285Y-23563390D01*
X96574285Y-23563390D02*
X96621904Y-23611009D01*
X96621904Y-23611009D02*
X96669523Y-23706247D01*
X96669523Y-23706247D02*
X96669523Y-23944342D01*
X96669523Y-23944342D02*
X96621904Y-24039580D01*
X96621904Y-24039580D02*
X96574285Y-24087200D01*
X96574285Y-24087200D02*
X96479047Y-24134819D01*
X96479047Y-24134819D02*
X96193333Y-24134819D01*
X96193333Y-24134819D02*
X96098095Y-24087200D01*
X96098095Y-24087200D02*
X96050476Y-24039580D01*
X97574285Y-23134819D02*
X97098095Y-23134819D01*
X97098095Y-23134819D02*
X97050476Y-23611009D01*
X97050476Y-23611009D02*
X97098095Y-23563390D01*
X97098095Y-23563390D02*
X97193333Y-23515771D01*
X97193333Y-23515771D02*
X97431428Y-23515771D01*
X97431428Y-23515771D02*
X97526666Y-23563390D01*
X97526666Y-23563390D02*
X97574285Y-23611009D01*
X97574285Y-23611009D02*
X97621904Y-23706247D01*
X97621904Y-23706247D02*
X97621904Y-23944342D01*
X97621904Y-23944342D02*
X97574285Y-24039580D01*
X97574285Y-24039580D02*
X97526666Y-24087200D01*
X97526666Y-24087200D02*
X97431428Y-24134819D01*
X97431428Y-24134819D02*
X97193333Y-24134819D01*
X97193333Y-24134819D02*
X97098095Y-24087200D01*
X97098095Y-24087200D02*
X97050476Y-24039580D01*
X37279342Y-38738219D02*
X36946009Y-38262028D01*
X36707914Y-38738219D02*
X36707914Y-37738219D01*
X36707914Y-37738219D02*
X37088866Y-37738219D01*
X37088866Y-37738219D02*
X37184104Y-37785838D01*
X37184104Y-37785838D02*
X37231723Y-37833457D01*
X37231723Y-37833457D02*
X37279342Y-37928695D01*
X37279342Y-37928695D02*
X37279342Y-38071552D01*
X37279342Y-38071552D02*
X37231723Y-38166790D01*
X37231723Y-38166790D02*
X37184104Y-38214409D01*
X37184104Y-38214409D02*
X37088866Y-38262028D01*
X37088866Y-38262028D02*
X36707914Y-38262028D01*
X37612676Y-37738219D02*
X38231723Y-37738219D01*
X38231723Y-37738219D02*
X37898390Y-38119171D01*
X37898390Y-38119171D02*
X38041247Y-38119171D01*
X38041247Y-38119171D02*
X38136485Y-38166790D01*
X38136485Y-38166790D02*
X38184104Y-38214409D01*
X38184104Y-38214409D02*
X38231723Y-38309647D01*
X38231723Y-38309647D02*
X38231723Y-38547742D01*
X38231723Y-38547742D02*
X38184104Y-38642980D01*
X38184104Y-38642980D02*
X38136485Y-38690600D01*
X38136485Y-38690600D02*
X38041247Y-38738219D01*
X38041247Y-38738219D02*
X37755533Y-38738219D01*
X37755533Y-38738219D02*
X37660295Y-38690600D01*
X37660295Y-38690600D02*
X37612676Y-38642980D01*
X38850771Y-37738219D02*
X38946009Y-37738219D01*
X38946009Y-37738219D02*
X39041247Y-37785838D01*
X39041247Y-37785838D02*
X39088866Y-37833457D01*
X39088866Y-37833457D02*
X39136485Y-37928695D01*
X39136485Y-37928695D02*
X39184104Y-38119171D01*
X39184104Y-38119171D02*
X39184104Y-38357266D01*
X39184104Y-38357266D02*
X39136485Y-38547742D01*
X39136485Y-38547742D02*
X39088866Y-38642980D01*
X39088866Y-38642980D02*
X39041247Y-38690600D01*
X39041247Y-38690600D02*
X38946009Y-38738219D01*
X38946009Y-38738219D02*
X38850771Y-38738219D01*
X38850771Y-38738219D02*
X38755533Y-38690600D01*
X38755533Y-38690600D02*
X38707914Y-38642980D01*
X38707914Y-38642980D02*
X38660295Y-38547742D01*
X38660295Y-38547742D02*
X38612676Y-38357266D01*
X38612676Y-38357266D02*
X38612676Y-38119171D01*
X38612676Y-38119171D02*
X38660295Y-37928695D01*
X38660295Y-37928695D02*
X38707914Y-37833457D01*
X38707914Y-37833457D02*
X38755533Y-37785838D01*
X38755533Y-37785838D02*
X38850771Y-37738219D01*
X19024695Y-14158619D02*
X19024695Y-13158619D01*
X19024695Y-13634809D02*
X19596123Y-13634809D01*
X19596123Y-14158619D02*
X19596123Y-13158619D01*
X20596123Y-14158619D02*
X20024695Y-14158619D01*
X20310409Y-14158619D02*
X20310409Y-13158619D01*
X20310409Y-13158619D02*
X20215171Y-13301476D01*
X20215171Y-13301476D02*
X20119933Y-13396714D01*
X20119933Y-13396714D02*
X20024695Y-13444333D01*
X31082142Y-39509819D02*
X30748809Y-39033628D01*
X30510714Y-39509819D02*
X30510714Y-38509819D01*
X30510714Y-38509819D02*
X30891666Y-38509819D01*
X30891666Y-38509819D02*
X30986904Y-38557438D01*
X30986904Y-38557438D02*
X31034523Y-38605057D01*
X31034523Y-38605057D02*
X31082142Y-38700295D01*
X31082142Y-38700295D02*
X31082142Y-38843152D01*
X31082142Y-38843152D02*
X31034523Y-38938390D01*
X31034523Y-38938390D02*
X30986904Y-38986009D01*
X30986904Y-38986009D02*
X30891666Y-39033628D01*
X30891666Y-39033628D02*
X30510714Y-39033628D01*
X31415476Y-38509819D02*
X32034523Y-38509819D01*
X32034523Y-38509819D02*
X31701190Y-38890771D01*
X31701190Y-38890771D02*
X31844047Y-38890771D01*
X31844047Y-38890771D02*
X31939285Y-38938390D01*
X31939285Y-38938390D02*
X31986904Y-38986009D01*
X31986904Y-38986009D02*
X32034523Y-39081247D01*
X32034523Y-39081247D02*
X32034523Y-39319342D01*
X32034523Y-39319342D02*
X31986904Y-39414580D01*
X31986904Y-39414580D02*
X31939285Y-39462200D01*
X31939285Y-39462200D02*
X31844047Y-39509819D01*
X31844047Y-39509819D02*
X31558333Y-39509819D01*
X31558333Y-39509819D02*
X31463095Y-39462200D01*
X31463095Y-39462200D02*
X31415476Y-39414580D01*
X32367857Y-38509819D02*
X32986904Y-38509819D01*
X32986904Y-38509819D02*
X32653571Y-38890771D01*
X32653571Y-38890771D02*
X32796428Y-38890771D01*
X32796428Y-38890771D02*
X32891666Y-38938390D01*
X32891666Y-38938390D02*
X32939285Y-38986009D01*
X32939285Y-38986009D02*
X32986904Y-39081247D01*
X32986904Y-39081247D02*
X32986904Y-39319342D01*
X32986904Y-39319342D02*
X32939285Y-39414580D01*
X32939285Y-39414580D02*
X32891666Y-39462200D01*
X32891666Y-39462200D02*
X32796428Y-39509819D01*
X32796428Y-39509819D02*
X32510714Y-39509819D01*
X32510714Y-39509819D02*
X32415476Y-39462200D01*
X32415476Y-39462200D02*
X32367857Y-39414580D01*
X19177095Y-89799819D02*
X19177095Y-88799819D01*
X19177095Y-89276009D02*
X19748523Y-89276009D01*
X19748523Y-89799819D02*
X19748523Y-88799819D01*
X20177095Y-88895057D02*
X20224714Y-88847438D01*
X20224714Y-88847438D02*
X20319952Y-88799819D01*
X20319952Y-88799819D02*
X20558047Y-88799819D01*
X20558047Y-88799819D02*
X20653285Y-88847438D01*
X20653285Y-88847438D02*
X20700904Y-88895057D01*
X20700904Y-88895057D02*
X20748523Y-88990295D01*
X20748523Y-88990295D02*
X20748523Y-89085533D01*
X20748523Y-89085533D02*
X20700904Y-89228390D01*
X20700904Y-89228390D02*
X20129476Y-89799819D01*
X20129476Y-89799819D02*
X20748523Y-89799819D01*
X53534819Y-70642857D02*
X53058628Y-70976190D01*
X53534819Y-71214285D02*
X52534819Y-71214285D01*
X52534819Y-71214285D02*
X52534819Y-70833333D01*
X52534819Y-70833333D02*
X52582438Y-70738095D01*
X52582438Y-70738095D02*
X52630057Y-70690476D01*
X52630057Y-70690476D02*
X52725295Y-70642857D01*
X52725295Y-70642857D02*
X52868152Y-70642857D01*
X52868152Y-70642857D02*
X52963390Y-70690476D01*
X52963390Y-70690476D02*
X53011009Y-70738095D01*
X53011009Y-70738095D02*
X53058628Y-70833333D01*
X53058628Y-70833333D02*
X53058628Y-71214285D01*
X53534819Y-69690476D02*
X53534819Y-70261904D01*
X53534819Y-69976190D02*
X52534819Y-69976190D01*
X52534819Y-69976190D02*
X52677676Y-70071428D01*
X52677676Y-70071428D02*
X52772914Y-70166666D01*
X52772914Y-70166666D02*
X52820533Y-70261904D01*
X52534819Y-69357142D02*
X52534819Y-68690476D01*
X52534819Y-68690476D02*
X53534819Y-69119047D01*
X118583333Y-30359580D02*
X118535714Y-30407200D01*
X118535714Y-30407200D02*
X118392857Y-30454819D01*
X118392857Y-30454819D02*
X118297619Y-30454819D01*
X118297619Y-30454819D02*
X118154762Y-30407200D01*
X118154762Y-30407200D02*
X118059524Y-30311961D01*
X118059524Y-30311961D02*
X118011905Y-30216723D01*
X118011905Y-30216723D02*
X117964286Y-30026247D01*
X117964286Y-30026247D02*
X117964286Y-29883390D01*
X117964286Y-29883390D02*
X118011905Y-29692914D01*
X118011905Y-29692914D02*
X118059524Y-29597676D01*
X118059524Y-29597676D02*
X118154762Y-29502438D01*
X118154762Y-29502438D02*
X118297619Y-29454819D01*
X118297619Y-29454819D02*
X118392857Y-29454819D01*
X118392857Y-29454819D02*
X118535714Y-29502438D01*
X118535714Y-29502438D02*
X118583333Y-29550057D01*
X118964286Y-29550057D02*
X119011905Y-29502438D01*
X119011905Y-29502438D02*
X119107143Y-29454819D01*
X119107143Y-29454819D02*
X119345238Y-29454819D01*
X119345238Y-29454819D02*
X119440476Y-29502438D01*
X119440476Y-29502438D02*
X119488095Y-29550057D01*
X119488095Y-29550057D02*
X119535714Y-29645295D01*
X119535714Y-29645295D02*
X119535714Y-29740533D01*
X119535714Y-29740533D02*
X119488095Y-29883390D01*
X119488095Y-29883390D02*
X118916667Y-30454819D01*
X118916667Y-30454819D02*
X119535714Y-30454819D01*
X60044105Y-29195819D02*
X60044105Y-28195819D01*
X60044105Y-28195819D02*
X60282200Y-28195819D01*
X60282200Y-28195819D02*
X60425057Y-28243438D01*
X60425057Y-28243438D02*
X60520295Y-28338676D01*
X60520295Y-28338676D02*
X60567914Y-28433914D01*
X60567914Y-28433914D02*
X60615533Y-28624390D01*
X60615533Y-28624390D02*
X60615533Y-28767247D01*
X60615533Y-28767247D02*
X60567914Y-28957723D01*
X60567914Y-28957723D02*
X60520295Y-29052961D01*
X60520295Y-29052961D02*
X60425057Y-29148200D01*
X60425057Y-29148200D02*
X60282200Y-29195819D01*
X60282200Y-29195819D02*
X60044105Y-29195819D01*
X61567914Y-29195819D02*
X60996486Y-29195819D01*
X61282200Y-29195819D02*
X61282200Y-28195819D01*
X61282200Y-28195819D02*
X61186962Y-28338676D01*
X61186962Y-28338676D02*
X61091724Y-28433914D01*
X61091724Y-28433914D02*
X60996486Y-28481533D01*
X56710295Y-29515819D02*
X56710295Y-28515819D01*
X57281723Y-29515819D02*
X56853152Y-28944390D01*
X57281723Y-28515819D02*
X56710295Y-29087247D01*
X82166666Y-18802219D02*
X82166666Y-19516504D01*
X82166666Y-19516504D02*
X82119047Y-19659361D01*
X82119047Y-19659361D02*
X82023809Y-19754600D01*
X82023809Y-19754600D02*
X81880952Y-19802219D01*
X81880952Y-19802219D02*
X81785714Y-19802219D01*
X83071428Y-19135552D02*
X83071428Y-19802219D01*
X82833333Y-18754600D02*
X82595238Y-19468885D01*
X82595238Y-19468885D02*
X83214285Y-19468885D01*
X108783810Y-23899819D02*
X108783810Y-22899819D01*
X109831428Y-23804580D02*
X109783809Y-23852200D01*
X109783809Y-23852200D02*
X109640952Y-23899819D01*
X109640952Y-23899819D02*
X109545714Y-23899819D01*
X109545714Y-23899819D02*
X109402857Y-23852200D01*
X109402857Y-23852200D02*
X109307619Y-23756961D01*
X109307619Y-23756961D02*
X109260000Y-23661723D01*
X109260000Y-23661723D02*
X109212381Y-23471247D01*
X109212381Y-23471247D02*
X109212381Y-23328390D01*
X109212381Y-23328390D02*
X109260000Y-23137914D01*
X109260000Y-23137914D02*
X109307619Y-23042676D01*
X109307619Y-23042676D02*
X109402857Y-22947438D01*
X109402857Y-22947438D02*
X109545714Y-22899819D01*
X109545714Y-22899819D02*
X109640952Y-22899819D01*
X109640952Y-22899819D02*
X109783809Y-22947438D01*
X109783809Y-22947438D02*
X109831428Y-22995057D01*
X110783809Y-23899819D02*
X110212381Y-23899819D01*
X110498095Y-23899819D02*
X110498095Y-22899819D01*
X110498095Y-22899819D02*
X110402857Y-23042676D01*
X110402857Y-23042676D02*
X110307619Y-23137914D01*
X110307619Y-23137914D02*
X110212381Y-23185533D01*
X100977142Y-76985580D02*
X100929523Y-77033200D01*
X100929523Y-77033200D02*
X100786666Y-77080819D01*
X100786666Y-77080819D02*
X100691428Y-77080819D01*
X100691428Y-77080819D02*
X100548571Y-77033200D01*
X100548571Y-77033200D02*
X100453333Y-76937961D01*
X100453333Y-76937961D02*
X100405714Y-76842723D01*
X100405714Y-76842723D02*
X100358095Y-76652247D01*
X100358095Y-76652247D02*
X100358095Y-76509390D01*
X100358095Y-76509390D02*
X100405714Y-76318914D01*
X100405714Y-76318914D02*
X100453333Y-76223676D01*
X100453333Y-76223676D02*
X100548571Y-76128438D01*
X100548571Y-76128438D02*
X100691428Y-76080819D01*
X100691428Y-76080819D02*
X100786666Y-76080819D01*
X100786666Y-76080819D02*
X100929523Y-76128438D01*
X100929523Y-76128438D02*
X100977142Y-76176057D01*
X101929523Y-77080819D02*
X101358095Y-77080819D01*
X101643809Y-77080819D02*
X101643809Y-76080819D01*
X101643809Y-76080819D02*
X101548571Y-76223676D01*
X101548571Y-76223676D02*
X101453333Y-76318914D01*
X101453333Y-76318914D02*
X101358095Y-76366533D01*
X102881904Y-77080819D02*
X102310476Y-77080819D01*
X102596190Y-77080819D02*
X102596190Y-76080819D01*
X102596190Y-76080819D02*
X102500952Y-76223676D01*
X102500952Y-76223676D02*
X102405714Y-76318914D01*
X102405714Y-76318914D02*
X102310476Y-76366533D01*
X125416666Y-78979819D02*
X125416666Y-79694104D01*
X125416666Y-79694104D02*
X125369047Y-79836961D01*
X125369047Y-79836961D02*
X125273809Y-79932200D01*
X125273809Y-79932200D02*
X125130952Y-79979819D01*
X125130952Y-79979819D02*
X125035714Y-79979819D01*
X126035714Y-79408390D02*
X125940476Y-79360771D01*
X125940476Y-79360771D02*
X125892857Y-79313152D01*
X125892857Y-79313152D02*
X125845238Y-79217914D01*
X125845238Y-79217914D02*
X125845238Y-79170295D01*
X125845238Y-79170295D02*
X125892857Y-79075057D01*
X125892857Y-79075057D02*
X125940476Y-79027438D01*
X125940476Y-79027438D02*
X126035714Y-78979819D01*
X126035714Y-78979819D02*
X126226190Y-78979819D01*
X126226190Y-78979819D02*
X126321428Y-79027438D01*
X126321428Y-79027438D02*
X126369047Y-79075057D01*
X126369047Y-79075057D02*
X126416666Y-79170295D01*
X126416666Y-79170295D02*
X126416666Y-79217914D01*
X126416666Y-79217914D02*
X126369047Y-79313152D01*
X126369047Y-79313152D02*
X126321428Y-79360771D01*
X126321428Y-79360771D02*
X126226190Y-79408390D01*
X126226190Y-79408390D02*
X126035714Y-79408390D01*
X126035714Y-79408390D02*
X125940476Y-79456009D01*
X125940476Y-79456009D02*
X125892857Y-79503628D01*
X125892857Y-79503628D02*
X125845238Y-79598866D01*
X125845238Y-79598866D02*
X125845238Y-79789342D01*
X125845238Y-79789342D02*
X125892857Y-79884580D01*
X125892857Y-79884580D02*
X125940476Y-79932200D01*
X125940476Y-79932200D02*
X126035714Y-79979819D01*
X126035714Y-79979819D02*
X126226190Y-79979819D01*
X126226190Y-79979819D02*
X126321428Y-79932200D01*
X126321428Y-79932200D02*
X126369047Y-79884580D01*
X126369047Y-79884580D02*
X126416666Y-79789342D01*
X126416666Y-79789342D02*
X126416666Y-79598866D01*
X126416666Y-79598866D02*
X126369047Y-79503628D01*
X126369047Y-79503628D02*
X126321428Y-79456009D01*
X126321428Y-79456009D02*
X126226190Y-79408390D01*
X133223095Y-14336419D02*
X133223095Y-13336419D01*
X133223095Y-13812609D02*
X133794523Y-13812609D01*
X133794523Y-14336419D02*
X133794523Y-13336419D01*
X134175476Y-13336419D02*
X134794523Y-13336419D01*
X134794523Y-13336419D02*
X134461190Y-13717371D01*
X134461190Y-13717371D02*
X134604047Y-13717371D01*
X134604047Y-13717371D02*
X134699285Y-13764990D01*
X134699285Y-13764990D02*
X134746904Y-13812609D01*
X134746904Y-13812609D02*
X134794523Y-13907847D01*
X134794523Y-13907847D02*
X134794523Y-14145942D01*
X134794523Y-14145942D02*
X134746904Y-14241180D01*
X134746904Y-14241180D02*
X134699285Y-14288800D01*
X134699285Y-14288800D02*
X134604047Y-14336419D01*
X134604047Y-14336419D02*
X134318333Y-14336419D01*
X134318333Y-14336419D02*
X134223095Y-14288800D01*
X134223095Y-14288800D02*
X134175476Y-14241180D01*
X125491905Y-69994819D02*
X125491905Y-68994819D01*
X125491905Y-68994819D02*
X125730000Y-68994819D01*
X125730000Y-68994819D02*
X125872857Y-69042438D01*
X125872857Y-69042438D02*
X125968095Y-69137676D01*
X125968095Y-69137676D02*
X126015714Y-69232914D01*
X126015714Y-69232914D02*
X126063333Y-69423390D01*
X126063333Y-69423390D02*
X126063333Y-69566247D01*
X126063333Y-69566247D02*
X126015714Y-69756723D01*
X126015714Y-69756723D02*
X125968095Y-69851961D01*
X125968095Y-69851961D02*
X125872857Y-69947200D01*
X125872857Y-69947200D02*
X125730000Y-69994819D01*
X125730000Y-69994819D02*
X125491905Y-69994819D01*
X126920476Y-68994819D02*
X126730000Y-68994819D01*
X126730000Y-68994819D02*
X126634762Y-69042438D01*
X126634762Y-69042438D02*
X126587143Y-69090057D01*
X126587143Y-69090057D02*
X126491905Y-69232914D01*
X126491905Y-69232914D02*
X126444286Y-69423390D01*
X126444286Y-69423390D02*
X126444286Y-69804342D01*
X126444286Y-69804342D02*
X126491905Y-69899580D01*
X126491905Y-69899580D02*
X126539524Y-69947200D01*
X126539524Y-69947200D02*
X126634762Y-69994819D01*
X126634762Y-69994819D02*
X126825238Y-69994819D01*
X126825238Y-69994819D02*
X126920476Y-69947200D01*
X126920476Y-69947200D02*
X126968095Y-69899580D01*
X126968095Y-69899580D02*
X127015714Y-69804342D01*
X127015714Y-69804342D02*
X127015714Y-69566247D01*
X127015714Y-69566247D02*
X126968095Y-69471009D01*
X126968095Y-69471009D02*
X126920476Y-69423390D01*
X126920476Y-69423390D02*
X126825238Y-69375771D01*
X126825238Y-69375771D02*
X126634762Y-69375771D01*
X126634762Y-69375771D02*
X126539524Y-69423390D01*
X126539524Y-69423390D02*
X126491905Y-69471009D01*
X126491905Y-69471009D02*
X126444286Y-69566247D01*
X78583333Y-19098980D02*
X78535714Y-19146600D01*
X78535714Y-19146600D02*
X78392857Y-19194219D01*
X78392857Y-19194219D02*
X78297619Y-19194219D01*
X78297619Y-19194219D02*
X78154762Y-19146600D01*
X78154762Y-19146600D02*
X78059524Y-19051361D01*
X78059524Y-19051361D02*
X78011905Y-18956123D01*
X78011905Y-18956123D02*
X77964286Y-18765647D01*
X77964286Y-18765647D02*
X77964286Y-18622790D01*
X77964286Y-18622790D02*
X78011905Y-18432314D01*
X78011905Y-18432314D02*
X78059524Y-18337076D01*
X78059524Y-18337076D02*
X78154762Y-18241838D01*
X78154762Y-18241838D02*
X78297619Y-18194219D01*
X78297619Y-18194219D02*
X78392857Y-18194219D01*
X78392857Y-18194219D02*
X78535714Y-18241838D01*
X78535714Y-18241838D02*
X78583333Y-18289457D01*
X79535714Y-19194219D02*
X78964286Y-19194219D01*
X79250000Y-19194219D02*
X79250000Y-18194219D01*
X79250000Y-18194219D02*
X79154762Y-18337076D01*
X79154762Y-18337076D02*
X79059524Y-18432314D01*
X79059524Y-18432314D02*
X78964286Y-18479933D01*
X55002133Y-39916019D02*
X54668800Y-39439828D01*
X54430705Y-39916019D02*
X54430705Y-38916019D01*
X54430705Y-38916019D02*
X54811657Y-38916019D01*
X54811657Y-38916019D02*
X54906895Y-38963638D01*
X54906895Y-38963638D02*
X54954514Y-39011257D01*
X54954514Y-39011257D02*
X55002133Y-39106495D01*
X55002133Y-39106495D02*
X55002133Y-39249352D01*
X55002133Y-39249352D02*
X54954514Y-39344590D01*
X54954514Y-39344590D02*
X54906895Y-39392209D01*
X54906895Y-39392209D02*
X54811657Y-39439828D01*
X54811657Y-39439828D02*
X54430705Y-39439828D01*
X55383086Y-39011257D02*
X55430705Y-38963638D01*
X55430705Y-38963638D02*
X55525943Y-38916019D01*
X55525943Y-38916019D02*
X55764038Y-38916019D01*
X55764038Y-38916019D02*
X55859276Y-38963638D01*
X55859276Y-38963638D02*
X55906895Y-39011257D01*
X55906895Y-39011257D02*
X55954514Y-39106495D01*
X55954514Y-39106495D02*
X55954514Y-39201733D01*
X55954514Y-39201733D02*
X55906895Y-39344590D01*
X55906895Y-39344590D02*
X55335467Y-39916019D01*
X55335467Y-39916019D02*
X55954514Y-39916019D01*
X69634019Y-35567857D02*
X69157828Y-35901190D01*
X69634019Y-36139285D02*
X68634019Y-36139285D01*
X68634019Y-36139285D02*
X68634019Y-35758333D01*
X68634019Y-35758333D02*
X68681638Y-35663095D01*
X68681638Y-35663095D02*
X68729257Y-35615476D01*
X68729257Y-35615476D02*
X68824495Y-35567857D01*
X68824495Y-35567857D02*
X68967352Y-35567857D01*
X68967352Y-35567857D02*
X69062590Y-35615476D01*
X69062590Y-35615476D02*
X69110209Y-35663095D01*
X69110209Y-35663095D02*
X69157828Y-35758333D01*
X69157828Y-35758333D02*
X69157828Y-36139285D01*
X68729257Y-35186904D02*
X68681638Y-35139285D01*
X68681638Y-35139285D02*
X68634019Y-35044047D01*
X68634019Y-35044047D02*
X68634019Y-34805952D01*
X68634019Y-34805952D02*
X68681638Y-34710714D01*
X68681638Y-34710714D02*
X68729257Y-34663095D01*
X68729257Y-34663095D02*
X68824495Y-34615476D01*
X68824495Y-34615476D02*
X68919733Y-34615476D01*
X68919733Y-34615476D02*
X69062590Y-34663095D01*
X69062590Y-34663095D02*
X69634019Y-35234523D01*
X69634019Y-35234523D02*
X69634019Y-34615476D01*
X69062590Y-34044047D02*
X69014971Y-34139285D01*
X69014971Y-34139285D02*
X68967352Y-34186904D01*
X68967352Y-34186904D02*
X68872114Y-34234523D01*
X68872114Y-34234523D02*
X68824495Y-34234523D01*
X68824495Y-34234523D02*
X68729257Y-34186904D01*
X68729257Y-34186904D02*
X68681638Y-34139285D01*
X68681638Y-34139285D02*
X68634019Y-34044047D01*
X68634019Y-34044047D02*
X68634019Y-33853571D01*
X68634019Y-33853571D02*
X68681638Y-33758333D01*
X68681638Y-33758333D02*
X68729257Y-33710714D01*
X68729257Y-33710714D02*
X68824495Y-33663095D01*
X68824495Y-33663095D02*
X68872114Y-33663095D01*
X68872114Y-33663095D02*
X68967352Y-33710714D01*
X68967352Y-33710714D02*
X69014971Y-33758333D01*
X69014971Y-33758333D02*
X69062590Y-33853571D01*
X69062590Y-33853571D02*
X69062590Y-34044047D01*
X69062590Y-34044047D02*
X69110209Y-34139285D01*
X69110209Y-34139285D02*
X69157828Y-34186904D01*
X69157828Y-34186904D02*
X69253066Y-34234523D01*
X69253066Y-34234523D02*
X69443542Y-34234523D01*
X69443542Y-34234523D02*
X69538780Y-34186904D01*
X69538780Y-34186904D02*
X69586400Y-34139285D01*
X69586400Y-34139285D02*
X69634019Y-34044047D01*
X69634019Y-34044047D02*
X69634019Y-33853571D01*
X69634019Y-33853571D02*
X69586400Y-33758333D01*
X69586400Y-33758333D02*
X69538780Y-33710714D01*
X69538780Y-33710714D02*
X69443542Y-33663095D01*
X69443542Y-33663095D02*
X69253066Y-33663095D01*
X69253066Y-33663095D02*
X69157828Y-33710714D01*
X69157828Y-33710714D02*
X69110209Y-33758333D01*
X69110209Y-33758333D02*
X69062590Y-33853571D01*
X74666666Y-18853019D02*
X74666666Y-19567304D01*
X74666666Y-19567304D02*
X74619047Y-19710161D01*
X74619047Y-19710161D02*
X74523809Y-19805400D01*
X74523809Y-19805400D02*
X74380952Y-19853019D01*
X74380952Y-19853019D02*
X74285714Y-19853019D01*
X75095238Y-18948257D02*
X75142857Y-18900638D01*
X75142857Y-18900638D02*
X75238095Y-18853019D01*
X75238095Y-18853019D02*
X75476190Y-18853019D01*
X75476190Y-18853019D02*
X75571428Y-18900638D01*
X75571428Y-18900638D02*
X75619047Y-18948257D01*
X75619047Y-18948257D02*
X75666666Y-19043495D01*
X75666666Y-19043495D02*
X75666666Y-19138733D01*
X75666666Y-19138733D02*
X75619047Y-19281590D01*
X75619047Y-19281590D02*
X75047619Y-19853019D01*
X75047619Y-19853019D02*
X75666666Y-19853019D01*
X97924819Y-65738094D02*
X96924819Y-65738094D01*
X96924819Y-65738094D02*
X96924819Y-65499999D01*
X96924819Y-65499999D02*
X96972438Y-65357142D01*
X96972438Y-65357142D02*
X97067676Y-65261904D01*
X97067676Y-65261904D02*
X97162914Y-65214285D01*
X97162914Y-65214285D02*
X97353390Y-65166666D01*
X97353390Y-65166666D02*
X97496247Y-65166666D01*
X97496247Y-65166666D02*
X97686723Y-65214285D01*
X97686723Y-65214285D02*
X97781961Y-65261904D01*
X97781961Y-65261904D02*
X97877200Y-65357142D01*
X97877200Y-65357142D02*
X97924819Y-65499999D01*
X97924819Y-65499999D02*
X97924819Y-65738094D01*
X96924819Y-64833332D02*
X96924819Y-64166666D01*
X96924819Y-64166666D02*
X97924819Y-64595237D01*
X97554819Y-60181904D02*
X96554819Y-60181904D01*
X97554819Y-59610476D02*
X96983390Y-60039047D01*
X96554819Y-59610476D02*
X97126247Y-60181904D01*
X97238810Y-44759819D02*
X97238810Y-43759819D01*
X98286428Y-44664580D02*
X98238809Y-44712200D01*
X98238809Y-44712200D02*
X98095952Y-44759819D01*
X98095952Y-44759819D02*
X98000714Y-44759819D01*
X98000714Y-44759819D02*
X97857857Y-44712200D01*
X97857857Y-44712200D02*
X97762619Y-44616961D01*
X97762619Y-44616961D02*
X97715000Y-44521723D01*
X97715000Y-44521723D02*
X97667381Y-44331247D01*
X97667381Y-44331247D02*
X97667381Y-44188390D01*
X97667381Y-44188390D02*
X97715000Y-43997914D01*
X97715000Y-43997914D02*
X97762619Y-43902676D01*
X97762619Y-43902676D02*
X97857857Y-43807438D01*
X97857857Y-43807438D02*
X98000714Y-43759819D01*
X98000714Y-43759819D02*
X98095952Y-43759819D01*
X98095952Y-43759819D02*
X98238809Y-43807438D01*
X98238809Y-43807438D02*
X98286428Y-43855057D01*
X99143571Y-44093152D02*
X99143571Y-44759819D01*
X98905476Y-43712200D02*
X98667381Y-44426485D01*
X98667381Y-44426485D02*
X99286428Y-44426485D01*
X69666666Y-18980019D02*
X69666666Y-19694304D01*
X69666666Y-19694304D02*
X69619047Y-19837161D01*
X69619047Y-19837161D02*
X69523809Y-19932400D01*
X69523809Y-19932400D02*
X69380952Y-19980019D01*
X69380952Y-19980019D02*
X69285714Y-19980019D01*
X70047619Y-18980019D02*
X70666666Y-18980019D01*
X70666666Y-18980019D02*
X70333333Y-19360971D01*
X70333333Y-19360971D02*
X70476190Y-19360971D01*
X70476190Y-19360971D02*
X70571428Y-19408590D01*
X70571428Y-19408590D02*
X70619047Y-19456209D01*
X70619047Y-19456209D02*
X70666666Y-19551447D01*
X70666666Y-19551447D02*
X70666666Y-19789542D01*
X70666666Y-19789542D02*
X70619047Y-19884780D01*
X70619047Y-19884780D02*
X70571428Y-19932400D01*
X70571428Y-19932400D02*
X70476190Y-19980019D01*
X70476190Y-19980019D02*
X70190476Y-19980019D01*
X70190476Y-19980019D02*
X70095238Y-19932400D01*
X70095238Y-19932400D02*
X70047619Y-19884780D01*
X73047142Y-53534819D02*
X72713809Y-53058628D01*
X72475714Y-53534819D02*
X72475714Y-52534819D01*
X72475714Y-52534819D02*
X72856666Y-52534819D01*
X72856666Y-52534819D02*
X72951904Y-52582438D01*
X72951904Y-52582438D02*
X72999523Y-52630057D01*
X72999523Y-52630057D02*
X73047142Y-52725295D01*
X73047142Y-52725295D02*
X73047142Y-52868152D01*
X73047142Y-52868152D02*
X72999523Y-52963390D01*
X72999523Y-52963390D02*
X72951904Y-53011009D01*
X72951904Y-53011009D02*
X72856666Y-53058628D01*
X72856666Y-53058628D02*
X72475714Y-53058628D01*
X73428095Y-52630057D02*
X73475714Y-52582438D01*
X73475714Y-52582438D02*
X73570952Y-52534819D01*
X73570952Y-52534819D02*
X73809047Y-52534819D01*
X73809047Y-52534819D02*
X73904285Y-52582438D01*
X73904285Y-52582438D02*
X73951904Y-52630057D01*
X73951904Y-52630057D02*
X73999523Y-52725295D01*
X73999523Y-52725295D02*
X73999523Y-52820533D01*
X73999523Y-52820533D02*
X73951904Y-52963390D01*
X73951904Y-52963390D02*
X73380476Y-53534819D01*
X73380476Y-53534819D02*
X73999523Y-53534819D01*
X74856666Y-52868152D02*
X74856666Y-53534819D01*
X74618571Y-52487200D02*
X74380476Y-53201485D01*
X74380476Y-53201485D02*
X74999523Y-53201485D01*
X29951905Y-69424819D02*
X29951905Y-70234342D01*
X29951905Y-70234342D02*
X29999524Y-70329580D01*
X29999524Y-70329580D02*
X30047143Y-70377200D01*
X30047143Y-70377200D02*
X30142381Y-70424819D01*
X30142381Y-70424819D02*
X30332857Y-70424819D01*
X30332857Y-70424819D02*
X30428095Y-70377200D01*
X30428095Y-70377200D02*
X30475714Y-70329580D01*
X30475714Y-70329580D02*
X30523333Y-70234342D01*
X30523333Y-70234342D02*
X30523333Y-69424819D01*
X31523333Y-70424819D02*
X30951905Y-70424819D01*
X31237619Y-70424819D02*
X31237619Y-69424819D01*
X31237619Y-69424819D02*
X31142381Y-69567676D01*
X31142381Y-69567676D02*
X31047143Y-69662914D01*
X31047143Y-69662914D02*
X30951905Y-69710533D01*
X32475714Y-70424819D02*
X31904286Y-70424819D01*
X32190000Y-70424819D02*
X32190000Y-69424819D01*
X32190000Y-69424819D02*
X32094762Y-69567676D01*
X32094762Y-69567676D02*
X31999524Y-69662914D01*
X31999524Y-69662914D02*
X31904286Y-69710533D01*
X50120561Y-25292457D02*
X50025323Y-25244838D01*
X50025323Y-25244838D02*
X49930085Y-25149600D01*
X49930085Y-25149600D02*
X49787228Y-25006742D01*
X49787228Y-25006742D02*
X49691990Y-24959123D01*
X49691990Y-24959123D02*
X49596752Y-24959123D01*
X49644371Y-25197219D02*
X49549133Y-25149600D01*
X49549133Y-25149600D02*
X49453895Y-25054361D01*
X49453895Y-25054361D02*
X49406276Y-24863885D01*
X49406276Y-24863885D02*
X49406276Y-24530552D01*
X49406276Y-24530552D02*
X49453895Y-24340076D01*
X49453895Y-24340076D02*
X49549133Y-24244838D01*
X49549133Y-24244838D02*
X49644371Y-24197219D01*
X49644371Y-24197219D02*
X49834847Y-24197219D01*
X49834847Y-24197219D02*
X49930085Y-24244838D01*
X49930085Y-24244838D02*
X50025323Y-24340076D01*
X50025323Y-24340076D02*
X50072942Y-24530552D01*
X50072942Y-24530552D02*
X50072942Y-24863885D01*
X50072942Y-24863885D02*
X50025323Y-25054361D01*
X50025323Y-25054361D02*
X49930085Y-25149600D01*
X49930085Y-25149600D02*
X49834847Y-25197219D01*
X49834847Y-25197219D02*
X49644371Y-25197219D01*
X50453895Y-24292457D02*
X50501514Y-24244838D01*
X50501514Y-24244838D02*
X50596752Y-24197219D01*
X50596752Y-24197219D02*
X50834847Y-24197219D01*
X50834847Y-24197219D02*
X50930085Y-24244838D01*
X50930085Y-24244838D02*
X50977704Y-24292457D01*
X50977704Y-24292457D02*
X51025323Y-24387695D01*
X51025323Y-24387695D02*
X51025323Y-24482933D01*
X51025323Y-24482933D02*
X50977704Y-24625790D01*
X50977704Y-24625790D02*
X50406276Y-25197219D01*
X50406276Y-25197219D02*
X51025323Y-25197219D01*
X87166666Y-19004819D02*
X87166666Y-19719104D01*
X87166666Y-19719104D02*
X87119047Y-19861961D01*
X87119047Y-19861961D02*
X87023809Y-19957200D01*
X87023809Y-19957200D02*
X86880952Y-20004819D01*
X86880952Y-20004819D02*
X86785714Y-20004819D01*
X87547619Y-19004819D02*
X88214285Y-19004819D01*
X88214285Y-19004819D02*
X87785714Y-20004819D01*
X116857142Y-68534819D02*
X116523809Y-68058628D01*
X116285714Y-68534819D02*
X116285714Y-67534819D01*
X116285714Y-67534819D02*
X116666666Y-67534819D01*
X116666666Y-67534819D02*
X116761904Y-67582438D01*
X116761904Y-67582438D02*
X116809523Y-67630057D01*
X116809523Y-67630057D02*
X116857142Y-67725295D01*
X116857142Y-67725295D02*
X116857142Y-67868152D01*
X116857142Y-67868152D02*
X116809523Y-67963390D01*
X116809523Y-67963390D02*
X116761904Y-68011009D01*
X116761904Y-68011009D02*
X116666666Y-68058628D01*
X116666666Y-68058628D02*
X116285714Y-68058628D01*
X117809523Y-68534819D02*
X117238095Y-68534819D01*
X117523809Y-68534819D02*
X117523809Y-67534819D01*
X117523809Y-67534819D02*
X117428571Y-67677676D01*
X117428571Y-67677676D02*
X117333333Y-67772914D01*
X117333333Y-67772914D02*
X117238095Y-67820533D01*
X118190476Y-67630057D02*
X118238095Y-67582438D01*
X118238095Y-67582438D02*
X118333333Y-67534819D01*
X118333333Y-67534819D02*
X118571428Y-67534819D01*
X118571428Y-67534819D02*
X118666666Y-67582438D01*
X118666666Y-67582438D02*
X118714285Y-67630057D01*
X118714285Y-67630057D02*
X118761904Y-67725295D01*
X118761904Y-67725295D02*
X118761904Y-67820533D01*
X118761904Y-67820533D02*
X118714285Y-67963390D01*
X118714285Y-67963390D02*
X118142857Y-68534819D01*
X118142857Y-68534819D02*
X118761904Y-68534819D01*
X94833333Y-24874819D02*
X94500000Y-24398628D01*
X94261905Y-24874819D02*
X94261905Y-23874819D01*
X94261905Y-23874819D02*
X94642857Y-23874819D01*
X94642857Y-23874819D02*
X94738095Y-23922438D01*
X94738095Y-23922438D02*
X94785714Y-23970057D01*
X94785714Y-23970057D02*
X94833333Y-24065295D01*
X94833333Y-24065295D02*
X94833333Y-24208152D01*
X94833333Y-24208152D02*
X94785714Y-24303390D01*
X94785714Y-24303390D02*
X94738095Y-24351009D01*
X94738095Y-24351009D02*
X94642857Y-24398628D01*
X94642857Y-24398628D02*
X94261905Y-24398628D01*
X95166667Y-23874819D02*
X95785714Y-23874819D01*
X95785714Y-23874819D02*
X95452381Y-24255771D01*
X95452381Y-24255771D02*
X95595238Y-24255771D01*
X95595238Y-24255771D02*
X95690476Y-24303390D01*
X95690476Y-24303390D02*
X95738095Y-24351009D01*
X95738095Y-24351009D02*
X95785714Y-24446247D01*
X95785714Y-24446247D02*
X95785714Y-24684342D01*
X95785714Y-24684342D02*
X95738095Y-24779580D01*
X95738095Y-24779580D02*
X95690476Y-24827200D01*
X95690476Y-24827200D02*
X95595238Y-24874819D01*
X95595238Y-24874819D02*
X95309524Y-24874819D01*
X95309524Y-24874819D02*
X95214286Y-24827200D01*
X95214286Y-24827200D02*
X95166667Y-24779580D01*
X45781933Y-36163580D02*
X45734314Y-36211200D01*
X45734314Y-36211200D02*
X45591457Y-36258819D01*
X45591457Y-36258819D02*
X45496219Y-36258819D01*
X45496219Y-36258819D02*
X45353362Y-36211200D01*
X45353362Y-36211200D02*
X45258124Y-36115961D01*
X45258124Y-36115961D02*
X45210505Y-36020723D01*
X45210505Y-36020723D02*
X45162886Y-35830247D01*
X45162886Y-35830247D02*
X45162886Y-35687390D01*
X45162886Y-35687390D02*
X45210505Y-35496914D01*
X45210505Y-35496914D02*
X45258124Y-35401676D01*
X45258124Y-35401676D02*
X45353362Y-35306438D01*
X45353362Y-35306438D02*
X45496219Y-35258819D01*
X45496219Y-35258819D02*
X45591457Y-35258819D01*
X45591457Y-35258819D02*
X45734314Y-35306438D01*
X45734314Y-35306438D02*
X45781933Y-35354057D01*
X46639076Y-35258819D02*
X46448600Y-35258819D01*
X46448600Y-35258819D02*
X46353362Y-35306438D01*
X46353362Y-35306438D02*
X46305743Y-35354057D01*
X46305743Y-35354057D02*
X46210505Y-35496914D01*
X46210505Y-35496914D02*
X46162886Y-35687390D01*
X46162886Y-35687390D02*
X46162886Y-36068342D01*
X46162886Y-36068342D02*
X46210505Y-36163580D01*
X46210505Y-36163580D02*
X46258124Y-36211200D01*
X46258124Y-36211200D02*
X46353362Y-36258819D01*
X46353362Y-36258819D02*
X46543838Y-36258819D01*
X46543838Y-36258819D02*
X46639076Y-36211200D01*
X46639076Y-36211200D02*
X46686695Y-36163580D01*
X46686695Y-36163580D02*
X46734314Y-36068342D01*
X46734314Y-36068342D02*
X46734314Y-35830247D01*
X46734314Y-35830247D02*
X46686695Y-35735009D01*
X46686695Y-35735009D02*
X46639076Y-35687390D01*
X46639076Y-35687390D02*
X46543838Y-35639771D01*
X46543838Y-35639771D02*
X46353362Y-35639771D01*
X46353362Y-35639771D02*
X46258124Y-35687390D01*
X46258124Y-35687390D02*
X46210505Y-35735009D01*
X46210505Y-35735009D02*
X46162886Y-35830247D01*
X117384533Y-77939819D02*
X117051200Y-77463628D01*
X116813105Y-77939819D02*
X116813105Y-76939819D01*
X116813105Y-76939819D02*
X117194057Y-76939819D01*
X117194057Y-76939819D02*
X117289295Y-76987438D01*
X117289295Y-76987438D02*
X117336914Y-77035057D01*
X117336914Y-77035057D02*
X117384533Y-77130295D01*
X117384533Y-77130295D02*
X117384533Y-77273152D01*
X117384533Y-77273152D02*
X117336914Y-77368390D01*
X117336914Y-77368390D02*
X117289295Y-77416009D01*
X117289295Y-77416009D02*
X117194057Y-77463628D01*
X117194057Y-77463628D02*
X116813105Y-77463628D01*
X117860724Y-77939819D02*
X118051200Y-77939819D01*
X118051200Y-77939819D02*
X118146438Y-77892200D01*
X118146438Y-77892200D02*
X118194057Y-77844580D01*
X118194057Y-77844580D02*
X118289295Y-77701723D01*
X118289295Y-77701723D02*
X118336914Y-77511247D01*
X118336914Y-77511247D02*
X118336914Y-77130295D01*
X118336914Y-77130295D02*
X118289295Y-77035057D01*
X118289295Y-77035057D02*
X118241676Y-76987438D01*
X118241676Y-76987438D02*
X118146438Y-76939819D01*
X118146438Y-76939819D02*
X117955962Y-76939819D01*
X117955962Y-76939819D02*
X117860724Y-76987438D01*
X117860724Y-76987438D02*
X117813105Y-77035057D01*
X117813105Y-77035057D02*
X117765486Y-77130295D01*
X117765486Y-77130295D02*
X117765486Y-77368390D01*
X117765486Y-77368390D02*
X117813105Y-77463628D01*
X117813105Y-77463628D02*
X117860724Y-77511247D01*
X117860724Y-77511247D02*
X117955962Y-77558866D01*
X117955962Y-77558866D02*
X118146438Y-77558866D01*
X118146438Y-77558866D02*
X118241676Y-77511247D01*
X118241676Y-77511247D02*
X118289295Y-77463628D01*
X118289295Y-77463628D02*
X118336914Y-77368390D01*
X37094095Y-22992019D02*
X37094095Y-23801542D01*
X37094095Y-23801542D02*
X37141714Y-23896780D01*
X37141714Y-23896780D02*
X37189333Y-23944400D01*
X37189333Y-23944400D02*
X37284571Y-23992019D01*
X37284571Y-23992019D02*
X37475047Y-23992019D01*
X37475047Y-23992019D02*
X37570285Y-23944400D01*
X37570285Y-23944400D02*
X37617904Y-23896780D01*
X37617904Y-23896780D02*
X37665523Y-23801542D01*
X37665523Y-23801542D02*
X37665523Y-22992019D01*
X38094095Y-23087257D02*
X38141714Y-23039638D01*
X38141714Y-23039638D02*
X38236952Y-22992019D01*
X38236952Y-22992019D02*
X38475047Y-22992019D01*
X38475047Y-22992019D02*
X38570285Y-23039638D01*
X38570285Y-23039638D02*
X38617904Y-23087257D01*
X38617904Y-23087257D02*
X38665523Y-23182495D01*
X38665523Y-23182495D02*
X38665523Y-23277733D01*
X38665523Y-23277733D02*
X38617904Y-23420590D01*
X38617904Y-23420590D02*
X38046476Y-23992019D01*
X38046476Y-23992019D02*
X38665523Y-23992019D01*
X43088810Y-81634819D02*
X43088810Y-80634819D01*
X44136428Y-81539580D02*
X44088809Y-81587200D01*
X44088809Y-81587200D02*
X43945952Y-81634819D01*
X43945952Y-81634819D02*
X43850714Y-81634819D01*
X43850714Y-81634819D02*
X43707857Y-81587200D01*
X43707857Y-81587200D02*
X43612619Y-81491961D01*
X43612619Y-81491961D02*
X43565000Y-81396723D01*
X43565000Y-81396723D02*
X43517381Y-81206247D01*
X43517381Y-81206247D02*
X43517381Y-81063390D01*
X43517381Y-81063390D02*
X43565000Y-80872914D01*
X43565000Y-80872914D02*
X43612619Y-80777676D01*
X43612619Y-80777676D02*
X43707857Y-80682438D01*
X43707857Y-80682438D02*
X43850714Y-80634819D01*
X43850714Y-80634819D02*
X43945952Y-80634819D01*
X43945952Y-80634819D02*
X44088809Y-80682438D01*
X44088809Y-80682438D02*
X44136428Y-80730057D01*
X44517381Y-80730057D02*
X44565000Y-80682438D01*
X44565000Y-80682438D02*
X44660238Y-80634819D01*
X44660238Y-80634819D02*
X44898333Y-80634819D01*
X44898333Y-80634819D02*
X44993571Y-80682438D01*
X44993571Y-80682438D02*
X45041190Y-80730057D01*
X45041190Y-80730057D02*
X45088809Y-80825295D01*
X45088809Y-80825295D02*
X45088809Y-80920533D01*
X45088809Y-80920533D02*
X45041190Y-81063390D01*
X45041190Y-81063390D02*
X44469762Y-81634819D01*
X44469762Y-81634819D02*
X45088809Y-81634819D01*
X37044819Y-90333333D02*
X37759104Y-90333333D01*
X37759104Y-90333333D02*
X37901961Y-90380952D01*
X37901961Y-90380952D02*
X37997200Y-90476190D01*
X37997200Y-90476190D02*
X38044819Y-90619047D01*
X38044819Y-90619047D02*
X38044819Y-90714285D01*
X38044819Y-89333333D02*
X38044819Y-89904761D01*
X38044819Y-89619047D02*
X37044819Y-89619047D01*
X37044819Y-89619047D02*
X37187676Y-89714285D01*
X37187676Y-89714285D02*
X37282914Y-89809523D01*
X37282914Y-89809523D02*
X37330533Y-89904761D01*
X46748095Y-53324819D02*
X46748095Y-54134342D01*
X46748095Y-54134342D02*
X46795714Y-54229580D01*
X46795714Y-54229580D02*
X46843333Y-54277200D01*
X46843333Y-54277200D02*
X46938571Y-54324819D01*
X46938571Y-54324819D02*
X47129047Y-54324819D01*
X47129047Y-54324819D02*
X47224285Y-54277200D01*
X47224285Y-54277200D02*
X47271904Y-54229580D01*
X47271904Y-54229580D02*
X47319523Y-54134342D01*
X47319523Y-54134342D02*
X47319523Y-53324819D01*
X47700476Y-53324819D02*
X48367142Y-53324819D01*
X48367142Y-53324819D02*
X47938571Y-54324819D01*
X51034819Y-80642857D02*
X50558628Y-80976190D01*
X51034819Y-81214285D02*
X50034819Y-81214285D01*
X50034819Y-81214285D02*
X50034819Y-80833333D01*
X50034819Y-80833333D02*
X50082438Y-80738095D01*
X50082438Y-80738095D02*
X50130057Y-80690476D01*
X50130057Y-80690476D02*
X50225295Y-80642857D01*
X50225295Y-80642857D02*
X50368152Y-80642857D01*
X50368152Y-80642857D02*
X50463390Y-80690476D01*
X50463390Y-80690476D02*
X50511009Y-80738095D01*
X50511009Y-80738095D02*
X50558628Y-80833333D01*
X50558628Y-80833333D02*
X50558628Y-81214285D01*
X50034819Y-79738095D02*
X50034819Y-80214285D01*
X50034819Y-80214285D02*
X50511009Y-80261904D01*
X50511009Y-80261904D02*
X50463390Y-80214285D01*
X50463390Y-80214285D02*
X50415771Y-80119047D01*
X50415771Y-80119047D02*
X50415771Y-79880952D01*
X50415771Y-79880952D02*
X50463390Y-79785714D01*
X50463390Y-79785714D02*
X50511009Y-79738095D01*
X50511009Y-79738095D02*
X50606247Y-79690476D01*
X50606247Y-79690476D02*
X50844342Y-79690476D01*
X50844342Y-79690476D02*
X50939580Y-79738095D01*
X50939580Y-79738095D02*
X50987200Y-79785714D01*
X50987200Y-79785714D02*
X51034819Y-79880952D01*
X51034819Y-79880952D02*
X51034819Y-80119047D01*
X51034819Y-80119047D02*
X50987200Y-80214285D01*
X50987200Y-80214285D02*
X50939580Y-80261904D01*
X50034819Y-79071428D02*
X50034819Y-78976190D01*
X50034819Y-78976190D02*
X50082438Y-78880952D01*
X50082438Y-78880952D02*
X50130057Y-78833333D01*
X50130057Y-78833333D02*
X50225295Y-78785714D01*
X50225295Y-78785714D02*
X50415771Y-78738095D01*
X50415771Y-78738095D02*
X50653866Y-78738095D01*
X50653866Y-78738095D02*
X50844342Y-78785714D01*
X50844342Y-78785714D02*
X50939580Y-78833333D01*
X50939580Y-78833333D02*
X50987200Y-78880952D01*
X50987200Y-78880952D02*
X51034819Y-78976190D01*
X51034819Y-78976190D02*
X51034819Y-79071428D01*
X51034819Y-79071428D02*
X50987200Y-79166666D01*
X50987200Y-79166666D02*
X50939580Y-79214285D01*
X50939580Y-79214285D02*
X50844342Y-79261904D01*
X50844342Y-79261904D02*
X50653866Y-79309523D01*
X50653866Y-79309523D02*
X50415771Y-79309523D01*
X50415771Y-79309523D02*
X50225295Y-79261904D01*
X50225295Y-79261904D02*
X50130057Y-79214285D01*
X50130057Y-79214285D02*
X50082438Y-79166666D01*
X50082438Y-79166666D02*
X50034819Y-79071428D01*
X118583333Y-67859580D02*
X118535714Y-67907200D01*
X118535714Y-67907200D02*
X118392857Y-67954819D01*
X118392857Y-67954819D02*
X118297619Y-67954819D01*
X118297619Y-67954819D02*
X118154762Y-67907200D01*
X118154762Y-67907200D02*
X118059524Y-67811961D01*
X118059524Y-67811961D02*
X118011905Y-67716723D01*
X118011905Y-67716723D02*
X117964286Y-67526247D01*
X117964286Y-67526247D02*
X117964286Y-67383390D01*
X117964286Y-67383390D02*
X118011905Y-67192914D01*
X118011905Y-67192914D02*
X118059524Y-67097676D01*
X118059524Y-67097676D02*
X118154762Y-67002438D01*
X118154762Y-67002438D02*
X118297619Y-66954819D01*
X118297619Y-66954819D02*
X118392857Y-66954819D01*
X118392857Y-66954819D02*
X118535714Y-67002438D01*
X118535714Y-67002438D02*
X118583333Y-67050057D01*
X119440476Y-67288152D02*
X119440476Y-67954819D01*
X119202381Y-66907200D02*
X118964286Y-67621485D01*
X118964286Y-67621485D02*
X119583333Y-67621485D01*
X49317905Y-39705219D02*
X49317905Y-40514742D01*
X49317905Y-40514742D02*
X49365524Y-40609980D01*
X49365524Y-40609980D02*
X49413143Y-40657600D01*
X49413143Y-40657600D02*
X49508381Y-40705219D01*
X49508381Y-40705219D02*
X49698857Y-40705219D01*
X49698857Y-40705219D02*
X49794095Y-40657600D01*
X49794095Y-40657600D02*
X49841714Y-40609980D01*
X49841714Y-40609980D02*
X49889333Y-40514742D01*
X49889333Y-40514742D02*
X49889333Y-39705219D01*
X50889333Y-40705219D02*
X50317905Y-40705219D01*
X50603619Y-40705219D02*
X50603619Y-39705219D01*
X50603619Y-39705219D02*
X50508381Y-39848076D01*
X50508381Y-39848076D02*
X50413143Y-39943314D01*
X50413143Y-39943314D02*
X50317905Y-39990933D01*
X51508381Y-39705219D02*
X51603619Y-39705219D01*
X51603619Y-39705219D02*
X51698857Y-39752838D01*
X51698857Y-39752838D02*
X51746476Y-39800457D01*
X51746476Y-39800457D02*
X51794095Y-39895695D01*
X51794095Y-39895695D02*
X51841714Y-40086171D01*
X51841714Y-40086171D02*
X51841714Y-40324266D01*
X51841714Y-40324266D02*
X51794095Y-40514742D01*
X51794095Y-40514742D02*
X51746476Y-40609980D01*
X51746476Y-40609980D02*
X51698857Y-40657600D01*
X51698857Y-40657600D02*
X51603619Y-40705219D01*
X51603619Y-40705219D02*
X51508381Y-40705219D01*
X51508381Y-40705219D02*
X51413143Y-40657600D01*
X51413143Y-40657600D02*
X51365524Y-40609980D01*
X51365524Y-40609980D02*
X51317905Y-40514742D01*
X51317905Y-40514742D02*
X51270286Y-40324266D01*
X51270286Y-40324266D02*
X51270286Y-40086171D01*
X51270286Y-40086171D02*
X51317905Y-39895695D01*
X51317905Y-39895695D02*
X51365524Y-39800457D01*
X51365524Y-39800457D02*
X51413143Y-39752838D01*
X51413143Y-39752838D02*
X51508381Y-39705219D01*
X86857142Y-51034819D02*
X86523809Y-50558628D01*
X86285714Y-51034819D02*
X86285714Y-50034819D01*
X86285714Y-50034819D02*
X86666666Y-50034819D01*
X86666666Y-50034819D02*
X86761904Y-50082438D01*
X86761904Y-50082438D02*
X86809523Y-50130057D01*
X86809523Y-50130057D02*
X86857142Y-50225295D01*
X86857142Y-50225295D02*
X86857142Y-50368152D01*
X86857142Y-50368152D02*
X86809523Y-50463390D01*
X86809523Y-50463390D02*
X86761904Y-50511009D01*
X86761904Y-50511009D02*
X86666666Y-50558628D01*
X86666666Y-50558628D02*
X86285714Y-50558628D01*
X87238095Y-50130057D02*
X87285714Y-50082438D01*
X87285714Y-50082438D02*
X87380952Y-50034819D01*
X87380952Y-50034819D02*
X87619047Y-50034819D01*
X87619047Y-50034819D02*
X87714285Y-50082438D01*
X87714285Y-50082438D02*
X87761904Y-50130057D01*
X87761904Y-50130057D02*
X87809523Y-50225295D01*
X87809523Y-50225295D02*
X87809523Y-50320533D01*
X87809523Y-50320533D02*
X87761904Y-50463390D01*
X87761904Y-50463390D02*
X87190476Y-51034819D01*
X87190476Y-51034819D02*
X87809523Y-51034819D01*
X88666666Y-50034819D02*
X88476190Y-50034819D01*
X88476190Y-50034819D02*
X88380952Y-50082438D01*
X88380952Y-50082438D02*
X88333333Y-50130057D01*
X88333333Y-50130057D02*
X88238095Y-50272914D01*
X88238095Y-50272914D02*
X88190476Y-50463390D01*
X88190476Y-50463390D02*
X88190476Y-50844342D01*
X88190476Y-50844342D02*
X88238095Y-50939580D01*
X88238095Y-50939580D02*
X88285714Y-50987200D01*
X88285714Y-50987200D02*
X88380952Y-51034819D01*
X88380952Y-51034819D02*
X88571428Y-51034819D01*
X88571428Y-51034819D02*
X88666666Y-50987200D01*
X88666666Y-50987200D02*
X88714285Y-50939580D01*
X88714285Y-50939580D02*
X88761904Y-50844342D01*
X88761904Y-50844342D02*
X88761904Y-50606247D01*
X88761904Y-50606247D02*
X88714285Y-50511009D01*
X88714285Y-50511009D02*
X88666666Y-50463390D01*
X88666666Y-50463390D02*
X88571428Y-50415771D01*
X88571428Y-50415771D02*
X88380952Y-50415771D01*
X88380952Y-50415771D02*
X88285714Y-50463390D01*
X88285714Y-50463390D02*
X88238095Y-50511009D01*
X88238095Y-50511009D02*
X88190476Y-50606247D01*
X83521142Y-81338819D02*
X83187809Y-80862628D01*
X82949714Y-81338819D02*
X82949714Y-80338819D01*
X82949714Y-80338819D02*
X83330666Y-80338819D01*
X83330666Y-80338819D02*
X83425904Y-80386438D01*
X83425904Y-80386438D02*
X83473523Y-80434057D01*
X83473523Y-80434057D02*
X83521142Y-80529295D01*
X83521142Y-80529295D02*
X83521142Y-80672152D01*
X83521142Y-80672152D02*
X83473523Y-80767390D01*
X83473523Y-80767390D02*
X83425904Y-80815009D01*
X83425904Y-80815009D02*
X83330666Y-80862628D01*
X83330666Y-80862628D02*
X82949714Y-80862628D01*
X83902095Y-80434057D02*
X83949714Y-80386438D01*
X83949714Y-80386438D02*
X84044952Y-80338819D01*
X84044952Y-80338819D02*
X84283047Y-80338819D01*
X84283047Y-80338819D02*
X84378285Y-80386438D01*
X84378285Y-80386438D02*
X84425904Y-80434057D01*
X84425904Y-80434057D02*
X84473523Y-80529295D01*
X84473523Y-80529295D02*
X84473523Y-80624533D01*
X84473523Y-80624533D02*
X84425904Y-80767390D01*
X84425904Y-80767390D02*
X83854476Y-81338819D01*
X83854476Y-81338819D02*
X84473523Y-81338819D01*
X85092571Y-80338819D02*
X85187809Y-80338819D01*
X85187809Y-80338819D02*
X85283047Y-80386438D01*
X85283047Y-80386438D02*
X85330666Y-80434057D01*
X85330666Y-80434057D02*
X85378285Y-80529295D01*
X85378285Y-80529295D02*
X85425904Y-80719771D01*
X85425904Y-80719771D02*
X85425904Y-80957866D01*
X85425904Y-80957866D02*
X85378285Y-81148342D01*
X85378285Y-81148342D02*
X85330666Y-81243580D01*
X85330666Y-81243580D02*
X85283047Y-81291200D01*
X85283047Y-81291200D02*
X85187809Y-81338819D01*
X85187809Y-81338819D02*
X85092571Y-81338819D01*
X85092571Y-81338819D02*
X84997333Y-81291200D01*
X84997333Y-81291200D02*
X84949714Y-81243580D01*
X84949714Y-81243580D02*
X84902095Y-81148342D01*
X84902095Y-81148342D02*
X84854476Y-80957866D01*
X84854476Y-80957866D02*
X84854476Y-80719771D01*
X84854476Y-80719771D02*
X84902095Y-80529295D01*
X84902095Y-80529295D02*
X84949714Y-80434057D01*
X84949714Y-80434057D02*
X84997333Y-80386438D01*
X84997333Y-80386438D02*
X85092571Y-80338819D01*
X118583333Y-40359580D02*
X118535714Y-40407200D01*
X118535714Y-40407200D02*
X118392857Y-40454819D01*
X118392857Y-40454819D02*
X118297619Y-40454819D01*
X118297619Y-40454819D02*
X118154762Y-40407200D01*
X118154762Y-40407200D02*
X118059524Y-40311961D01*
X118059524Y-40311961D02*
X118011905Y-40216723D01*
X118011905Y-40216723D02*
X117964286Y-40026247D01*
X117964286Y-40026247D02*
X117964286Y-39883390D01*
X117964286Y-39883390D02*
X118011905Y-39692914D01*
X118011905Y-39692914D02*
X118059524Y-39597676D01*
X118059524Y-39597676D02*
X118154762Y-39502438D01*
X118154762Y-39502438D02*
X118297619Y-39454819D01*
X118297619Y-39454819D02*
X118392857Y-39454819D01*
X118392857Y-39454819D02*
X118535714Y-39502438D01*
X118535714Y-39502438D02*
X118583333Y-39550057D01*
X118916667Y-39454819D02*
X119535714Y-39454819D01*
X119535714Y-39454819D02*
X119202381Y-39835771D01*
X119202381Y-39835771D02*
X119345238Y-39835771D01*
X119345238Y-39835771D02*
X119440476Y-39883390D01*
X119440476Y-39883390D02*
X119488095Y-39931009D01*
X119488095Y-39931009D02*
X119535714Y-40026247D01*
X119535714Y-40026247D02*
X119535714Y-40264342D01*
X119535714Y-40264342D02*
X119488095Y-40359580D01*
X119488095Y-40359580D02*
X119440476Y-40407200D01*
X119440476Y-40407200D02*
X119345238Y-40454819D01*
X119345238Y-40454819D02*
X119059524Y-40454819D01*
X119059524Y-40454819D02*
X118964286Y-40407200D01*
X118964286Y-40407200D02*
X118916667Y-40359580D01*
X31061905Y-42559819D02*
X31061905Y-41559819D01*
X31061905Y-41559819D02*
X31300000Y-41559819D01*
X31300000Y-41559819D02*
X31442857Y-41607438D01*
X31442857Y-41607438D02*
X31538095Y-41702676D01*
X31538095Y-41702676D02*
X31585714Y-41797914D01*
X31585714Y-41797914D02*
X31633333Y-41988390D01*
X31633333Y-41988390D02*
X31633333Y-42131247D01*
X31633333Y-42131247D02*
X31585714Y-42321723D01*
X31585714Y-42321723D02*
X31538095Y-42416961D01*
X31538095Y-42416961D02*
X31442857Y-42512200D01*
X31442857Y-42512200D02*
X31300000Y-42559819D01*
X31300000Y-42559819D02*
X31061905Y-42559819D01*
X32490476Y-41893152D02*
X32490476Y-42559819D01*
X32252381Y-41512200D02*
X32014286Y-42226485D01*
X32014286Y-42226485D02*
X32633333Y-42226485D01*
X27728095Y-42879819D02*
X27728095Y-41879819D01*
X28299523Y-42879819D02*
X27870952Y-42308390D01*
X28299523Y-41879819D02*
X27728095Y-42451247D01*
X71083333Y-18459580D02*
X71035714Y-18507200D01*
X71035714Y-18507200D02*
X70892857Y-18554819D01*
X70892857Y-18554819D02*
X70797619Y-18554819D01*
X70797619Y-18554819D02*
X70654762Y-18507200D01*
X70654762Y-18507200D02*
X70559524Y-18411961D01*
X70559524Y-18411961D02*
X70511905Y-18316723D01*
X70511905Y-18316723D02*
X70464286Y-18126247D01*
X70464286Y-18126247D02*
X70464286Y-17983390D01*
X70464286Y-17983390D02*
X70511905Y-17792914D01*
X70511905Y-17792914D02*
X70559524Y-17697676D01*
X70559524Y-17697676D02*
X70654762Y-17602438D01*
X70654762Y-17602438D02*
X70797619Y-17554819D01*
X70797619Y-17554819D02*
X70892857Y-17554819D01*
X70892857Y-17554819D02*
X71035714Y-17602438D01*
X71035714Y-17602438D02*
X71083333Y-17650057D01*
X71654762Y-17983390D02*
X71559524Y-17935771D01*
X71559524Y-17935771D02*
X71511905Y-17888152D01*
X71511905Y-17888152D02*
X71464286Y-17792914D01*
X71464286Y-17792914D02*
X71464286Y-17745295D01*
X71464286Y-17745295D02*
X71511905Y-17650057D01*
X71511905Y-17650057D02*
X71559524Y-17602438D01*
X71559524Y-17602438D02*
X71654762Y-17554819D01*
X71654762Y-17554819D02*
X71845238Y-17554819D01*
X71845238Y-17554819D02*
X71940476Y-17602438D01*
X71940476Y-17602438D02*
X71988095Y-17650057D01*
X71988095Y-17650057D02*
X72035714Y-17745295D01*
X72035714Y-17745295D02*
X72035714Y-17792914D01*
X72035714Y-17792914D02*
X71988095Y-17888152D01*
X71988095Y-17888152D02*
X71940476Y-17935771D01*
X71940476Y-17935771D02*
X71845238Y-17983390D01*
X71845238Y-17983390D02*
X71654762Y-17983390D01*
X71654762Y-17983390D02*
X71559524Y-18031009D01*
X71559524Y-18031009D02*
X71511905Y-18078628D01*
X71511905Y-18078628D02*
X71464286Y-18173866D01*
X71464286Y-18173866D02*
X71464286Y-18364342D01*
X71464286Y-18364342D02*
X71511905Y-18459580D01*
X71511905Y-18459580D02*
X71559524Y-18507200D01*
X71559524Y-18507200D02*
X71654762Y-18554819D01*
X71654762Y-18554819D02*
X71845238Y-18554819D01*
X71845238Y-18554819D02*
X71940476Y-18507200D01*
X71940476Y-18507200D02*
X71988095Y-18459580D01*
X71988095Y-18459580D02*
X72035714Y-18364342D01*
X72035714Y-18364342D02*
X72035714Y-18173866D01*
X72035714Y-18173866D02*
X71988095Y-18078628D01*
X71988095Y-18078628D02*
X71940476Y-18031009D01*
X71940476Y-18031009D02*
X71845238Y-17983390D01*
X106893595Y-46634319D02*
X106893595Y-47443842D01*
X106893595Y-47443842D02*
X106941214Y-47539080D01*
X106941214Y-47539080D02*
X106988833Y-47586700D01*
X106988833Y-47586700D02*
X107084071Y-47634319D01*
X107084071Y-47634319D02*
X107274547Y-47634319D01*
X107274547Y-47634319D02*
X107369785Y-47586700D01*
X107369785Y-47586700D02*
X107417404Y-47539080D01*
X107417404Y-47539080D02*
X107465023Y-47443842D01*
X107465023Y-47443842D02*
X107465023Y-46634319D01*
X107845976Y-46634319D02*
X108465023Y-46634319D01*
X108465023Y-46634319D02*
X108131690Y-47015271D01*
X108131690Y-47015271D02*
X108274547Y-47015271D01*
X108274547Y-47015271D02*
X108369785Y-47062890D01*
X108369785Y-47062890D02*
X108417404Y-47110509D01*
X108417404Y-47110509D02*
X108465023Y-47205747D01*
X108465023Y-47205747D02*
X108465023Y-47443842D01*
X108465023Y-47443842D02*
X108417404Y-47539080D01*
X108417404Y-47539080D02*
X108369785Y-47586700D01*
X108369785Y-47586700D02*
X108274547Y-47634319D01*
X108274547Y-47634319D02*
X107988833Y-47634319D01*
X107988833Y-47634319D02*
X107893595Y-47586700D01*
X107893595Y-47586700D02*
X107845976Y-47539080D01*
X34404761Y-52204819D02*
X34071428Y-51728628D01*
X33833333Y-52204819D02*
X33833333Y-51204819D01*
X33833333Y-51204819D02*
X34214285Y-51204819D01*
X34214285Y-51204819D02*
X34309523Y-51252438D01*
X34309523Y-51252438D02*
X34357142Y-51300057D01*
X34357142Y-51300057D02*
X34404761Y-51395295D01*
X34404761Y-51395295D02*
X34404761Y-51538152D01*
X34404761Y-51538152D02*
X34357142Y-51633390D01*
X34357142Y-51633390D02*
X34309523Y-51681009D01*
X34309523Y-51681009D02*
X34214285Y-51728628D01*
X34214285Y-51728628D02*
X33833333Y-51728628D01*
X34690476Y-51204819D02*
X35023809Y-52204819D01*
X35023809Y-52204819D02*
X35357142Y-51204819D01*
X35595238Y-51204819D02*
X36214285Y-51204819D01*
X36214285Y-51204819D02*
X35880952Y-51585771D01*
X35880952Y-51585771D02*
X36023809Y-51585771D01*
X36023809Y-51585771D02*
X36119047Y-51633390D01*
X36119047Y-51633390D02*
X36166666Y-51681009D01*
X36166666Y-51681009D02*
X36214285Y-51776247D01*
X36214285Y-51776247D02*
X36214285Y-52014342D01*
X36214285Y-52014342D02*
X36166666Y-52109580D01*
X36166666Y-52109580D02*
X36119047Y-52157200D01*
X36119047Y-52157200D02*
X36023809Y-52204819D01*
X36023809Y-52204819D02*
X35738095Y-52204819D01*
X35738095Y-52204819D02*
X35642857Y-52157200D01*
X35642857Y-52157200D02*
X35595238Y-52109580D01*
X102374819Y-57666666D02*
X101898628Y-57999999D01*
X102374819Y-58238094D02*
X101374819Y-58238094D01*
X101374819Y-58238094D02*
X101374819Y-57857142D01*
X101374819Y-57857142D02*
X101422438Y-57761904D01*
X101422438Y-57761904D02*
X101470057Y-57714285D01*
X101470057Y-57714285D02*
X101565295Y-57666666D01*
X101565295Y-57666666D02*
X101708152Y-57666666D01*
X101708152Y-57666666D02*
X101803390Y-57714285D01*
X101803390Y-57714285D02*
X101851009Y-57761904D01*
X101851009Y-57761904D02*
X101898628Y-57857142D01*
X101898628Y-57857142D02*
X101898628Y-58238094D01*
X101374819Y-56809523D02*
X101374819Y-56999999D01*
X101374819Y-56999999D02*
X101422438Y-57095237D01*
X101422438Y-57095237D02*
X101470057Y-57142856D01*
X101470057Y-57142856D02*
X101612914Y-57238094D01*
X101612914Y-57238094D02*
X101803390Y-57285713D01*
X101803390Y-57285713D02*
X102184342Y-57285713D01*
X102184342Y-57285713D02*
X102279580Y-57238094D01*
X102279580Y-57238094D02*
X102327200Y-57190475D01*
X102327200Y-57190475D02*
X102374819Y-57095237D01*
X102374819Y-57095237D02*
X102374819Y-56904761D01*
X102374819Y-56904761D02*
X102327200Y-56809523D01*
X102327200Y-56809523D02*
X102279580Y-56761904D01*
X102279580Y-56761904D02*
X102184342Y-56714285D01*
X102184342Y-56714285D02*
X101946247Y-56714285D01*
X101946247Y-56714285D02*
X101851009Y-56761904D01*
X101851009Y-56761904D02*
X101803390Y-56809523D01*
X101803390Y-56809523D02*
X101755771Y-56904761D01*
X101755771Y-56904761D02*
X101755771Y-57095237D01*
X101755771Y-57095237D02*
X101803390Y-57190475D01*
X101803390Y-57190475D02*
X101851009Y-57238094D01*
X101851009Y-57238094D02*
X101946247Y-57285713D01*
X97374819Y-53142857D02*
X96898628Y-53476190D01*
X97374819Y-53714285D02*
X96374819Y-53714285D01*
X96374819Y-53714285D02*
X96374819Y-53333333D01*
X96374819Y-53333333D02*
X96422438Y-53238095D01*
X96422438Y-53238095D02*
X96470057Y-53190476D01*
X96470057Y-53190476D02*
X96565295Y-53142857D01*
X96565295Y-53142857D02*
X96708152Y-53142857D01*
X96708152Y-53142857D02*
X96803390Y-53190476D01*
X96803390Y-53190476D02*
X96851009Y-53238095D01*
X96851009Y-53238095D02*
X96898628Y-53333333D01*
X96898628Y-53333333D02*
X96898628Y-53714285D01*
X96470057Y-52761904D02*
X96422438Y-52714285D01*
X96422438Y-52714285D02*
X96374819Y-52619047D01*
X96374819Y-52619047D02*
X96374819Y-52380952D01*
X96374819Y-52380952D02*
X96422438Y-52285714D01*
X96422438Y-52285714D02*
X96470057Y-52238095D01*
X96470057Y-52238095D02*
X96565295Y-52190476D01*
X96565295Y-52190476D02*
X96660533Y-52190476D01*
X96660533Y-52190476D02*
X96803390Y-52238095D01*
X96803390Y-52238095D02*
X97374819Y-52809523D01*
X97374819Y-52809523D02*
X97374819Y-52190476D01*
X96374819Y-51857142D02*
X96374819Y-51190476D01*
X96374819Y-51190476D02*
X97374819Y-51619047D01*
X104833333Y-43534819D02*
X104500000Y-43058628D01*
X104261905Y-43534819D02*
X104261905Y-42534819D01*
X104261905Y-42534819D02*
X104642857Y-42534819D01*
X104642857Y-42534819D02*
X104738095Y-42582438D01*
X104738095Y-42582438D02*
X104785714Y-42630057D01*
X104785714Y-42630057D02*
X104833333Y-42725295D01*
X104833333Y-42725295D02*
X104833333Y-42868152D01*
X104833333Y-42868152D02*
X104785714Y-42963390D01*
X104785714Y-42963390D02*
X104738095Y-43011009D01*
X104738095Y-43011009D02*
X104642857Y-43058628D01*
X104642857Y-43058628D02*
X104261905Y-43058628D01*
X105738095Y-42534819D02*
X105261905Y-42534819D01*
X105261905Y-42534819D02*
X105214286Y-43011009D01*
X105214286Y-43011009D02*
X105261905Y-42963390D01*
X105261905Y-42963390D02*
X105357143Y-42915771D01*
X105357143Y-42915771D02*
X105595238Y-42915771D01*
X105595238Y-42915771D02*
X105690476Y-42963390D01*
X105690476Y-42963390D02*
X105738095Y-43011009D01*
X105738095Y-43011009D02*
X105785714Y-43106247D01*
X105785714Y-43106247D02*
X105785714Y-43344342D01*
X105785714Y-43344342D02*
X105738095Y-43439580D01*
X105738095Y-43439580D02*
X105690476Y-43487200D01*
X105690476Y-43487200D02*
X105595238Y-43534819D01*
X105595238Y-43534819D02*
X105357143Y-43534819D01*
X105357143Y-43534819D02*
X105261905Y-43487200D01*
X105261905Y-43487200D02*
X105214286Y-43439580D01*
X84701142Y-79874819D02*
X84367809Y-79398628D01*
X84129714Y-79874819D02*
X84129714Y-78874819D01*
X84129714Y-78874819D02*
X84510666Y-78874819D01*
X84510666Y-78874819D02*
X84605904Y-78922438D01*
X84605904Y-78922438D02*
X84653523Y-78970057D01*
X84653523Y-78970057D02*
X84701142Y-79065295D01*
X84701142Y-79065295D02*
X84701142Y-79208152D01*
X84701142Y-79208152D02*
X84653523Y-79303390D01*
X84653523Y-79303390D02*
X84605904Y-79351009D01*
X84605904Y-79351009D02*
X84510666Y-79398628D01*
X84510666Y-79398628D02*
X84129714Y-79398628D01*
X85082095Y-78970057D02*
X85129714Y-78922438D01*
X85129714Y-78922438D02*
X85224952Y-78874819D01*
X85224952Y-78874819D02*
X85463047Y-78874819D01*
X85463047Y-78874819D02*
X85558285Y-78922438D01*
X85558285Y-78922438D02*
X85605904Y-78970057D01*
X85605904Y-78970057D02*
X85653523Y-79065295D01*
X85653523Y-79065295D02*
X85653523Y-79160533D01*
X85653523Y-79160533D02*
X85605904Y-79303390D01*
X85605904Y-79303390D02*
X85034476Y-79874819D01*
X85034476Y-79874819D02*
X85653523Y-79874819D01*
X86605904Y-79874819D02*
X86034476Y-79874819D01*
X86320190Y-79874819D02*
X86320190Y-78874819D01*
X86320190Y-78874819D02*
X86224952Y-79017676D01*
X86224952Y-79017676D02*
X86129714Y-79112914D01*
X86129714Y-79112914D02*
X86034476Y-79160533D01*
X37609542Y-20150219D02*
X37276209Y-19674028D01*
X37038114Y-20150219D02*
X37038114Y-19150219D01*
X37038114Y-19150219D02*
X37419066Y-19150219D01*
X37419066Y-19150219D02*
X37514304Y-19197838D01*
X37514304Y-19197838D02*
X37561923Y-19245457D01*
X37561923Y-19245457D02*
X37609542Y-19340695D01*
X37609542Y-19340695D02*
X37609542Y-19483552D01*
X37609542Y-19483552D02*
X37561923Y-19578790D01*
X37561923Y-19578790D02*
X37514304Y-19626409D01*
X37514304Y-19626409D02*
X37419066Y-19674028D01*
X37419066Y-19674028D02*
X37038114Y-19674028D01*
X37990495Y-19245457D02*
X38038114Y-19197838D01*
X38038114Y-19197838D02*
X38133352Y-19150219D01*
X38133352Y-19150219D02*
X38371447Y-19150219D01*
X38371447Y-19150219D02*
X38466685Y-19197838D01*
X38466685Y-19197838D02*
X38514304Y-19245457D01*
X38514304Y-19245457D02*
X38561923Y-19340695D01*
X38561923Y-19340695D02*
X38561923Y-19435933D01*
X38561923Y-19435933D02*
X38514304Y-19578790D01*
X38514304Y-19578790D02*
X37942876Y-20150219D01*
X37942876Y-20150219D02*
X38561923Y-20150219D01*
X39038114Y-20150219D02*
X39228590Y-20150219D01*
X39228590Y-20150219D02*
X39323828Y-20102600D01*
X39323828Y-20102600D02*
X39371447Y-20054980D01*
X39371447Y-20054980D02*
X39466685Y-19912123D01*
X39466685Y-19912123D02*
X39514304Y-19721647D01*
X39514304Y-19721647D02*
X39514304Y-19340695D01*
X39514304Y-19340695D02*
X39466685Y-19245457D01*
X39466685Y-19245457D02*
X39419066Y-19197838D01*
X39419066Y-19197838D02*
X39323828Y-19150219D01*
X39323828Y-19150219D02*
X39133352Y-19150219D01*
X39133352Y-19150219D02*
X39038114Y-19197838D01*
X39038114Y-19197838D02*
X38990495Y-19245457D01*
X38990495Y-19245457D02*
X38942876Y-19340695D01*
X38942876Y-19340695D02*
X38942876Y-19578790D01*
X38942876Y-19578790D02*
X38990495Y-19674028D01*
X38990495Y-19674028D02*
X39038114Y-19721647D01*
X39038114Y-19721647D02*
X39133352Y-19769266D01*
X39133352Y-19769266D02*
X39323828Y-19769266D01*
X39323828Y-19769266D02*
X39419066Y-19721647D01*
X39419066Y-19721647D02*
X39466685Y-19674028D01*
X39466685Y-19674028D02*
X39514304Y-19578790D01*
X133959695Y-89926819D02*
X133959695Y-88926819D01*
X133959695Y-89403009D02*
X134531123Y-89403009D01*
X134531123Y-89926819D02*
X134531123Y-88926819D01*
X135435885Y-89260152D02*
X135435885Y-89926819D01*
X135197790Y-88879200D02*
X134959695Y-89593485D01*
X134959695Y-89593485D02*
X135578742Y-89593485D01*
X23600161Y-22659419D02*
X23266828Y-22183228D01*
X23028733Y-22659419D02*
X23028733Y-21659419D01*
X23028733Y-21659419D02*
X23409685Y-21659419D01*
X23409685Y-21659419D02*
X23504923Y-21707038D01*
X23504923Y-21707038D02*
X23552542Y-21754657D01*
X23552542Y-21754657D02*
X23600161Y-21849895D01*
X23600161Y-21849895D02*
X23600161Y-21992752D01*
X23600161Y-21992752D02*
X23552542Y-22087990D01*
X23552542Y-22087990D02*
X23504923Y-22135609D01*
X23504923Y-22135609D02*
X23409685Y-22183228D01*
X23409685Y-22183228D02*
X23028733Y-22183228D01*
X23885876Y-21659419D02*
X24219209Y-22659419D01*
X24219209Y-22659419D02*
X24552542Y-21659419D01*
X25362066Y-21659419D02*
X24885876Y-21659419D01*
X24885876Y-21659419D02*
X24838257Y-22135609D01*
X24838257Y-22135609D02*
X24885876Y-22087990D01*
X24885876Y-22087990D02*
X24981114Y-22040371D01*
X24981114Y-22040371D02*
X25219209Y-22040371D01*
X25219209Y-22040371D02*
X25314447Y-22087990D01*
X25314447Y-22087990D02*
X25362066Y-22135609D01*
X25362066Y-22135609D02*
X25409685Y-22230847D01*
X25409685Y-22230847D02*
X25409685Y-22468942D01*
X25409685Y-22468942D02*
X25362066Y-22564180D01*
X25362066Y-22564180D02*
X25314447Y-22611800D01*
X25314447Y-22611800D02*
X25219209Y-22659419D01*
X25219209Y-22659419D02*
X24981114Y-22659419D01*
X24981114Y-22659419D02*
X24885876Y-22611800D01*
X24885876Y-22611800D02*
X24838257Y-22564180D01*
X61857142Y-57374819D02*
X61523809Y-56898628D01*
X61285714Y-57374819D02*
X61285714Y-56374819D01*
X61285714Y-56374819D02*
X61666666Y-56374819D01*
X61666666Y-56374819D02*
X61761904Y-56422438D01*
X61761904Y-56422438D02*
X61809523Y-56470057D01*
X61809523Y-56470057D02*
X61857142Y-56565295D01*
X61857142Y-56565295D02*
X61857142Y-56708152D01*
X61857142Y-56708152D02*
X61809523Y-56803390D01*
X61809523Y-56803390D02*
X61761904Y-56851009D01*
X61761904Y-56851009D02*
X61666666Y-56898628D01*
X61666666Y-56898628D02*
X61285714Y-56898628D01*
X62238095Y-56470057D02*
X62285714Y-56422438D01*
X62285714Y-56422438D02*
X62380952Y-56374819D01*
X62380952Y-56374819D02*
X62619047Y-56374819D01*
X62619047Y-56374819D02*
X62714285Y-56422438D01*
X62714285Y-56422438D02*
X62761904Y-56470057D01*
X62761904Y-56470057D02*
X62809523Y-56565295D01*
X62809523Y-56565295D02*
X62809523Y-56660533D01*
X62809523Y-56660533D02*
X62761904Y-56803390D01*
X62761904Y-56803390D02*
X62190476Y-57374819D01*
X62190476Y-57374819D02*
X62809523Y-57374819D01*
X63142857Y-56374819D02*
X63761904Y-56374819D01*
X63761904Y-56374819D02*
X63428571Y-56755771D01*
X63428571Y-56755771D02*
X63571428Y-56755771D01*
X63571428Y-56755771D02*
X63666666Y-56803390D01*
X63666666Y-56803390D02*
X63714285Y-56851009D01*
X63714285Y-56851009D02*
X63761904Y-56946247D01*
X63761904Y-56946247D02*
X63761904Y-57184342D01*
X63761904Y-57184342D02*
X63714285Y-57279580D01*
X63714285Y-57279580D02*
X63666666Y-57327200D01*
X63666666Y-57327200D02*
X63571428Y-57374819D01*
X63571428Y-57374819D02*
X63285714Y-57374819D01*
X63285714Y-57374819D02*
X63190476Y-57327200D01*
X63190476Y-57327200D02*
X63142857Y-57279580D01*
X79084819Y-77161189D02*
X78084819Y-77161189D01*
X78989580Y-76113571D02*
X79037200Y-76161190D01*
X79037200Y-76161190D02*
X79084819Y-76304047D01*
X79084819Y-76304047D02*
X79084819Y-76399285D01*
X79084819Y-76399285D02*
X79037200Y-76542142D01*
X79037200Y-76542142D02*
X78941961Y-76637380D01*
X78941961Y-76637380D02*
X78846723Y-76684999D01*
X78846723Y-76684999D02*
X78656247Y-76732618D01*
X78656247Y-76732618D02*
X78513390Y-76732618D01*
X78513390Y-76732618D02*
X78322914Y-76684999D01*
X78322914Y-76684999D02*
X78227676Y-76637380D01*
X78227676Y-76637380D02*
X78132438Y-76542142D01*
X78132438Y-76542142D02*
X78084819Y-76399285D01*
X78084819Y-76399285D02*
X78084819Y-76304047D01*
X78084819Y-76304047D02*
X78132438Y-76161190D01*
X78132438Y-76161190D02*
X78180057Y-76113571D01*
X78084819Y-75780237D02*
X78084819Y-75161190D01*
X78084819Y-75161190D02*
X78465771Y-75494523D01*
X78465771Y-75494523D02*
X78465771Y-75351666D01*
X78465771Y-75351666D02*
X78513390Y-75256428D01*
X78513390Y-75256428D02*
X78561009Y-75208809D01*
X78561009Y-75208809D02*
X78656247Y-75161190D01*
X78656247Y-75161190D02*
X78894342Y-75161190D01*
X78894342Y-75161190D02*
X78989580Y-75208809D01*
X78989580Y-75208809D02*
X79037200Y-75256428D01*
X79037200Y-75256428D02*
X79084819Y-75351666D01*
X79084819Y-75351666D02*
X79084819Y-75637380D01*
X79084819Y-75637380D02*
X79037200Y-75732618D01*
X79037200Y-75732618D02*
X78989580Y-75780237D01*
X85607142Y-25359580D02*
X85559523Y-25407200D01*
X85559523Y-25407200D02*
X85416666Y-25454819D01*
X85416666Y-25454819D02*
X85321428Y-25454819D01*
X85321428Y-25454819D02*
X85178571Y-25407200D01*
X85178571Y-25407200D02*
X85083333Y-25311961D01*
X85083333Y-25311961D02*
X85035714Y-25216723D01*
X85035714Y-25216723D02*
X84988095Y-25026247D01*
X84988095Y-25026247D02*
X84988095Y-24883390D01*
X84988095Y-24883390D02*
X85035714Y-24692914D01*
X85035714Y-24692914D02*
X85083333Y-24597676D01*
X85083333Y-24597676D02*
X85178571Y-24502438D01*
X85178571Y-24502438D02*
X85321428Y-24454819D01*
X85321428Y-24454819D02*
X85416666Y-24454819D01*
X85416666Y-24454819D02*
X85559523Y-24502438D01*
X85559523Y-24502438D02*
X85607142Y-24550057D01*
X86559523Y-25454819D02*
X85988095Y-25454819D01*
X86273809Y-25454819D02*
X86273809Y-24454819D01*
X86273809Y-24454819D02*
X86178571Y-24597676D01*
X86178571Y-24597676D02*
X86083333Y-24692914D01*
X86083333Y-24692914D02*
X85988095Y-24740533D01*
X87178571Y-24454819D02*
X87273809Y-24454819D01*
X87273809Y-24454819D02*
X87369047Y-24502438D01*
X87369047Y-24502438D02*
X87416666Y-24550057D01*
X87416666Y-24550057D02*
X87464285Y-24645295D01*
X87464285Y-24645295D02*
X87511904Y-24835771D01*
X87511904Y-24835771D02*
X87511904Y-25073866D01*
X87511904Y-25073866D02*
X87464285Y-25264342D01*
X87464285Y-25264342D02*
X87416666Y-25359580D01*
X87416666Y-25359580D02*
X87369047Y-25407200D01*
X87369047Y-25407200D02*
X87273809Y-25454819D01*
X87273809Y-25454819D02*
X87178571Y-25454819D01*
X87178571Y-25454819D02*
X87083333Y-25407200D01*
X87083333Y-25407200D02*
X87035714Y-25359580D01*
X87035714Y-25359580D02*
X86988095Y-25264342D01*
X86988095Y-25264342D02*
X86940476Y-25073866D01*
X86940476Y-25073866D02*
X86940476Y-24835771D01*
X86940476Y-24835771D02*
X86988095Y-24645295D01*
X86988095Y-24645295D02*
X87035714Y-24550057D01*
X87035714Y-24550057D02*
X87083333Y-24502438D01*
X87083333Y-24502438D02*
X87178571Y-24454819D01*
X78704819Y-60595238D02*
X78228628Y-60928571D01*
X78704819Y-61166666D02*
X77704819Y-61166666D01*
X77704819Y-61166666D02*
X77704819Y-60785714D01*
X77704819Y-60785714D02*
X77752438Y-60690476D01*
X77752438Y-60690476D02*
X77800057Y-60642857D01*
X77800057Y-60642857D02*
X77895295Y-60595238D01*
X77895295Y-60595238D02*
X78038152Y-60595238D01*
X78038152Y-60595238D02*
X78133390Y-60642857D01*
X78133390Y-60642857D02*
X78181009Y-60690476D01*
X78181009Y-60690476D02*
X78228628Y-60785714D01*
X78228628Y-60785714D02*
X78228628Y-61166666D01*
X77704819Y-60309523D02*
X78704819Y-59976190D01*
X78704819Y-59976190D02*
X77704819Y-59642857D01*
X78038152Y-58880952D02*
X78704819Y-58880952D01*
X77657200Y-59119047D02*
X78371485Y-59357142D01*
X78371485Y-59357142D02*
X78371485Y-58738095D01*
X58534819Y-63142857D02*
X58058628Y-63476190D01*
X58534819Y-63714285D02*
X57534819Y-63714285D01*
X57534819Y-63714285D02*
X57534819Y-63333333D01*
X57534819Y-63333333D02*
X57582438Y-63238095D01*
X57582438Y-63238095D02*
X57630057Y-63190476D01*
X57630057Y-63190476D02*
X57725295Y-63142857D01*
X57725295Y-63142857D02*
X57868152Y-63142857D01*
X57868152Y-63142857D02*
X57963390Y-63190476D01*
X57963390Y-63190476D02*
X58011009Y-63238095D01*
X58011009Y-63238095D02*
X58058628Y-63333333D01*
X58058628Y-63333333D02*
X58058628Y-63714285D01*
X57630057Y-62761904D02*
X57582438Y-62714285D01*
X57582438Y-62714285D02*
X57534819Y-62619047D01*
X57534819Y-62619047D02*
X57534819Y-62380952D01*
X57534819Y-62380952D02*
X57582438Y-62285714D01*
X57582438Y-62285714D02*
X57630057Y-62238095D01*
X57630057Y-62238095D02*
X57725295Y-62190476D01*
X57725295Y-62190476D02*
X57820533Y-62190476D01*
X57820533Y-62190476D02*
X57963390Y-62238095D01*
X57963390Y-62238095D02*
X58534819Y-62809523D01*
X58534819Y-62809523D02*
X58534819Y-62190476D01*
X57630057Y-61809523D02*
X57582438Y-61761904D01*
X57582438Y-61761904D02*
X57534819Y-61666666D01*
X57534819Y-61666666D02*
X57534819Y-61428571D01*
X57534819Y-61428571D02*
X57582438Y-61333333D01*
X57582438Y-61333333D02*
X57630057Y-61285714D01*
X57630057Y-61285714D02*
X57725295Y-61238095D01*
X57725295Y-61238095D02*
X57820533Y-61238095D01*
X57820533Y-61238095D02*
X57963390Y-61285714D01*
X57963390Y-61285714D02*
X58534819Y-61857142D01*
X58534819Y-61857142D02*
X58534819Y-61238095D01*
X121034819Y-25166666D02*
X120558628Y-25499999D01*
X121034819Y-25738094D02*
X120034819Y-25738094D01*
X120034819Y-25738094D02*
X120034819Y-25357142D01*
X120034819Y-25357142D02*
X120082438Y-25261904D01*
X120082438Y-25261904D02*
X120130057Y-25214285D01*
X120130057Y-25214285D02*
X120225295Y-25166666D01*
X120225295Y-25166666D02*
X120368152Y-25166666D01*
X120368152Y-25166666D02*
X120463390Y-25214285D01*
X120463390Y-25214285D02*
X120511009Y-25261904D01*
X120511009Y-25261904D02*
X120558628Y-25357142D01*
X120558628Y-25357142D02*
X120558628Y-25738094D01*
X120463390Y-24595237D02*
X120415771Y-24690475D01*
X120415771Y-24690475D02*
X120368152Y-24738094D01*
X120368152Y-24738094D02*
X120272914Y-24785713D01*
X120272914Y-24785713D02*
X120225295Y-24785713D01*
X120225295Y-24785713D02*
X120130057Y-24738094D01*
X120130057Y-24738094D02*
X120082438Y-24690475D01*
X120082438Y-24690475D02*
X120034819Y-24595237D01*
X120034819Y-24595237D02*
X120034819Y-24404761D01*
X120034819Y-24404761D02*
X120082438Y-24309523D01*
X120082438Y-24309523D02*
X120130057Y-24261904D01*
X120130057Y-24261904D02*
X120225295Y-24214285D01*
X120225295Y-24214285D02*
X120272914Y-24214285D01*
X120272914Y-24214285D02*
X120368152Y-24261904D01*
X120368152Y-24261904D02*
X120415771Y-24309523D01*
X120415771Y-24309523D02*
X120463390Y-24404761D01*
X120463390Y-24404761D02*
X120463390Y-24595237D01*
X120463390Y-24595237D02*
X120511009Y-24690475D01*
X120511009Y-24690475D02*
X120558628Y-24738094D01*
X120558628Y-24738094D02*
X120653866Y-24785713D01*
X120653866Y-24785713D02*
X120844342Y-24785713D01*
X120844342Y-24785713D02*
X120939580Y-24738094D01*
X120939580Y-24738094D02*
X120987200Y-24690475D01*
X120987200Y-24690475D02*
X121034819Y-24595237D01*
X121034819Y-24595237D02*
X121034819Y-24404761D01*
X121034819Y-24404761D02*
X120987200Y-24309523D01*
X120987200Y-24309523D02*
X120939580Y-24261904D01*
X120939580Y-24261904D02*
X120844342Y-24214285D01*
X120844342Y-24214285D02*
X120653866Y-24214285D01*
X120653866Y-24214285D02*
X120558628Y-24261904D01*
X120558628Y-24261904D02*
X120511009Y-24309523D01*
X120511009Y-24309523D02*
X120463390Y-24404761D01*
X72063405Y-29772619D02*
X72063405Y-30582142D01*
X72063405Y-30582142D02*
X72111024Y-30677380D01*
X72111024Y-30677380D02*
X72158643Y-30725000D01*
X72158643Y-30725000D02*
X72253881Y-30772619D01*
X72253881Y-30772619D02*
X72444357Y-30772619D01*
X72444357Y-30772619D02*
X72539595Y-30725000D01*
X72539595Y-30725000D02*
X72587214Y-30677380D01*
X72587214Y-30677380D02*
X72634833Y-30582142D01*
X72634833Y-30582142D02*
X72634833Y-29772619D01*
X73539595Y-29772619D02*
X73349119Y-29772619D01*
X73349119Y-29772619D02*
X73253881Y-29820238D01*
X73253881Y-29820238D02*
X73206262Y-29867857D01*
X73206262Y-29867857D02*
X73111024Y-30010714D01*
X73111024Y-30010714D02*
X73063405Y-30201190D01*
X73063405Y-30201190D02*
X73063405Y-30582142D01*
X73063405Y-30582142D02*
X73111024Y-30677380D01*
X73111024Y-30677380D02*
X73158643Y-30725000D01*
X73158643Y-30725000D02*
X73253881Y-30772619D01*
X73253881Y-30772619D02*
X73444357Y-30772619D01*
X73444357Y-30772619D02*
X73539595Y-30725000D01*
X73539595Y-30725000D02*
X73587214Y-30677380D01*
X73587214Y-30677380D02*
X73634833Y-30582142D01*
X73634833Y-30582142D02*
X73634833Y-30344047D01*
X73634833Y-30344047D02*
X73587214Y-30248809D01*
X73587214Y-30248809D02*
X73539595Y-30201190D01*
X73539595Y-30201190D02*
X73444357Y-30153571D01*
X73444357Y-30153571D02*
X73253881Y-30153571D01*
X73253881Y-30153571D02*
X73158643Y-30201190D01*
X73158643Y-30201190D02*
X73111024Y-30248809D01*
X73111024Y-30248809D02*
X73063405Y-30344047D01*
X74253881Y-29772619D02*
X74349119Y-29772619D01*
X74349119Y-29772619D02*
X74444357Y-29820238D01*
X74444357Y-29820238D02*
X74491976Y-29867857D01*
X74491976Y-29867857D02*
X74539595Y-29963095D01*
X74539595Y-29963095D02*
X74587214Y-30153571D01*
X74587214Y-30153571D02*
X74587214Y-30391666D01*
X74587214Y-30391666D02*
X74539595Y-30582142D01*
X74539595Y-30582142D02*
X74491976Y-30677380D01*
X74491976Y-30677380D02*
X74444357Y-30725000D01*
X74444357Y-30725000D02*
X74349119Y-30772619D01*
X74349119Y-30772619D02*
X74253881Y-30772619D01*
X74253881Y-30772619D02*
X74158643Y-30725000D01*
X74158643Y-30725000D02*
X74111024Y-30677380D01*
X74111024Y-30677380D02*
X74063405Y-30582142D01*
X74063405Y-30582142D02*
X74015786Y-30391666D01*
X74015786Y-30391666D02*
X74015786Y-30153571D01*
X74015786Y-30153571D02*
X74063405Y-29963095D01*
X74063405Y-29963095D02*
X74111024Y-29867857D01*
X74111024Y-29867857D02*
X74158643Y-29820238D01*
X74158643Y-29820238D02*
X74253881Y-29772619D01*
X45229542Y-84874819D02*
X44896209Y-84398628D01*
X44658114Y-84874819D02*
X44658114Y-83874819D01*
X44658114Y-83874819D02*
X45039066Y-83874819D01*
X45039066Y-83874819D02*
X45134304Y-83922438D01*
X45134304Y-83922438D02*
X45181923Y-83970057D01*
X45181923Y-83970057D02*
X45229542Y-84065295D01*
X45229542Y-84065295D02*
X45229542Y-84208152D01*
X45229542Y-84208152D02*
X45181923Y-84303390D01*
X45181923Y-84303390D02*
X45134304Y-84351009D01*
X45134304Y-84351009D02*
X45039066Y-84398628D01*
X45039066Y-84398628D02*
X44658114Y-84398628D01*
X46181923Y-84874819D02*
X45610495Y-84874819D01*
X45896209Y-84874819D02*
X45896209Y-83874819D01*
X45896209Y-83874819D02*
X45800971Y-84017676D01*
X45800971Y-84017676D02*
X45705733Y-84112914D01*
X45705733Y-84112914D02*
X45610495Y-84160533D01*
X46658114Y-84874819D02*
X46848590Y-84874819D01*
X46848590Y-84874819D02*
X46943828Y-84827200D01*
X46943828Y-84827200D02*
X46991447Y-84779580D01*
X46991447Y-84779580D02*
X47086685Y-84636723D01*
X47086685Y-84636723D02*
X47134304Y-84446247D01*
X47134304Y-84446247D02*
X47134304Y-84065295D01*
X47134304Y-84065295D02*
X47086685Y-83970057D01*
X47086685Y-83970057D02*
X47039066Y-83922438D01*
X47039066Y-83922438D02*
X46943828Y-83874819D01*
X46943828Y-83874819D02*
X46753352Y-83874819D01*
X46753352Y-83874819D02*
X46658114Y-83922438D01*
X46658114Y-83922438D02*
X46610495Y-83970057D01*
X46610495Y-83970057D02*
X46562876Y-84065295D01*
X46562876Y-84065295D02*
X46562876Y-84303390D01*
X46562876Y-84303390D02*
X46610495Y-84398628D01*
X46610495Y-84398628D02*
X46658114Y-84446247D01*
X46658114Y-84446247D02*
X46753352Y-84493866D01*
X46753352Y-84493866D02*
X46943828Y-84493866D01*
X46943828Y-84493866D02*
X47039066Y-84446247D01*
X47039066Y-84446247D02*
X47086685Y-84398628D01*
X47086685Y-84398628D02*
X47134304Y-84303390D01*
X26474819Y-44492857D02*
X25998628Y-44826190D01*
X26474819Y-45064285D02*
X25474819Y-45064285D01*
X25474819Y-45064285D02*
X25474819Y-44683333D01*
X25474819Y-44683333D02*
X25522438Y-44588095D01*
X25522438Y-44588095D02*
X25570057Y-44540476D01*
X25570057Y-44540476D02*
X25665295Y-44492857D01*
X25665295Y-44492857D02*
X25808152Y-44492857D01*
X25808152Y-44492857D02*
X25903390Y-44540476D01*
X25903390Y-44540476D02*
X25951009Y-44588095D01*
X25951009Y-44588095D02*
X25998628Y-44683333D01*
X25998628Y-44683333D02*
X25998628Y-45064285D01*
X25474819Y-44159523D02*
X25474819Y-43540476D01*
X25474819Y-43540476D02*
X25855771Y-43873809D01*
X25855771Y-43873809D02*
X25855771Y-43730952D01*
X25855771Y-43730952D02*
X25903390Y-43635714D01*
X25903390Y-43635714D02*
X25951009Y-43588095D01*
X25951009Y-43588095D02*
X26046247Y-43540476D01*
X26046247Y-43540476D02*
X26284342Y-43540476D01*
X26284342Y-43540476D02*
X26379580Y-43588095D01*
X26379580Y-43588095D02*
X26427200Y-43635714D01*
X26427200Y-43635714D02*
X26474819Y-43730952D01*
X26474819Y-43730952D02*
X26474819Y-44016666D01*
X26474819Y-44016666D02*
X26427200Y-44111904D01*
X26427200Y-44111904D02*
X26379580Y-44159523D01*
X25570057Y-43159523D02*
X25522438Y-43111904D01*
X25522438Y-43111904D02*
X25474819Y-43016666D01*
X25474819Y-43016666D02*
X25474819Y-42778571D01*
X25474819Y-42778571D02*
X25522438Y-42683333D01*
X25522438Y-42683333D02*
X25570057Y-42635714D01*
X25570057Y-42635714D02*
X25665295Y-42588095D01*
X25665295Y-42588095D02*
X25760533Y-42588095D01*
X25760533Y-42588095D02*
X25903390Y-42635714D01*
X25903390Y-42635714D02*
X26474819Y-43207142D01*
X26474819Y-43207142D02*
X26474819Y-42588095D01*
X109233333Y-18809819D02*
X108900000Y-18333628D01*
X108661905Y-18809819D02*
X108661905Y-17809819D01*
X108661905Y-17809819D02*
X109042857Y-17809819D01*
X109042857Y-17809819D02*
X109138095Y-17857438D01*
X109138095Y-17857438D02*
X109185714Y-17905057D01*
X109185714Y-17905057D02*
X109233333Y-18000295D01*
X109233333Y-18000295D02*
X109233333Y-18143152D01*
X109233333Y-18143152D02*
X109185714Y-18238390D01*
X109185714Y-18238390D02*
X109138095Y-18286009D01*
X109138095Y-18286009D02*
X109042857Y-18333628D01*
X109042857Y-18333628D02*
X108661905Y-18333628D01*
X110090476Y-18143152D02*
X110090476Y-18809819D01*
X109852381Y-17762200D02*
X109614286Y-18476485D01*
X109614286Y-18476485D02*
X110233333Y-18476485D01*
X60539333Y-26170019D02*
X60206000Y-25693828D01*
X59967905Y-26170019D02*
X59967905Y-25170019D01*
X59967905Y-25170019D02*
X60348857Y-25170019D01*
X60348857Y-25170019D02*
X60444095Y-25217638D01*
X60444095Y-25217638D02*
X60491714Y-25265257D01*
X60491714Y-25265257D02*
X60539333Y-25360495D01*
X60539333Y-25360495D02*
X60539333Y-25503352D01*
X60539333Y-25503352D02*
X60491714Y-25598590D01*
X60491714Y-25598590D02*
X60444095Y-25646209D01*
X60444095Y-25646209D02*
X60348857Y-25693828D01*
X60348857Y-25693828D02*
X59967905Y-25693828D01*
X61491714Y-26170019D02*
X60920286Y-26170019D01*
X61206000Y-26170019D02*
X61206000Y-25170019D01*
X61206000Y-25170019D02*
X61110762Y-25312876D01*
X61110762Y-25312876D02*
X61015524Y-25408114D01*
X61015524Y-25408114D02*
X60920286Y-25455733D01*
X82374819Y-60642857D02*
X81898628Y-60976190D01*
X82374819Y-61214285D02*
X81374819Y-61214285D01*
X81374819Y-61214285D02*
X81374819Y-60833333D01*
X81374819Y-60833333D02*
X81422438Y-60738095D01*
X81422438Y-60738095D02*
X81470057Y-60690476D01*
X81470057Y-60690476D02*
X81565295Y-60642857D01*
X81565295Y-60642857D02*
X81708152Y-60642857D01*
X81708152Y-60642857D02*
X81803390Y-60690476D01*
X81803390Y-60690476D02*
X81851009Y-60738095D01*
X81851009Y-60738095D02*
X81898628Y-60833333D01*
X81898628Y-60833333D02*
X81898628Y-61214285D01*
X81470057Y-60261904D02*
X81422438Y-60214285D01*
X81422438Y-60214285D02*
X81374819Y-60119047D01*
X81374819Y-60119047D02*
X81374819Y-59880952D01*
X81374819Y-59880952D02*
X81422438Y-59785714D01*
X81422438Y-59785714D02*
X81470057Y-59738095D01*
X81470057Y-59738095D02*
X81565295Y-59690476D01*
X81565295Y-59690476D02*
X81660533Y-59690476D01*
X81660533Y-59690476D02*
X81803390Y-59738095D01*
X81803390Y-59738095D02*
X82374819Y-60309523D01*
X82374819Y-60309523D02*
X82374819Y-59690476D01*
X81374819Y-58785714D02*
X81374819Y-59261904D01*
X81374819Y-59261904D02*
X81851009Y-59309523D01*
X81851009Y-59309523D02*
X81803390Y-59261904D01*
X81803390Y-59261904D02*
X81755771Y-59166666D01*
X81755771Y-59166666D02*
X81755771Y-58928571D01*
X81755771Y-58928571D02*
X81803390Y-58833333D01*
X81803390Y-58833333D02*
X81851009Y-58785714D01*
X81851009Y-58785714D02*
X81946247Y-58738095D01*
X81946247Y-58738095D02*
X82184342Y-58738095D01*
X82184342Y-58738095D02*
X82279580Y-58785714D01*
X82279580Y-58785714D02*
X82327200Y-58833333D01*
X82327200Y-58833333D02*
X82374819Y-58928571D01*
X82374819Y-58928571D02*
X82374819Y-59166666D01*
X82374819Y-59166666D02*
X82327200Y-59261904D01*
X82327200Y-59261904D02*
X82279580Y-59309523D01*
X59891705Y-36661619D02*
X59891705Y-35661619D01*
X59891705Y-35661619D02*
X60129800Y-35661619D01*
X60129800Y-35661619D02*
X60272657Y-35709238D01*
X60272657Y-35709238D02*
X60367895Y-35804476D01*
X60367895Y-35804476D02*
X60415514Y-35899714D01*
X60415514Y-35899714D02*
X60463133Y-36090190D01*
X60463133Y-36090190D02*
X60463133Y-36233047D01*
X60463133Y-36233047D02*
X60415514Y-36423523D01*
X60415514Y-36423523D02*
X60367895Y-36518761D01*
X60367895Y-36518761D02*
X60272657Y-36614000D01*
X60272657Y-36614000D02*
X60129800Y-36661619D01*
X60129800Y-36661619D02*
X59891705Y-36661619D01*
X60844086Y-35756857D02*
X60891705Y-35709238D01*
X60891705Y-35709238D02*
X60986943Y-35661619D01*
X60986943Y-35661619D02*
X61225038Y-35661619D01*
X61225038Y-35661619D02*
X61320276Y-35709238D01*
X61320276Y-35709238D02*
X61367895Y-35756857D01*
X61367895Y-35756857D02*
X61415514Y-35852095D01*
X61415514Y-35852095D02*
X61415514Y-35947333D01*
X61415514Y-35947333D02*
X61367895Y-36090190D01*
X61367895Y-36090190D02*
X60796467Y-36661619D01*
X60796467Y-36661619D02*
X61415514Y-36661619D01*
X64177895Y-36341619D02*
X64177895Y-35341619D01*
X64749323Y-36341619D02*
X64320752Y-35770190D01*
X64749323Y-35341619D02*
X64177895Y-35913047D01*
X86083333Y-20359580D02*
X86035714Y-20407200D01*
X86035714Y-20407200D02*
X85892857Y-20454819D01*
X85892857Y-20454819D02*
X85797619Y-20454819D01*
X85797619Y-20454819D02*
X85654762Y-20407200D01*
X85654762Y-20407200D02*
X85559524Y-20311961D01*
X85559524Y-20311961D02*
X85511905Y-20216723D01*
X85511905Y-20216723D02*
X85464286Y-20026247D01*
X85464286Y-20026247D02*
X85464286Y-19883390D01*
X85464286Y-19883390D02*
X85511905Y-19692914D01*
X85511905Y-19692914D02*
X85559524Y-19597676D01*
X85559524Y-19597676D02*
X85654762Y-19502438D01*
X85654762Y-19502438D02*
X85797619Y-19454819D01*
X85797619Y-19454819D02*
X85892857Y-19454819D01*
X85892857Y-19454819D02*
X86035714Y-19502438D01*
X86035714Y-19502438D02*
X86083333Y-19550057D01*
X86559524Y-20454819D02*
X86750000Y-20454819D01*
X86750000Y-20454819D02*
X86845238Y-20407200D01*
X86845238Y-20407200D02*
X86892857Y-20359580D01*
X86892857Y-20359580D02*
X86988095Y-20216723D01*
X86988095Y-20216723D02*
X87035714Y-20026247D01*
X87035714Y-20026247D02*
X87035714Y-19645295D01*
X87035714Y-19645295D02*
X86988095Y-19550057D01*
X86988095Y-19550057D02*
X86940476Y-19502438D01*
X86940476Y-19502438D02*
X86845238Y-19454819D01*
X86845238Y-19454819D02*
X86654762Y-19454819D01*
X86654762Y-19454819D02*
X86559524Y-19502438D01*
X86559524Y-19502438D02*
X86511905Y-19550057D01*
X86511905Y-19550057D02*
X86464286Y-19645295D01*
X86464286Y-19645295D02*
X86464286Y-19883390D01*
X86464286Y-19883390D02*
X86511905Y-19978628D01*
X86511905Y-19978628D02*
X86559524Y-20026247D01*
X86559524Y-20026247D02*
X86654762Y-20073866D01*
X86654762Y-20073866D02*
X86845238Y-20073866D01*
X86845238Y-20073866D02*
X86940476Y-20026247D01*
X86940476Y-20026247D02*
X86988095Y-19978628D01*
X86988095Y-19978628D02*
X87035714Y-19883390D01*
X85508810Y-32199819D02*
X85508810Y-31199819D01*
X86556428Y-32104580D02*
X86508809Y-32152200D01*
X86508809Y-32152200D02*
X86365952Y-32199819D01*
X86365952Y-32199819D02*
X86270714Y-32199819D01*
X86270714Y-32199819D02*
X86127857Y-32152200D01*
X86127857Y-32152200D02*
X86032619Y-32056961D01*
X86032619Y-32056961D02*
X85985000Y-31961723D01*
X85985000Y-31961723D02*
X85937381Y-31771247D01*
X85937381Y-31771247D02*
X85937381Y-31628390D01*
X85937381Y-31628390D02*
X85985000Y-31437914D01*
X85985000Y-31437914D02*
X86032619Y-31342676D01*
X86032619Y-31342676D02*
X86127857Y-31247438D01*
X86127857Y-31247438D02*
X86270714Y-31199819D01*
X86270714Y-31199819D02*
X86365952Y-31199819D01*
X86365952Y-31199819D02*
X86508809Y-31247438D01*
X86508809Y-31247438D02*
X86556428Y-31295057D01*
X87461190Y-31199819D02*
X86985000Y-31199819D01*
X86985000Y-31199819D02*
X86937381Y-31676009D01*
X86937381Y-31676009D02*
X86985000Y-31628390D01*
X86985000Y-31628390D02*
X87080238Y-31580771D01*
X87080238Y-31580771D02*
X87318333Y-31580771D01*
X87318333Y-31580771D02*
X87413571Y-31628390D01*
X87413571Y-31628390D02*
X87461190Y-31676009D01*
X87461190Y-31676009D02*
X87508809Y-31771247D01*
X87508809Y-31771247D02*
X87508809Y-32009342D01*
X87508809Y-32009342D02*
X87461190Y-32104580D01*
X87461190Y-32104580D02*
X87413571Y-32152200D01*
X87413571Y-32152200D02*
X87318333Y-32199819D01*
X87318333Y-32199819D02*
X87080238Y-32199819D01*
X87080238Y-32199819D02*
X86985000Y-32152200D01*
X86985000Y-32152200D02*
X86937381Y-32104580D01*
X91904819Y-71951904D02*
X92714342Y-71951904D01*
X92714342Y-71951904D02*
X92809580Y-71904285D01*
X92809580Y-71904285D02*
X92857200Y-71856666D01*
X92857200Y-71856666D02*
X92904819Y-71761428D01*
X92904819Y-71761428D02*
X92904819Y-71570952D01*
X92904819Y-71570952D02*
X92857200Y-71475714D01*
X92857200Y-71475714D02*
X92809580Y-71428095D01*
X92809580Y-71428095D02*
X92714342Y-71380476D01*
X92714342Y-71380476D02*
X91904819Y-71380476D01*
X92333390Y-70761428D02*
X92285771Y-70856666D01*
X92285771Y-70856666D02*
X92238152Y-70904285D01*
X92238152Y-70904285D02*
X92142914Y-70951904D01*
X92142914Y-70951904D02*
X92095295Y-70951904D01*
X92095295Y-70951904D02*
X92000057Y-70904285D01*
X92000057Y-70904285D02*
X91952438Y-70856666D01*
X91952438Y-70856666D02*
X91904819Y-70761428D01*
X91904819Y-70761428D02*
X91904819Y-70570952D01*
X91904819Y-70570952D02*
X91952438Y-70475714D01*
X91952438Y-70475714D02*
X92000057Y-70428095D01*
X92000057Y-70428095D02*
X92095295Y-70380476D01*
X92095295Y-70380476D02*
X92142914Y-70380476D01*
X92142914Y-70380476D02*
X92238152Y-70428095D01*
X92238152Y-70428095D02*
X92285771Y-70475714D01*
X92285771Y-70475714D02*
X92333390Y-70570952D01*
X92333390Y-70570952D02*
X92333390Y-70761428D01*
X92333390Y-70761428D02*
X92381009Y-70856666D01*
X92381009Y-70856666D02*
X92428628Y-70904285D01*
X92428628Y-70904285D02*
X92523866Y-70951904D01*
X92523866Y-70951904D02*
X92714342Y-70951904D01*
X92714342Y-70951904D02*
X92809580Y-70904285D01*
X92809580Y-70904285D02*
X92857200Y-70856666D01*
X92857200Y-70856666D02*
X92904819Y-70761428D01*
X92904819Y-70761428D02*
X92904819Y-70570952D01*
X92904819Y-70570952D02*
X92857200Y-70475714D01*
X92857200Y-70475714D02*
X92809580Y-70428095D01*
X92809580Y-70428095D02*
X92714342Y-70380476D01*
X92714342Y-70380476D02*
X92523866Y-70380476D01*
X92523866Y-70380476D02*
X92428628Y-70428095D01*
X92428628Y-70428095D02*
X92381009Y-70475714D01*
X92381009Y-70475714D02*
X92333390Y-70570952D01*
D11*
X21942219Y-65358333D02*
X22656504Y-65358333D01*
X22656504Y-65358333D02*
X22799361Y-65405952D01*
X22799361Y-65405952D02*
X22894600Y-65501190D01*
X22894600Y-65501190D02*
X22942219Y-65644047D01*
X22942219Y-65644047D02*
X22942219Y-65739285D01*
X21942219Y-64405952D02*
X21942219Y-64882142D01*
X21942219Y-64882142D02*
X22418409Y-64929761D01*
X22418409Y-64929761D02*
X22370790Y-64882142D01*
X22370790Y-64882142D02*
X22323171Y-64786904D01*
X22323171Y-64786904D02*
X22323171Y-64548809D01*
X22323171Y-64548809D02*
X22370790Y-64453571D01*
X22370790Y-64453571D02*
X22418409Y-64405952D01*
X22418409Y-64405952D02*
X22513647Y-64358333D01*
X22513647Y-64358333D02*
X22751742Y-64358333D01*
X22751742Y-64358333D02*
X22846980Y-64405952D01*
X22846980Y-64405952D02*
X22894600Y-64453571D01*
X22894600Y-64453571D02*
X22942219Y-64548809D01*
X22942219Y-64548809D02*
X22942219Y-64786904D01*
X22942219Y-64786904D02*
X22894600Y-64882142D01*
X22894600Y-64882142D02*
X22846980Y-64929761D01*
D10*
X126469819Y-58170238D02*
X125993628Y-58503571D01*
X126469819Y-58741666D02*
X125469819Y-58741666D01*
X125469819Y-58741666D02*
X125469819Y-58360714D01*
X125469819Y-58360714D02*
X125517438Y-58265476D01*
X125517438Y-58265476D02*
X125565057Y-58217857D01*
X125565057Y-58217857D02*
X125660295Y-58170238D01*
X125660295Y-58170238D02*
X125803152Y-58170238D01*
X125803152Y-58170238D02*
X125898390Y-58217857D01*
X125898390Y-58217857D02*
X125946009Y-58265476D01*
X125946009Y-58265476D02*
X125993628Y-58360714D01*
X125993628Y-58360714D02*
X125993628Y-58741666D01*
X125469819Y-57884523D02*
X126469819Y-57551190D01*
X126469819Y-57551190D02*
X125469819Y-57217857D01*
X125565057Y-56932142D02*
X125517438Y-56884523D01*
X125517438Y-56884523D02*
X125469819Y-56789285D01*
X125469819Y-56789285D02*
X125469819Y-56551190D01*
X125469819Y-56551190D02*
X125517438Y-56455952D01*
X125517438Y-56455952D02*
X125565057Y-56408333D01*
X125565057Y-56408333D02*
X125660295Y-56360714D01*
X125660295Y-56360714D02*
X125755533Y-56360714D01*
X125755533Y-56360714D02*
X125898390Y-56408333D01*
X125898390Y-56408333D02*
X126469819Y-56979761D01*
X126469819Y-56979761D02*
X126469819Y-56360714D01*
X93084819Y-60771904D02*
X93894342Y-60771904D01*
X93894342Y-60771904D02*
X93989580Y-60724285D01*
X93989580Y-60724285D02*
X94037200Y-60676666D01*
X94037200Y-60676666D02*
X94084819Y-60581428D01*
X94084819Y-60581428D02*
X94084819Y-60390952D01*
X94084819Y-60390952D02*
X94037200Y-60295714D01*
X94037200Y-60295714D02*
X93989580Y-60248095D01*
X93989580Y-60248095D02*
X93894342Y-60200476D01*
X93894342Y-60200476D02*
X93084819Y-60200476D01*
X94084819Y-59676666D02*
X94084819Y-59486190D01*
X94084819Y-59486190D02*
X94037200Y-59390952D01*
X94037200Y-59390952D02*
X93989580Y-59343333D01*
X93989580Y-59343333D02*
X93846723Y-59248095D01*
X93846723Y-59248095D02*
X93656247Y-59200476D01*
X93656247Y-59200476D02*
X93275295Y-59200476D01*
X93275295Y-59200476D02*
X93180057Y-59248095D01*
X93180057Y-59248095D02*
X93132438Y-59295714D01*
X93132438Y-59295714D02*
X93084819Y-59390952D01*
X93084819Y-59390952D02*
X93084819Y-59581428D01*
X93084819Y-59581428D02*
X93132438Y-59676666D01*
X93132438Y-59676666D02*
X93180057Y-59724285D01*
X93180057Y-59724285D02*
X93275295Y-59771904D01*
X93275295Y-59771904D02*
X93513390Y-59771904D01*
X93513390Y-59771904D02*
X93608628Y-59724285D01*
X93608628Y-59724285D02*
X93656247Y-59676666D01*
X93656247Y-59676666D02*
X93703866Y-59581428D01*
X93703866Y-59581428D02*
X93703866Y-59390952D01*
X93703866Y-59390952D02*
X93656247Y-59295714D01*
X93656247Y-59295714D02*
X93608628Y-59248095D01*
X93608628Y-59248095D02*
X93513390Y-59200476D01*
X30966905Y-50099819D02*
X30966905Y-49099819D01*
X30966905Y-49099819D02*
X31205000Y-49099819D01*
X31205000Y-49099819D02*
X31347857Y-49147438D01*
X31347857Y-49147438D02*
X31443095Y-49242676D01*
X31443095Y-49242676D02*
X31490714Y-49337914D01*
X31490714Y-49337914D02*
X31538333Y-49528390D01*
X31538333Y-49528390D02*
X31538333Y-49671247D01*
X31538333Y-49671247D02*
X31490714Y-49861723D01*
X31490714Y-49861723D02*
X31443095Y-49956961D01*
X31443095Y-49956961D02*
X31347857Y-50052200D01*
X31347857Y-50052200D02*
X31205000Y-50099819D01*
X31205000Y-50099819D02*
X30966905Y-50099819D01*
X31871667Y-49099819D02*
X32490714Y-49099819D01*
X32490714Y-49099819D02*
X32157381Y-49480771D01*
X32157381Y-49480771D02*
X32300238Y-49480771D01*
X32300238Y-49480771D02*
X32395476Y-49528390D01*
X32395476Y-49528390D02*
X32443095Y-49576009D01*
X32443095Y-49576009D02*
X32490714Y-49671247D01*
X32490714Y-49671247D02*
X32490714Y-49909342D01*
X32490714Y-49909342D02*
X32443095Y-50004580D01*
X32443095Y-50004580D02*
X32395476Y-50052200D01*
X32395476Y-50052200D02*
X32300238Y-50099819D01*
X32300238Y-50099819D02*
X32014524Y-50099819D01*
X32014524Y-50099819D02*
X31919286Y-50052200D01*
X31919286Y-50052200D02*
X31871667Y-50004580D01*
X35253095Y-49779819D02*
X35253095Y-48779819D01*
X35824523Y-49779819D02*
X35395952Y-49208390D01*
X35824523Y-48779819D02*
X35253095Y-49351247D01*
X130254819Y-42795238D02*
X129778628Y-43128571D01*
X130254819Y-43366666D02*
X129254819Y-43366666D01*
X129254819Y-43366666D02*
X129254819Y-42985714D01*
X129254819Y-42985714D02*
X129302438Y-42890476D01*
X129302438Y-42890476D02*
X129350057Y-42842857D01*
X129350057Y-42842857D02*
X129445295Y-42795238D01*
X129445295Y-42795238D02*
X129588152Y-42795238D01*
X129588152Y-42795238D02*
X129683390Y-42842857D01*
X129683390Y-42842857D02*
X129731009Y-42890476D01*
X129731009Y-42890476D02*
X129778628Y-42985714D01*
X129778628Y-42985714D02*
X129778628Y-43366666D01*
X129254819Y-42509523D02*
X130254819Y-42176190D01*
X130254819Y-42176190D02*
X129254819Y-41842857D01*
X130254819Y-40985714D02*
X130254819Y-41557142D01*
X130254819Y-41271428D02*
X129254819Y-41271428D01*
X129254819Y-41271428D02*
X129397676Y-41366666D01*
X129397676Y-41366666D02*
X129492914Y-41461904D01*
X129492914Y-41461904D02*
X129540533Y-41557142D01*
X33691533Y-20791180D02*
X33643914Y-20838800D01*
X33643914Y-20838800D02*
X33501057Y-20886419D01*
X33501057Y-20886419D02*
X33405819Y-20886419D01*
X33405819Y-20886419D02*
X33262962Y-20838800D01*
X33262962Y-20838800D02*
X33167724Y-20743561D01*
X33167724Y-20743561D02*
X33120105Y-20648323D01*
X33120105Y-20648323D02*
X33072486Y-20457847D01*
X33072486Y-20457847D02*
X33072486Y-20314990D01*
X33072486Y-20314990D02*
X33120105Y-20124514D01*
X33120105Y-20124514D02*
X33167724Y-20029276D01*
X33167724Y-20029276D02*
X33262962Y-19934038D01*
X33262962Y-19934038D02*
X33405819Y-19886419D01*
X33405819Y-19886419D02*
X33501057Y-19886419D01*
X33501057Y-19886419D02*
X33643914Y-19934038D01*
X33643914Y-19934038D02*
X33691533Y-19981657D01*
X34024867Y-19886419D02*
X34691533Y-19886419D01*
X34691533Y-19886419D02*
X34262962Y-20886419D01*
X61499905Y-43676219D02*
X61499905Y-44485742D01*
X61499905Y-44485742D02*
X61547524Y-44580980D01*
X61547524Y-44580980D02*
X61595143Y-44628600D01*
X61595143Y-44628600D02*
X61690381Y-44676219D01*
X61690381Y-44676219D02*
X61880857Y-44676219D01*
X61880857Y-44676219D02*
X61976095Y-44628600D01*
X61976095Y-44628600D02*
X62023714Y-44580980D01*
X62023714Y-44580980D02*
X62071333Y-44485742D01*
X62071333Y-44485742D02*
X62071333Y-43676219D01*
X63023714Y-43676219D02*
X62547524Y-43676219D01*
X62547524Y-43676219D02*
X62499905Y-44152409D01*
X62499905Y-44152409D02*
X62547524Y-44104790D01*
X62547524Y-44104790D02*
X62642762Y-44057171D01*
X62642762Y-44057171D02*
X62880857Y-44057171D01*
X62880857Y-44057171D02*
X62976095Y-44104790D01*
X62976095Y-44104790D02*
X63023714Y-44152409D01*
X63023714Y-44152409D02*
X63071333Y-44247647D01*
X63071333Y-44247647D02*
X63071333Y-44485742D01*
X63071333Y-44485742D02*
X63023714Y-44580980D01*
X63023714Y-44580980D02*
X62976095Y-44628600D01*
X62976095Y-44628600D02*
X62880857Y-44676219D01*
X62880857Y-44676219D02*
X62642762Y-44676219D01*
X62642762Y-44676219D02*
X62547524Y-44628600D01*
X62547524Y-44628600D02*
X62499905Y-44580980D01*
X63690381Y-43676219D02*
X63785619Y-43676219D01*
X63785619Y-43676219D02*
X63880857Y-43723838D01*
X63880857Y-43723838D02*
X63928476Y-43771457D01*
X63928476Y-43771457D02*
X63976095Y-43866695D01*
X63976095Y-43866695D02*
X64023714Y-44057171D01*
X64023714Y-44057171D02*
X64023714Y-44295266D01*
X64023714Y-44295266D02*
X63976095Y-44485742D01*
X63976095Y-44485742D02*
X63928476Y-44580980D01*
X63928476Y-44580980D02*
X63880857Y-44628600D01*
X63880857Y-44628600D02*
X63785619Y-44676219D01*
X63785619Y-44676219D02*
X63690381Y-44676219D01*
X63690381Y-44676219D02*
X63595143Y-44628600D01*
X63595143Y-44628600D02*
X63547524Y-44580980D01*
X63547524Y-44580980D02*
X63499905Y-44485742D01*
X63499905Y-44485742D02*
X63452286Y-44295266D01*
X63452286Y-44295266D02*
X63452286Y-44057171D01*
X63452286Y-44057171D02*
X63499905Y-43866695D01*
X63499905Y-43866695D02*
X63547524Y-43771457D01*
X63547524Y-43771457D02*
X63595143Y-43723838D01*
X63595143Y-43723838D02*
X63690381Y-43676219D01*
X59357142Y-79874819D02*
X59023809Y-79398628D01*
X58785714Y-79874819D02*
X58785714Y-78874819D01*
X58785714Y-78874819D02*
X59166666Y-78874819D01*
X59166666Y-78874819D02*
X59261904Y-78922438D01*
X59261904Y-78922438D02*
X59309523Y-78970057D01*
X59309523Y-78970057D02*
X59357142Y-79065295D01*
X59357142Y-79065295D02*
X59357142Y-79208152D01*
X59357142Y-79208152D02*
X59309523Y-79303390D01*
X59309523Y-79303390D02*
X59261904Y-79351009D01*
X59261904Y-79351009D02*
X59166666Y-79398628D01*
X59166666Y-79398628D02*
X58785714Y-79398628D01*
X60309523Y-79874819D02*
X59738095Y-79874819D01*
X60023809Y-79874819D02*
X60023809Y-78874819D01*
X60023809Y-78874819D02*
X59928571Y-79017676D01*
X59928571Y-79017676D02*
X59833333Y-79112914D01*
X59833333Y-79112914D02*
X59738095Y-79160533D01*
X60880952Y-79303390D02*
X60785714Y-79255771D01*
X60785714Y-79255771D02*
X60738095Y-79208152D01*
X60738095Y-79208152D02*
X60690476Y-79112914D01*
X60690476Y-79112914D02*
X60690476Y-79065295D01*
X60690476Y-79065295D02*
X60738095Y-78970057D01*
X60738095Y-78970057D02*
X60785714Y-78922438D01*
X60785714Y-78922438D02*
X60880952Y-78874819D01*
X60880952Y-78874819D02*
X61071428Y-78874819D01*
X61071428Y-78874819D02*
X61166666Y-78922438D01*
X61166666Y-78922438D02*
X61214285Y-78970057D01*
X61214285Y-78970057D02*
X61261904Y-79065295D01*
X61261904Y-79065295D02*
X61261904Y-79112914D01*
X61261904Y-79112914D02*
X61214285Y-79208152D01*
X61214285Y-79208152D02*
X61166666Y-79255771D01*
X61166666Y-79255771D02*
X61071428Y-79303390D01*
X61071428Y-79303390D02*
X60880952Y-79303390D01*
X60880952Y-79303390D02*
X60785714Y-79351009D01*
X60785714Y-79351009D02*
X60738095Y-79398628D01*
X60738095Y-79398628D02*
X60690476Y-79493866D01*
X60690476Y-79493866D02*
X60690476Y-79684342D01*
X60690476Y-79684342D02*
X60738095Y-79779580D01*
X60738095Y-79779580D02*
X60785714Y-79827200D01*
X60785714Y-79827200D02*
X60880952Y-79874819D01*
X60880952Y-79874819D02*
X61071428Y-79874819D01*
X61071428Y-79874819D02*
X61166666Y-79827200D01*
X61166666Y-79827200D02*
X61214285Y-79779580D01*
X61214285Y-79779580D02*
X61261904Y-79684342D01*
X61261904Y-79684342D02*
X61261904Y-79493866D01*
X61261904Y-79493866D02*
X61214285Y-79398628D01*
X61214285Y-79398628D02*
X61166666Y-79351009D01*
X61166666Y-79351009D02*
X61071428Y-79303390D01*
X61583333Y-68459580D02*
X61535714Y-68507200D01*
X61535714Y-68507200D02*
X61392857Y-68554819D01*
X61392857Y-68554819D02*
X61297619Y-68554819D01*
X61297619Y-68554819D02*
X61154762Y-68507200D01*
X61154762Y-68507200D02*
X61059524Y-68411961D01*
X61059524Y-68411961D02*
X61011905Y-68316723D01*
X61011905Y-68316723D02*
X60964286Y-68126247D01*
X60964286Y-68126247D02*
X60964286Y-67983390D01*
X60964286Y-67983390D02*
X61011905Y-67792914D01*
X61011905Y-67792914D02*
X61059524Y-67697676D01*
X61059524Y-67697676D02*
X61154762Y-67602438D01*
X61154762Y-67602438D02*
X61297619Y-67554819D01*
X61297619Y-67554819D02*
X61392857Y-67554819D01*
X61392857Y-67554819D02*
X61535714Y-67602438D01*
X61535714Y-67602438D02*
X61583333Y-67650057D01*
X62488095Y-67554819D02*
X62011905Y-67554819D01*
X62011905Y-67554819D02*
X61964286Y-68031009D01*
X61964286Y-68031009D02*
X62011905Y-67983390D01*
X62011905Y-67983390D02*
X62107143Y-67935771D01*
X62107143Y-67935771D02*
X62345238Y-67935771D01*
X62345238Y-67935771D02*
X62440476Y-67983390D01*
X62440476Y-67983390D02*
X62488095Y-68031009D01*
X62488095Y-68031009D02*
X62535714Y-68126247D01*
X62535714Y-68126247D02*
X62535714Y-68364342D01*
X62535714Y-68364342D02*
X62488095Y-68459580D01*
X62488095Y-68459580D02*
X62440476Y-68507200D01*
X62440476Y-68507200D02*
X62345238Y-68554819D01*
X62345238Y-68554819D02*
X62107143Y-68554819D01*
X62107143Y-68554819D02*
X62011905Y-68507200D01*
X62011905Y-68507200D02*
X61964286Y-68459580D01*
D12*
%TO.C,R14*%
X95747600Y-86340200D02*
X95747600Y-84500200D01*
X95747600Y-84500200D02*
X91907600Y-84500200D01*
X91907600Y-86340200D02*
X95747600Y-86340200D01*
X96697600Y-85420200D02*
X95747600Y-85420200D01*
X91907600Y-84500200D02*
X91907600Y-86340200D01*
X90957600Y-85420200D02*
X91907600Y-85420200D01*
%TO.C,R13*%
X109235000Y-76027800D02*
X109235000Y-74187800D01*
X109235000Y-74187800D02*
X105395000Y-74187800D01*
X105395000Y-76027800D02*
X109235000Y-76027800D01*
X110185000Y-75107800D02*
X109235000Y-75107800D01*
X105395000Y-74187800D02*
X105395000Y-76027800D01*
X104445000Y-75107800D02*
X105395000Y-75107800D01*
%TO.C,Q1*%
X66232400Y-25540600D02*
X66232400Y-20899600D01*
X66232400Y-25540600D02*
X55992400Y-25540600D01*
X66232400Y-24030600D02*
X55992400Y-24030600D01*
X66232400Y-20899600D02*
X55992400Y-20899600D01*
X62962400Y-25540600D02*
X62962400Y-24030600D01*
X59261400Y-25540600D02*
X59261400Y-24030600D01*
X55992400Y-25540600D02*
X55992400Y-20899600D01*
%TO.C,R10*%
X104630000Y-70000000D02*
X105580000Y-70000000D01*
X105580000Y-69080000D02*
X105580000Y-70920000D01*
X105580000Y-70920000D02*
X109420000Y-70920000D01*
X109420000Y-69080000D02*
X105580000Y-69080000D01*
X109420000Y-70920000D02*
X109420000Y-69080000D01*
X110370000Y-70000000D02*
X109420000Y-70000000D01*
%TO.C,R7*%
X117500000Y-22130000D02*
X117500000Y-23080000D01*
X118420000Y-23080000D02*
X116580000Y-23080000D01*
X116580000Y-23080000D02*
X116580000Y-26920000D01*
X118420000Y-26920000D02*
X118420000Y-23080000D01*
X116580000Y-26920000D02*
X118420000Y-26920000D01*
X117500000Y-27870000D02*
X117500000Y-26920000D01*
%TO.C,R31*%
X30352800Y-21209000D02*
X29402800Y-21209000D01*
X29402800Y-22129000D02*
X29402800Y-20289000D01*
X29402800Y-20289000D02*
X25562800Y-20289000D01*
X25562800Y-22129000D02*
X29402800Y-22129000D01*
X25562800Y-20289000D02*
X25562800Y-22129000D01*
X24612800Y-21209000D02*
X25562800Y-21209000D01*
%TO.C,U1*%
X47804400Y-24461000D02*
X47804400Y-34741000D01*
X47804400Y-34741000D02*
X53104400Y-34741000D01*
X49454400Y-24461000D02*
X47804400Y-24461000D01*
X53104400Y-24461000D02*
X51454400Y-24461000D01*
X53104400Y-34741000D02*
X53104400Y-24461000D01*
X49454400Y-24461000D02*
G75*
G03*
X51454400Y-24461000I1000000J0D01*
G01*
%TO.C,J6*%
X26055000Y-59610000D02*
X24725000Y-59610000D01*
X26055000Y-58280000D02*
X26055000Y-59610000D01*
X26055000Y-57010000D02*
X26055000Y-51870000D01*
X26055000Y-57010000D02*
X23395000Y-57010000D01*
X26055000Y-51870000D02*
X23395000Y-51870000D01*
X23395000Y-57010000D02*
X23395000Y-51870000D01*
%TO.C,D5*%
X100000000Y-66260000D02*
X100000000Y-67280000D01*
X101470000Y-67280000D02*
X98530000Y-67280000D01*
X98530000Y-67280000D02*
X98530000Y-72720000D01*
X101470000Y-68060000D02*
X98530000Y-68060000D01*
X101470000Y-68180000D02*
X98530000Y-68180000D01*
X101470000Y-68300000D02*
X98530000Y-68300000D01*
X101470000Y-72720000D02*
X101470000Y-67280000D01*
X98530000Y-72720000D02*
X101470000Y-72720000D01*
X100000000Y-73740000D02*
X100000000Y-72720000D01*
%TO.C,R11*%
X111175000Y-38055000D02*
X111175000Y-39005000D01*
X112095000Y-39005000D02*
X110255000Y-39005000D01*
X110255000Y-39005000D02*
X110255000Y-42845000D01*
X112095000Y-42845000D02*
X112095000Y-39005000D01*
X110255000Y-42845000D02*
X112095000Y-42845000D01*
X111175000Y-43795000D02*
X111175000Y-42845000D01*
%TO.C,R35*%
X93490000Y-25600000D02*
X94440000Y-25600000D01*
X94440000Y-24680000D02*
X94440000Y-26520000D01*
X94440000Y-26520000D02*
X98280000Y-26520000D01*
X98280000Y-24680000D02*
X94440000Y-24680000D01*
X98280000Y-26520000D02*
X98280000Y-24680000D01*
X99230000Y-25600000D02*
X98280000Y-25600000D01*
%TO.C,R30*%
X40792200Y-37363400D02*
X39842200Y-37363400D01*
X39842200Y-38283400D02*
X39842200Y-36443400D01*
X39842200Y-36443400D02*
X36002200Y-36443400D01*
X36002200Y-38283400D02*
X39842200Y-38283400D01*
X36002200Y-36443400D02*
X36002200Y-38283400D01*
X35052200Y-37363400D02*
X36002200Y-37363400D01*
%TO.C,R33*%
X28855000Y-40975000D02*
X29805000Y-40975000D01*
X29805000Y-40055000D02*
X29805000Y-41895000D01*
X29805000Y-41895000D02*
X33645000Y-41895000D01*
X33645000Y-40055000D02*
X29805000Y-40055000D01*
X33645000Y-41895000D02*
X33645000Y-40055000D01*
X34595000Y-40975000D02*
X33645000Y-40975000D01*
%TO.C,R17*%
X55000000Y-72870000D02*
X55000000Y-71920000D01*
X54080000Y-71920000D02*
X55920000Y-71920000D01*
X55920000Y-71920000D02*
X55920000Y-68080000D01*
X54080000Y-68080000D02*
X54080000Y-71920000D01*
X55920000Y-68080000D02*
X54080000Y-68080000D01*
X55000000Y-67130000D02*
X55000000Y-68080000D01*
%TO.C,C2*%
X116130000Y-31130000D02*
X116130000Y-33870000D01*
X116130000Y-31130000D02*
X121370000Y-31130000D01*
X116130000Y-33870000D02*
X121370000Y-33870000D01*
X121370000Y-31130000D02*
X121370000Y-33870000D01*
%TO.C,D1*%
X58012200Y-30861000D02*
X58662200Y-30861000D01*
X58662200Y-29741000D02*
X58662200Y-31981000D01*
X58662200Y-31981000D02*
X62902200Y-31981000D01*
X59262200Y-29741000D02*
X59262200Y-31981000D01*
X59382200Y-29741000D02*
X59382200Y-31981000D01*
X59502200Y-29741000D02*
X59502200Y-31981000D01*
X62902200Y-29741000D02*
X58662200Y-29741000D01*
X62902200Y-31981000D02*
X62902200Y-29741000D01*
X63552200Y-30861000D02*
X62902200Y-30861000D01*
%TO.C,J4*%
X80650000Y-15997400D02*
X80650000Y-18597400D01*
X80650000Y-15997400D02*
X84350000Y-15997400D01*
X84350000Y-15997400D02*
X84350000Y-18597400D01*
X84350000Y-18597400D02*
X80650000Y-18597400D01*
%TO.C,IC1*%
X107510000Y-24445000D02*
X107510000Y-34725000D01*
X107510000Y-34725000D02*
X112010000Y-34725000D01*
X108760000Y-24445000D02*
X107510000Y-24445000D01*
X112010000Y-24445000D02*
X110760000Y-24445000D01*
X112010000Y-34725000D02*
X112010000Y-24445000D01*
X108760000Y-24445000D02*
G75*
G03*
X110760000Y-24445000I1000000J0D01*
G01*
%TO.C,C11*%
X104890000Y-81026000D02*
G75*
G03*
X98350000Y-81026000I-3270000J0D01*
G01*
X98350000Y-81026000D02*
G75*
G03*
X104890000Y-81026000I3270000J0D01*
G01*
%TO.C,J8*%
X123900000Y-76175000D02*
X123900000Y-78775000D01*
X123900000Y-76175000D02*
X127600000Y-76175000D01*
X127600000Y-76175000D02*
X127600000Y-78775000D01*
X127600000Y-78775000D02*
X123900000Y-78775000D01*
%TO.C,D6*%
X124670000Y-71264000D02*
X124670000Y-71420000D01*
X124670000Y-73580000D02*
X124670000Y-73736000D01*
X127902334Y-71421392D02*
G75*
G03*
X124670001Y-71264485I-1672334J-1078608D01*
G01*
X127271129Y-71420164D02*
G75*
G03*
X125189040Y-71420001I-1041129J-1079836D01*
G01*
X125189040Y-73579999D02*
G75*
G03*
X127271129Y-73579836I1040960J1079999D01*
G01*
X124670001Y-73735515D02*
G75*
G03*
X127902334Y-73578608I1559999J1235515D01*
G01*
%TO.C,C1*%
X82020000Y-23139400D02*
G75*
G03*
X75480000Y-23139400I-3270000J0D01*
G01*
X75480000Y-23139400D02*
G75*
G03*
X82020000Y-23139400I3270000J0D01*
G01*
%TO.C,R2*%
X58038800Y-37541200D02*
X57088800Y-37541200D01*
X57088800Y-38461200D02*
X57088800Y-36621200D01*
X57088800Y-36621200D02*
X53248800Y-36621200D01*
X53248800Y-38461200D02*
X57088800Y-38461200D01*
X53248800Y-36621200D02*
X53248800Y-38461200D01*
X52298800Y-37541200D02*
X53248800Y-37541200D01*
%TO.C,R28*%
X67259200Y-32055000D02*
X67259200Y-33005000D01*
X68179200Y-33005000D02*
X66339200Y-33005000D01*
X66339200Y-33005000D02*
X66339200Y-36845000D01*
X68179200Y-36845000D02*
X68179200Y-33005000D01*
X66339200Y-36845000D02*
X68179200Y-36845000D01*
X67259200Y-37795000D02*
X67259200Y-36845000D01*
%TO.C,J2*%
X73150000Y-16048200D02*
X73150000Y-18648200D01*
X73150000Y-16048200D02*
X76850000Y-16048200D01*
X76850000Y-16048200D02*
X76850000Y-18648200D01*
X76850000Y-18648200D02*
X73150000Y-18648200D01*
%TO.C,D7*%
X95000000Y-61260000D02*
X95000000Y-62280000D01*
X96470000Y-62280000D02*
X93530000Y-62280000D01*
X93530000Y-62280000D02*
X93530000Y-67720000D01*
X96470000Y-63060000D02*
X93530000Y-63060000D01*
X96470000Y-63180000D02*
X93530000Y-63180000D01*
X96470000Y-63300000D02*
X93530000Y-63300000D01*
X96470000Y-67720000D02*
X96470000Y-62280000D01*
X93530000Y-67720000D02*
X96470000Y-67720000D01*
X95000000Y-68740000D02*
X95000000Y-67720000D01*
%TO.C,IC4*%
X100465000Y-43305000D02*
X100465000Y-33025000D01*
X100465000Y-33025000D02*
X95965000Y-33025000D01*
X99215000Y-43305000D02*
X100465000Y-43305000D01*
X95965000Y-43305000D02*
X97215000Y-43305000D01*
X95965000Y-33025000D02*
X95965000Y-43305000D01*
X99215000Y-43305000D02*
G75*
G03*
X97215000Y-43305000I-1000000J0D01*
G01*
%TO.C,J3*%
X68150000Y-16175200D02*
X68150000Y-18775200D01*
X68150000Y-16175200D02*
X71850000Y-16175200D01*
X71850000Y-16175200D02*
X71850000Y-18775200D01*
X71850000Y-18775200D02*
X68150000Y-18775200D01*
%TO.C,R24*%
X70820000Y-55000000D02*
X71770000Y-55000000D01*
X71770000Y-54080000D02*
X71770000Y-55920000D01*
X71770000Y-55920000D02*
X75610000Y-55920000D01*
X75610000Y-54080000D02*
X71770000Y-54080000D01*
X75610000Y-55920000D02*
X75610000Y-54080000D01*
X76560000Y-55000000D02*
X75610000Y-55000000D01*
%TO.C,U11*%
X28540000Y-70970000D02*
X28540000Y-91410000D01*
X28540000Y-91410000D02*
X33840000Y-91410000D01*
X30190000Y-70970000D02*
X28540000Y-70970000D01*
X33840000Y-70970000D02*
X32190000Y-70970000D01*
X33840000Y-91410000D02*
X33840000Y-70970000D01*
X30190000Y-70970000D02*
G75*
G03*
X32190000Y-70970000I1000000J0D01*
G01*
%TO.C,Q2*%
X55335800Y-23742400D02*
X55335800Y-19101400D01*
X55335800Y-23742400D02*
X45095800Y-23742400D01*
X55335800Y-22232400D02*
X45095800Y-22232400D01*
X55335800Y-19101400D02*
X45095800Y-19101400D01*
X52065800Y-23742400D02*
X52065800Y-22232400D01*
X48364800Y-23742400D02*
X48364800Y-22232400D01*
X45095800Y-23742400D02*
X45095800Y-19101400D01*
%TO.C,J7*%
X85650000Y-16200000D02*
X85650000Y-18800000D01*
X85650000Y-16200000D02*
X89350000Y-16200000D01*
X89350000Y-16200000D02*
X89350000Y-18800000D01*
X89350000Y-18800000D02*
X85650000Y-18800000D01*
%TO.C,R12*%
X114630000Y-70000000D02*
X115580000Y-70000000D01*
X115580000Y-69080000D02*
X115580000Y-70920000D01*
X115580000Y-70920000D02*
X119420000Y-70920000D01*
X119420000Y-69080000D02*
X115580000Y-69080000D01*
X119420000Y-70920000D02*
X119420000Y-69080000D01*
X120370000Y-70000000D02*
X119420000Y-70000000D01*
%TO.C,R3*%
X97870000Y-22500000D02*
X96920000Y-22500000D01*
X96920000Y-23420000D02*
X96920000Y-21580000D01*
X96920000Y-21580000D02*
X93080000Y-21580000D01*
X93080000Y-23420000D02*
X96920000Y-23420000D01*
X93080000Y-21580000D02*
X93080000Y-23420000D01*
X92130000Y-22500000D02*
X93080000Y-22500000D01*
%TO.C,C6*%
X43928600Y-36934000D02*
X43928600Y-37559000D01*
X43928600Y-36934000D02*
X47968600Y-36934000D01*
X43928600Y-39149000D02*
X43928600Y-39774000D01*
X43928600Y-39774000D02*
X47968600Y-39774000D01*
X47968600Y-36934000D02*
X47968600Y-37559000D01*
X47968600Y-39149000D02*
X47968600Y-39774000D01*
%TO.C,R9*%
X114681200Y-75565000D02*
X115631200Y-75565000D01*
X115631200Y-74645000D02*
X115631200Y-76485000D01*
X115631200Y-76485000D02*
X119471200Y-76485000D01*
X119471200Y-74645000D02*
X115631200Y-74645000D01*
X119471200Y-76485000D02*
X119471200Y-74645000D01*
X120421200Y-75565000D02*
X119471200Y-75565000D01*
%TO.C,U2*%
X35206000Y-24537200D02*
X35206000Y-34817200D01*
X35206000Y-34817200D02*
X40506000Y-34817200D01*
X36856000Y-24537200D02*
X35206000Y-24537200D01*
X40506000Y-24537200D02*
X38856000Y-24537200D01*
X40506000Y-34817200D02*
X40506000Y-24537200D01*
X36856000Y-24537200D02*
G75*
G03*
X38856000Y-24537200I1000000J0D01*
G01*
%TO.C,IC2*%
X46315000Y-80180000D02*
X46315000Y-69900000D01*
X46315000Y-69900000D02*
X41815000Y-69900000D01*
X45065000Y-80180000D02*
X46315000Y-80180000D01*
X41815000Y-80180000D02*
X43065000Y-80180000D01*
X41815000Y-69900000D02*
X41815000Y-80180000D01*
X45065000Y-80180000D02*
G75*
G03*
X43065000Y-80180000I-1000000J0D01*
G01*
%TO.C,J1*%
X38590000Y-91330000D02*
X38590000Y-90000000D01*
X39920000Y-91330000D02*
X38590000Y-91330000D01*
X41190000Y-91330000D02*
X48870000Y-91330000D01*
X41190000Y-91330000D02*
X41190000Y-88670000D01*
X48870000Y-91330000D02*
X48870000Y-88670000D01*
X41190000Y-88670000D02*
X48870000Y-88670000D01*
%TO.C,U7*%
X44860000Y-54870000D02*
X44860000Y-65150000D01*
X44860000Y-65150000D02*
X50160000Y-65150000D01*
X46510000Y-54870000D02*
X44860000Y-54870000D01*
X50160000Y-54870000D02*
X48510000Y-54870000D01*
X50160000Y-65150000D02*
X50160000Y-54870000D01*
X46510000Y-54870000D02*
G75*
G03*
X48510000Y-54870000I1000000J0D01*
G01*
%TO.C,R50*%
X52500000Y-82870000D02*
X52500000Y-81920000D01*
X51580000Y-81920000D02*
X53420000Y-81920000D01*
X53420000Y-81920000D02*
X53420000Y-78080000D01*
X51580000Y-78080000D02*
X51580000Y-81920000D01*
X53420000Y-78080000D02*
X51580000Y-78080000D01*
X52500000Y-77130000D02*
X52500000Y-78080000D01*
%TO.C,C4*%
X121370000Y-66370000D02*
X121370000Y-63630000D01*
X121370000Y-66370000D02*
X116130000Y-66370000D01*
X121370000Y-63630000D02*
X116130000Y-63630000D01*
X116130000Y-66370000D02*
X116130000Y-63630000D01*
%TO.C,U10*%
X47906000Y-41250400D02*
X47906000Y-51530400D01*
X47906000Y-51530400D02*
X53206000Y-51530400D01*
X49556000Y-41250400D02*
X47906000Y-41250400D01*
X53206000Y-41250400D02*
X51556000Y-41250400D01*
X53206000Y-51530400D02*
X53206000Y-41250400D01*
X49556000Y-41250400D02*
G75*
G03*
X51556000Y-41250400I1000000J0D01*
G01*
%TO.C,R26*%
X84630000Y-52500000D02*
X85580000Y-52500000D01*
X85580000Y-51580000D02*
X85580000Y-53420000D01*
X85580000Y-53420000D02*
X89420000Y-53420000D01*
X89420000Y-51580000D02*
X85580000Y-51580000D01*
X89420000Y-53420000D02*
X89420000Y-51580000D01*
X90370000Y-52500000D02*
X89420000Y-52500000D01*
%TO.C,R20*%
X80950000Y-82804000D02*
X81900000Y-82804000D01*
X81900000Y-81884000D02*
X81900000Y-83724000D01*
X81900000Y-83724000D02*
X85740000Y-83724000D01*
X85740000Y-81884000D02*
X81900000Y-81884000D01*
X85740000Y-83724000D02*
X85740000Y-81884000D01*
X86690000Y-82804000D02*
X85740000Y-82804000D01*
%TO.C,C3*%
X121370000Y-38870000D02*
X121370000Y-36130000D01*
X121370000Y-38870000D02*
X116130000Y-38870000D01*
X121370000Y-36130000D02*
X116130000Y-36130000D01*
X116130000Y-38870000D02*
X116130000Y-36130000D01*
%TO.C,D4*%
X29030000Y-44225000D02*
X29680000Y-44225000D01*
X29680000Y-43105000D02*
X29680000Y-45345000D01*
X29680000Y-45345000D02*
X33920000Y-45345000D01*
X30280000Y-43105000D02*
X30280000Y-45345000D01*
X30400000Y-43105000D02*
X30400000Y-45345000D01*
X30520000Y-43105000D02*
X30520000Y-45345000D01*
X33920000Y-43105000D02*
X29680000Y-43105000D01*
X33920000Y-45345000D02*
X33920000Y-43105000D01*
X34570000Y-44225000D02*
X33920000Y-44225000D01*
%TO.C,C8*%
X74520000Y-22500000D02*
G75*
G03*
X67980000Y-22500000I-3270000J0D01*
G01*
X67980000Y-22500000D02*
G75*
G03*
X74520000Y-22500000I3270000J0D01*
G01*
D13*
%TO.C,U3*%
X105070500Y-47991500D02*
X111674500Y-47991500D01*
X105070500Y-67168500D02*
X111674500Y-67168500D01*
D11*
X103255000Y-49960000D02*
G75*
G03*
X103055000Y-49960000I-100000J0D01*
G01*
X103055000Y-49960000D02*
G75*
G03*
X103255000Y-49960000I100000J0D01*
G01*
D12*
%TO.C,RV3*%
X34879000Y-52880000D02*
X34879000Y-53574000D01*
X34879000Y-52880000D02*
X40120000Y-52880000D01*
X34879000Y-56426000D02*
X34879000Y-63575000D01*
X34879000Y-56880000D02*
X34879000Y-63121000D01*
X34879000Y-56880000D02*
X40120000Y-56880000D01*
X34879000Y-63121000D02*
X40120000Y-63121000D01*
X34879000Y-66425000D02*
X34879000Y-67120000D01*
X34879000Y-67120000D02*
X40120000Y-67120000D01*
X40120000Y-52880000D02*
X40120000Y-58575000D01*
X40120000Y-56880000D02*
X40120000Y-58575000D01*
X40120000Y-61425000D02*
X40120000Y-63121000D01*
X40120000Y-61425000D02*
X40120000Y-67120000D01*
%TO.C,R6*%
X100000000Y-54630000D02*
X100000000Y-55580000D01*
X100920000Y-55580000D02*
X99080000Y-55580000D01*
X99080000Y-55580000D02*
X99080000Y-59420000D01*
X100920000Y-59420000D02*
X100920000Y-55580000D01*
X99080000Y-59420000D02*
X100920000Y-59420000D01*
X100000000Y-60370000D02*
X100000000Y-59420000D01*
%TO.C,R27*%
X95000000Y-49630000D02*
X95000000Y-50580000D01*
X95920000Y-50580000D02*
X94080000Y-50580000D01*
X94080000Y-50580000D02*
X94080000Y-54420000D01*
X95920000Y-54420000D02*
X95920000Y-50580000D01*
X94080000Y-54420000D02*
X95920000Y-54420000D01*
X95000000Y-55370000D02*
X95000000Y-54420000D01*
%TO.C,R5*%
X102130000Y-45000000D02*
X103080000Y-45000000D01*
X103080000Y-44080000D02*
X103080000Y-45920000D01*
X103080000Y-45920000D02*
X106920000Y-45920000D01*
X106920000Y-44080000D02*
X103080000Y-44080000D01*
X106920000Y-45920000D02*
X106920000Y-44080000D01*
X107870000Y-45000000D02*
X106920000Y-45000000D01*
%TO.C,R21*%
X87870000Y-77500000D02*
X86920000Y-77500000D01*
X86920000Y-78420000D02*
X86920000Y-76580000D01*
X86920000Y-76580000D02*
X83080000Y-76580000D01*
X83080000Y-78420000D02*
X86920000Y-78420000D01*
X83080000Y-76580000D02*
X83080000Y-78420000D01*
X82130000Y-77500000D02*
X83080000Y-77500000D01*
%TO.C,R29*%
X35382400Y-21615400D02*
X36332400Y-21615400D01*
X36332400Y-20695400D02*
X36332400Y-22535400D01*
X36332400Y-22535400D02*
X40172400Y-22535400D01*
X40172400Y-20695400D02*
X36332400Y-20695400D01*
X40172400Y-22535400D02*
X40172400Y-20695400D01*
X41122400Y-21615400D02*
X40172400Y-21615400D01*
%TO.C,RV5*%
X24074400Y-23334600D02*
X24074400Y-24028600D01*
X24074400Y-23334600D02*
X29315400Y-23334600D01*
X24074400Y-26880600D02*
X24074400Y-34029600D01*
X24074400Y-27334600D02*
X24074400Y-33575600D01*
X24074400Y-27334600D02*
X29315400Y-27334600D01*
X24074400Y-33575600D02*
X29315400Y-33575600D01*
X24074400Y-36879600D02*
X24074400Y-37574600D01*
X24074400Y-37574600D02*
X29315400Y-37574600D01*
X29315400Y-23334600D02*
X29315400Y-29029600D01*
X29315400Y-27334600D02*
X29315400Y-29029600D01*
X29315400Y-31879600D02*
X29315400Y-33575600D01*
X29315400Y-31879600D02*
X29315400Y-37574600D01*
%TO.C,R23*%
X65370000Y-55000000D02*
X64420000Y-55000000D01*
X64420000Y-55920000D02*
X64420000Y-54080000D01*
X64420000Y-54080000D02*
X60580000Y-54080000D01*
X60580000Y-55920000D02*
X64420000Y-55920000D01*
X60580000Y-54080000D02*
X60580000Y-55920000D01*
X59630000Y-55000000D02*
X60580000Y-55000000D01*
%TO.C,IC3*%
X77630000Y-73935000D02*
X67350000Y-73935000D01*
X67350000Y-73935000D02*
X67350000Y-78435000D01*
X77630000Y-75185000D02*
X77630000Y-73935000D01*
X77630000Y-78435000D02*
X77630000Y-77185000D01*
X67350000Y-78435000D02*
X77630000Y-78435000D01*
X77630000Y-75185000D02*
G75*
G03*
X77630000Y-77185000I0J-1000000D01*
G01*
%TO.C,C10*%
X83630000Y-26130000D02*
X83630000Y-28870000D01*
X83630000Y-26130000D02*
X88870000Y-26130000D01*
X83630000Y-28870000D02*
X88870000Y-28870000D01*
X88870000Y-26130000D02*
X88870000Y-28870000D01*
%TO.C,RV4*%
X77120000Y-59879000D02*
X76426000Y-59879000D01*
X77120000Y-59879000D02*
X77120000Y-65120000D01*
X73574000Y-59879000D02*
X66425000Y-59879000D01*
X73120000Y-59879000D02*
X66879000Y-59879000D01*
X73120000Y-59879000D02*
X73120000Y-65120000D01*
X66879000Y-59879000D02*
X66879000Y-65120000D01*
X63575000Y-59879000D02*
X62880000Y-59879000D01*
X62880000Y-59879000D02*
X62880000Y-65120000D01*
X77120000Y-65120000D02*
X71425000Y-65120000D01*
X73120000Y-65120000D02*
X71425000Y-65120000D01*
X68575000Y-65120000D02*
X66879000Y-65120000D01*
X68575000Y-65120000D02*
X62880000Y-65120000D01*
%TO.C,R22*%
X60000000Y-65370000D02*
X60000000Y-64420000D01*
X59080000Y-64420000D02*
X60920000Y-64420000D01*
X60920000Y-64420000D02*
X60920000Y-60580000D01*
X59080000Y-60580000D02*
X59080000Y-64420000D01*
X60920000Y-60580000D02*
X59080000Y-60580000D01*
X60000000Y-59630000D02*
X60000000Y-60580000D01*
%TO.C,R8*%
X122500000Y-27870000D02*
X122500000Y-26920000D01*
X121580000Y-26920000D02*
X123420000Y-26920000D01*
X123420000Y-26920000D02*
X123420000Y-23080000D01*
X121580000Y-23080000D02*
X121580000Y-26920000D01*
X123420000Y-23080000D02*
X121580000Y-23080000D01*
X122500000Y-22130000D02*
X122500000Y-23080000D01*
D13*
%TO.C,U60*%
X70826500Y-31607800D02*
X77426500Y-31607800D01*
X70826500Y-32927800D02*
X70826500Y-31607800D01*
X70826500Y-51297800D02*
X70826500Y-49977800D01*
X77426500Y-31607800D02*
X77426500Y-32927800D01*
X77426500Y-49977800D02*
X77426500Y-51297800D01*
X77426500Y-51297800D02*
X70826500Y-51297800D01*
D11*
X69171500Y-33832800D02*
G75*
G03*
X68971500Y-33832800I-100000J0D01*
G01*
X68971500Y-33832800D02*
G75*
G03*
X69171500Y-33832800I100000J0D01*
G01*
D12*
%TO.C,R19*%
X48742400Y-82500000D02*
X47792400Y-82500000D01*
X47792400Y-83420000D02*
X47792400Y-81580000D01*
X47792400Y-81580000D02*
X43952400Y-81580000D01*
X43952400Y-83420000D02*
X47792400Y-83420000D01*
X43952400Y-81580000D02*
X43952400Y-83420000D01*
X43002400Y-82500000D02*
X43952400Y-82500000D01*
%TO.C,R32*%
X24100000Y-40980000D02*
X24100000Y-41930000D01*
X25020000Y-41930000D02*
X23180000Y-41930000D01*
X23180000Y-41930000D02*
X23180000Y-45770000D01*
X25020000Y-45770000D02*
X25020000Y-41930000D01*
X23180000Y-45770000D02*
X25020000Y-45770000D01*
X24100000Y-46720000D02*
X24100000Y-45770000D01*
%TO.C,R4*%
X106530000Y-20275000D02*
X107480000Y-20275000D01*
X107480000Y-19355000D02*
X107480000Y-21195000D01*
X107480000Y-21195000D02*
X111320000Y-21195000D01*
X111320000Y-19355000D02*
X107480000Y-19355000D01*
X111320000Y-21195000D02*
X111320000Y-19355000D01*
X112270000Y-20275000D02*
X111320000Y-20275000D01*
%TO.C,R1*%
X57836000Y-27635200D02*
X58786000Y-27635200D01*
X58786000Y-26715200D02*
X58786000Y-28555200D01*
X58786000Y-28555200D02*
X62626000Y-28555200D01*
X62626000Y-26715200D02*
X58786000Y-26715200D01*
X62626000Y-28555200D02*
X62626000Y-26715200D01*
X63576000Y-27635200D02*
X62626000Y-27635200D01*
%TO.C,R25*%
X80000000Y-57130000D02*
X80000000Y-58080000D01*
X80920000Y-58080000D02*
X79080000Y-58080000D01*
X79080000Y-58080000D02*
X79080000Y-61920000D01*
X80920000Y-61920000D02*
X80920000Y-58080000D01*
X79080000Y-61920000D02*
X80920000Y-61920000D01*
X80000000Y-62870000D02*
X80000000Y-61920000D01*
%TO.C,D2*%
X63399800Y-34086800D02*
X62749800Y-34086800D01*
X62749800Y-35206800D02*
X62749800Y-32966800D01*
X62749800Y-32966800D02*
X58509800Y-32966800D01*
X62149800Y-35206800D02*
X62149800Y-32966800D01*
X62029800Y-35206800D02*
X62029800Y-32966800D01*
X61909800Y-35206800D02*
X61909800Y-32966800D01*
X58509800Y-35206800D02*
X62749800Y-35206800D01*
X58509800Y-32966800D02*
X58509800Y-35206800D01*
X57859800Y-34086800D02*
X58509800Y-34086800D01*
%TO.C,C9*%
X83630000Y-21130000D02*
X83630000Y-23870000D01*
X83630000Y-21130000D02*
X88870000Y-21130000D01*
X83630000Y-23870000D02*
X88870000Y-23870000D01*
X88870000Y-21130000D02*
X88870000Y-23870000D01*
%TO.C,IC5*%
X81235000Y-32685000D02*
X81235000Y-50705000D01*
X81235000Y-50705000D02*
X91735000Y-50705000D01*
X84235000Y-32745000D02*
X84235000Y-50645000D01*
X84235000Y-50645000D02*
X88735000Y-50645000D01*
X85485000Y-32745000D02*
X84235000Y-32745000D01*
X88735000Y-32745000D02*
X87485000Y-32745000D01*
X88735000Y-50645000D02*
X88735000Y-32745000D01*
X91735000Y-32685000D02*
X81235000Y-32685000D01*
X91735000Y-50705000D02*
X91735000Y-32685000D01*
X85485000Y-32745000D02*
G75*
G03*
X87485000Y-32745000I1000000J0D01*
G01*
%TO.C,U8*%
X91450000Y-68540000D02*
X81170000Y-68540000D01*
X81170000Y-68540000D02*
X81170000Y-73840000D01*
X91450000Y-70190000D02*
X91450000Y-68540000D01*
X91450000Y-73840000D02*
X91450000Y-72190000D01*
X81170000Y-73840000D02*
X91450000Y-73840000D01*
X91450000Y-70190000D02*
G75*
G03*
X91450000Y-72190000I0J-1000000D01*
G01*
%TO.C,J5*%
X23490000Y-66355000D02*
X23490000Y-65025000D01*
X24820000Y-66355000D02*
X23490000Y-66355000D01*
X26090000Y-66355000D02*
X31230000Y-66355000D01*
X26090000Y-66355000D02*
X26090000Y-63695000D01*
X31230000Y-66355000D02*
X31230000Y-63695000D01*
X26090000Y-63695000D02*
X31230000Y-63695000D01*
%TO.C,RV2*%
X124885000Y-52690000D02*
X115115000Y-52690000D01*
X124885000Y-52690000D02*
X124885000Y-62460000D01*
X115115000Y-52690000D02*
X115115000Y-62460000D01*
X124885000Y-62460000D02*
X115115000Y-62460000D01*
%TO.C,U9*%
X92630000Y-57360000D02*
X82350000Y-57360000D01*
X82350000Y-57360000D02*
X82350000Y-62660000D01*
X92630000Y-59010000D02*
X92630000Y-57360000D01*
X92630000Y-62660000D02*
X92630000Y-61010000D01*
X82350000Y-62660000D02*
X92630000Y-62660000D01*
X92630000Y-59010000D02*
G75*
G03*
X92630000Y-61010000I0J-1000000D01*
G01*
%TO.C,D3*%
X34475000Y-47525000D02*
X33825000Y-47525000D01*
X33825000Y-48645000D02*
X33825000Y-46405000D01*
X33825000Y-46405000D02*
X29585000Y-46405000D01*
X33225000Y-48645000D02*
X33225000Y-46405000D01*
X33105000Y-48645000D02*
X33105000Y-46405000D01*
X32985000Y-48645000D02*
X32985000Y-46405000D01*
X29585000Y-48645000D02*
X33825000Y-48645000D01*
X29585000Y-46405000D02*
X29585000Y-48645000D01*
X28935000Y-47525000D02*
X29585000Y-47525000D01*
%TO.C,RV1*%
X128670000Y-42079000D02*
X127976000Y-42079000D01*
X128670000Y-42079000D02*
X128670000Y-47320000D01*
X125124000Y-42079000D02*
X117975000Y-42079000D01*
X124670000Y-42079000D02*
X118429000Y-42079000D01*
X124670000Y-42079000D02*
X124670000Y-47320000D01*
X118429000Y-42079000D02*
X118429000Y-47320000D01*
X115125000Y-42079000D02*
X114430000Y-42079000D01*
X114430000Y-42079000D02*
X114430000Y-47320000D01*
X128670000Y-47320000D02*
X122975000Y-47320000D01*
X124670000Y-47320000D02*
X122975000Y-47320000D01*
X120125000Y-47320000D02*
X118429000Y-47320000D01*
X120125000Y-47320000D02*
X114430000Y-47320000D01*
%TO.C,C7*%
X35878200Y-19301600D02*
X35878200Y-18676600D01*
X35878200Y-19301600D02*
X31838200Y-19301600D01*
X35878200Y-17086600D02*
X35878200Y-16461600D01*
X35878200Y-16461600D02*
X31838200Y-16461600D01*
X31838200Y-19301600D02*
X31838200Y-18676600D01*
X31838200Y-17086600D02*
X31838200Y-16461600D01*
%TO.C,U50*%
X59834000Y-41240400D02*
X59834000Y-51520400D01*
X59834000Y-51520400D02*
X65134000Y-51520400D01*
X61484000Y-41240400D02*
X59834000Y-41240400D01*
X65134000Y-41240400D02*
X63484000Y-41240400D01*
X65134000Y-51520400D02*
X65134000Y-41240400D01*
X61484000Y-41240400D02*
G75*
G03*
X63484000Y-41240400I1000000J0D01*
G01*
%TO.C,R18*%
X62870000Y-77500000D02*
X61920000Y-77500000D01*
X61920000Y-78420000D02*
X61920000Y-76580000D01*
X61920000Y-76580000D02*
X58080000Y-76580000D01*
X58080000Y-78420000D02*
X61920000Y-78420000D01*
X58080000Y-76580000D02*
X58080000Y-78420000D01*
X57130000Y-77500000D02*
X58080000Y-77500000D01*
%TO.C,C5*%
X65020000Y-72500000D02*
G75*
G03*
X58480000Y-72500000I-3270000J0D01*
G01*
X58480000Y-72500000D02*
G75*
G03*
X65020000Y-72500000I3270000J0D01*
G01*
%TD*%
M02*
