M48
; DRILL file {KiCad 7.0.10} date Tue Apr  2 15:08:02 2024
; FORMAT={-:-/ absolute / metric / decimal}
; #@! TF.CreationDate,2024-04-02T15:08:02+05:30
; #@! TF.GenerationSoftware,Kicad,Pcbnew,7.0.10
; #@! TF.FileFunction,MixedPlating,1,2
FMAT,2
METRIC
; #@! TA.AperFunction,Plated,PTH,ComponentDrill
T1C0.700
; #@! TA.AperFunction,Plated,PTH,ComponentDrill
T2C0.770
; #@! TA.AperFunction,Plated,PTH,ComponentDrill
T3C0.800
; #@! TA.AperFunction,Plated,PTH,ComponentDrill
T4C0.830
; #@! TA.AperFunction,Plated,PTH,ComponentDrill
T5C0.900
; #@! TA.AperFunction,Plated,PTH,ViaDrill
T6C1.000
; #@! TA.AperFunction,Plated,PTH,ComponentDrill
T7C1.000
; #@! TA.AperFunction,Plated,PTH,ComponentDrill
T8C1.100
; #@! TA.AperFunction,Plated,PTH,ComponentDrill
T9C1.300
; #@! TA.AperFunction,NonPlated,NPTH,ComponentDrill
T10C3.000
%
G90
G05
T1
X23.673Y-21.209
X24.1Y-40.04
X24.1Y-47.66
X27.915Y-40.975
X31.293Y-21.209
X34.112Y-37.363
X34.442Y-21.615
X35.535Y-40.975
X41.732Y-37.363
X42.062Y-21.615
X42.062Y-82.5
X49.682Y-82.5
X51.359Y-37.541
X52.5Y-76.19
X52.5Y-83.81
X55.0Y-66.19
X55.0Y-73.81
X56.19Y-77.5
X56.896Y-27.635
X58.69Y-55.0
X58.979Y-37.541
X60.0Y-58.69
X60.0Y-66.31
X63.81Y-77.5
X64.516Y-27.635
X66.31Y-55.0
X67.259Y-31.115
X67.259Y-38.735
X69.88Y-55.0
X77.5Y-55.0
X80.0Y-56.19
X80.0Y-63.81
X80.01Y-82.804
X81.19Y-77.5
X83.69Y-52.5
X87.63Y-82.804
X88.81Y-77.5
X90.018Y-85.42
X91.19Y-22.5
X91.31Y-52.5
X92.55Y-25.6
X95.0Y-48.69
X95.0Y-56.31
X97.638Y-85.42
X98.81Y-22.5
X100.0Y-53.69
X100.0Y-61.31
X100.17Y-25.6
X101.19Y-45.0
X103.505Y-75.108
X103.69Y-70.0
X105.59Y-20.275
X108.81Y-45.0
X111.125Y-75.108
X111.175Y-37.115
X111.175Y-44.735
X111.31Y-70.0
X113.21Y-20.275
X113.69Y-70.0
X113.741Y-75.565
X117.5Y-21.19
X117.5Y-28.81
X121.31Y-70.0
X121.361Y-75.565
X122.5Y-21.19
X122.5Y-28.81
T2
X70.156Y-33.833
X70.156Y-36.373
X70.156Y-38.913
X70.156Y-41.453
X70.156Y-43.993
X70.156Y-46.533
X70.156Y-49.073
X78.096Y-33.833
X78.096Y-36.373
X78.096Y-38.913
X78.096Y-41.453
X78.096Y-43.993
X78.096Y-46.533
X78.096Y-49.073
T3
X27.38Y-72.3
X27.38Y-74.84
X27.38Y-77.38
X27.38Y-79.92
X27.38Y-82.46
X27.38Y-85.0
X27.38Y-87.54
X27.38Y-90.08
X27.895Y-47.525
X27.99Y-44.225
X32.608Y-17.882
X34.046Y-25.867
X34.046Y-28.407
X34.046Y-30.947
X34.046Y-33.487
X35.0Y-72.3
X35.0Y-74.84
X35.0Y-77.38
X35.0Y-79.92
X35.0Y-82.46
X35.0Y-85.0
X35.0Y-87.54
X35.0Y-90.08
X35.108Y-17.882
X35.515Y-47.525
X35.61Y-44.225
X40.255Y-71.23
X40.255Y-73.77
X40.255Y-76.31
X40.255Y-78.85
X41.666Y-25.867
X41.666Y-28.407
X41.666Y-30.947
X41.666Y-33.487
X43.7Y-56.2
X43.7Y-58.74
X43.7Y-61.28
X43.7Y-63.82
X44.699Y-38.354
X46.644Y-25.791
X46.644Y-28.331
X46.644Y-30.871
X46.644Y-33.411
X46.746Y-42.58
X46.746Y-45.12
X46.746Y-47.66
X46.746Y-50.2
X47.199Y-38.354
X47.875Y-71.23
X47.875Y-73.77
X47.875Y-76.31
X47.875Y-78.85
X51.32Y-56.2
X51.32Y-58.74
X51.32Y-61.28
X51.32Y-63.82
X54.264Y-25.791
X54.264Y-28.331
X54.264Y-30.871
X54.264Y-33.411
X54.366Y-42.58
X54.366Y-45.12
X54.366Y-47.66
X54.366Y-50.2
X56.82Y-34.087
X56.972Y-30.861
X58.674Y-42.57
X58.674Y-45.11
X58.674Y-47.65
X58.674Y-50.19
X60.5Y-72.5
X63.0Y-72.5
X64.44Y-34.087
X64.592Y-30.861
X66.294Y-42.57
X66.294Y-45.11
X66.294Y-47.65
X66.294Y-50.19
X68.68Y-72.375
X68.68Y-79.995
X70.0Y-22.5
X71.22Y-72.375
X71.22Y-79.995
X72.5Y-22.5
X73.76Y-72.375
X73.76Y-79.995
X76.3Y-72.375
X76.3Y-79.995
X77.5Y-23.139
X80.0Y-23.139
X82.5Y-67.38
X82.5Y-75.0
X82.675Y-34.075
X82.675Y-36.615
X82.675Y-39.155
X82.675Y-41.695
X82.675Y-44.235
X82.675Y-46.775
X82.675Y-49.315
X83.68Y-56.2
X83.68Y-63.82
X85.0Y-22.5
X85.0Y-27.5
X85.04Y-67.38
X85.04Y-75.0
X86.22Y-56.2
X86.22Y-63.82
X87.5Y-22.5
X87.5Y-27.5
X87.58Y-67.38
X87.58Y-75.0
X88.76Y-56.2
X88.76Y-63.82
X90.12Y-67.38
X90.12Y-75.0
X90.295Y-34.075
X90.295Y-36.615
X90.295Y-39.155
X90.295Y-41.695
X90.295Y-44.235
X90.295Y-46.775
X90.295Y-49.315
X91.3Y-56.2
X91.3Y-63.82
X94.405Y-34.355
X94.405Y-36.895
X94.405Y-39.435
X94.405Y-41.975
X100.37Y-81.026
X102.025Y-34.355
X102.025Y-36.895
X102.025Y-39.435
X102.025Y-41.975
X102.87Y-81.026
X105.95Y-25.775
X105.95Y-28.315
X105.95Y-30.855
X105.95Y-33.395
X113.57Y-25.775
X113.57Y-28.315
X113.57Y-30.855
X113.57Y-33.395
X117.46Y-54.92
X117.5Y-32.5
X117.5Y-37.5
X117.5Y-65.0
X120.0Y-32.5
X120.0Y-37.5
X120.0Y-60.0
X120.0Y-65.0
X122.54Y-54.92
T4
X104.245Y-49.96
X104.245Y-52.5
X104.245Y-55.04
X104.245Y-57.58
X104.245Y-60.12
X104.245Y-62.66
X104.245Y-65.2
X112.5Y-49.96
X112.5Y-52.5
X112.5Y-55.04
X112.5Y-57.58
X112.5Y-60.12
X112.5Y-62.66
X112.5Y-65.2
T5
X124.96Y-72.5
X127.5Y-72.5
T6
X18.644Y-42.621
X18.644Y-49.555
X19.101Y-35.179
X19.431Y-77.724
X19.456Y-56.49
X19.456Y-63.83
X19.482Y-24.105
X19.71Y-69.901
X19.73Y-28.244
X19.787Y-82.347
X22.758Y-86.868
X22.86Y-74.168
X24.841Y-93.269
X26.289Y-17.577
X27.75Y-68.225
X28.15Y-55.95
X29.439Y-95.377
X29.718Y-16.053
X30.099Y-53.416
X30.937Y-85.903
X31.18Y-81.175
X31.191Y-88.875
X31.496Y-60.503
X32.525Y-77.45
X34.696Y-94.412
X36.83Y-68.682
X37.49Y-15.951
X38.252Y-31.496
X40.081Y-43.256
X40.259Y-49.708
X41.199Y-94.92
X42.037Y-16.662
X42.494Y-45.441
X43.891Y-67.793
X46.482Y-16.231
X47.219Y-94.767
X50.622Y-32.487
X51.765Y-67.005
X51.994Y-93.904
X52.553Y-16.332
X56.083Y-59.334
X56.236Y-87.198
X56.5Y-48.95
X56.693Y-93.599
X59.563Y-17.094
X60.477Y-91.288
X61.205Y-43.209
X61.951Y-84.582
X63.424Y-46.38
X63.602Y-50.444
X64.211Y-17.78
X65.837Y-89.738
X67.335Y-27.432
X70.79Y-57.531
X71.842Y-90.343
X72.746Y-27.534
X73.812Y-43.612
X73.889Y-37.135
X74.32Y-57.201
X74.498Y-85.674
X75.108Y-47.168
X77.368Y-27.61
X78.315Y-90.343
X80.061Y-42.901
X84.633Y-90.348
X84.709Y-60.147
X86.275Y-41.875
X90.17Y-60.452
X91.337Y-90.343
X92.862Y-78.13
X93.294Y-82.575
X93.574Y-16.688
X93.65Y-30.531
X93.98Y-45.263
X95.961Y-89.484
X97.485Y-46.863
X100.4Y-48.46
X101.321Y-17.145
X102.819Y-88.875
X105.004Y-72.492
X105.375Y-37.025
X106.401Y-53.645
X106.426Y-56.439
X106.7Y-62.625
X107.137Y-78.613
X108.839Y-16.231
X109.398Y-60.782
X109.874Y-72.081
X109.95Y-30.4
X110.216Y-89.341
X110.312Y-54.534
X111.404Y-80.34
X114.275Y-16.358
X116.459Y-88.189
X118.288Y-50.622
X118.999Y-16.916
X119.736Y-82.55
X124.775Y-69.15
X124.917Y-36.906
X125.247Y-88.138
X126.441Y-25.425
X126.517Y-17.729
X126.517Y-31.801
X126.949Y-51.105
X127.559Y-65.837
X128.702Y-55.499
X129.642Y-21.895
X131.953Y-25.248
X132.867Y-83.388
X133.248Y-45.644
X134.036Y-29.743
X134.264Y-59.461
X134.493Y-72.288
X134.595Y-36.119
X134.595Y-65.938
X134.605Y-39.927
X134.849Y-80.848
X134.95Y-51.613
T7
X24.725Y-53.2
X24.725Y-55.74
X24.725Y-58.28
X24.82Y-65.025
X27.36Y-65.025
X29.9Y-65.025
X39.92Y-90.0
X42.46Y-90.0
X45.0Y-90.0
X47.54Y-90.0
T8
X47.676Y-20.472
X50.216Y-20.472
X52.756Y-20.472
X58.572Y-22.271
X61.112Y-22.271
X63.652Y-22.271
X70.0Y-17.475
X75.0Y-17.348
X82.5Y-17.297
X87.5Y-17.5
X95.0Y-59.92
X95.0Y-70.08
X100.0Y-64.92
X100.0Y-75.08
X125.75Y-77.475
T9
X24.195Y-25.455
X24.195Y-35.455
X29.195Y-30.455
X35.0Y-55.0
X35.0Y-65.0
X40.0Y-60.0
X65.0Y-60.0
X70.0Y-65.0
X75.0Y-60.0
X116.55Y-42.2
X121.55Y-47.2
X126.55Y-42.2
T10
X19.787Y-17.704
X19.939Y-93.345
X133.985Y-17.882
X134.722Y-93.472
M30
